{"glyphs":{"0":{"ha":1245,"x_min":61,"x_max":1184,"o":"m 359 929 q 148 850 235 929 q 61 658 61 770 l 61 271 q 148 79 61 159 q 359 0 235 0 l 886 0 q 1097 79 1010 0 q 1184 271 1184 159 l 1184 658 q 1097 850 1184 770 q 886 929 1010 929 l 359 929 m 434 722 l 811 722 q 896 691 861 724 q 930 614 930 661 l 930 315 q 896 239 930 271 q 811 207 861 209 l 434 207 q 349 238 384 208 q 315 315 315 271 l 315 614 q 349 690 315 661 q 434 722 384 723 z "},"1":{"ha":566,"x_min":61,"x_max":505,"o":"m 505 929 l 505 0 l 251 0 l 251 677 l 61 603 l 61 821 l 340 929 l 505 929 z "},"2":{"ha":1177,"x_min":61,"x_max":1116,"o":"m 376 929 q 159 848 248 931 q 69 649 69 766 l 69 645 l 323 645 q 323 647 325 646 q 322 649 323 649 q 345 699 323 680 q 401 720 368 720 l 773 720 q 836 696 812 720 q 863 639 863 674 q 837 581 863 605 q 773 557 811 557 l 376 557 q 154 473 246 559 q 61 269 62 389 l 61 0 l 1116 0 l 1116 205 l 314 205 l 314 268 q 340 325 315 302 q 404 349 367 349 l 797 349 q 1023 433 929 350 q 1116 639 1116 519 q 1023 844 1116 760 q 797 929 930 929 l 376 929 z "},"3":{"ha":1223,"x_min":61,"x_max":1162,"o":"m 386 929 q 183 853 267 930 q 100 669 100 777 l 353 669 q 385 706 363 692 q 435 720 408 720 l 782 720 q 845 696 819 720 q 871 638 871 673 q 846 581 872 605 q 782 557 819 559 l 492 557 l 492 381 l 816 381 q 883 356 857 381 q 911 295 911 332 q 883 234 911 260 q 816 208 857 208 l 398 208 q 315 253 342 208 l 61 253 q 140 74 61 149 q 330 0 220 0 l 894 0 q 1084 74 1005 0 q 1162 253 1162 149 q 1126 380 1162 321 q 1027 473 1089 439 q 1099 561 1073 510 q 1124 669 1124 612 q 1040 852 1124 777 q 838 929 956 929 l 386 929 z "},"4":{"ha":1265,"x_min":61,"x_max":1204,"o":"m 501 929 l 61 289 l 61 130 l 797 130 l 797 0 l 1050 0 l 1050 130 l 1204 130 l 1204 337 l 1050 337 l 1050 639 l 797 639 l 797 337 l 406 337 l 810 929 l 501 929 z "},"5":{"ha":1150,"x_min":61,"x_max":1089,"o":"m 64 929 l 64 389 l 737 389 q 807 363 779 389 q 836 299 838 336 q 807 235 838 261 q 737 208 779 208 l 61 208 l 61 0 l 760 0 q 993 87 897 0 q 1089 299 1089 175 q 993 511 1089 423 q 760 598 897 598 l 318 598 l 318 722 q 702 722 456 722 q 1029 723 948 723 l 1029 929 l 64 929 z "},"6":{"ha":1226,"x_min":61,"x_max":1165,"o":"m 376 928 q 153 846 245 930 q 61 656 61 765 l 61 282 q 151 83 61 166 q 372 0 243 0 l 853 0 q 1073 83 983 0 q 1164 282 1164 166 q 1074 481 1165 399 q 853 564 983 564 l 315 564 l 315 658 q 335 703 315 685 q 386 722 357 722 q 1090 721 841 721 l 1090 928 l 376 928 m 313 358 l 827 358 q 887 337 865 358 q 910 282 910 317 q 888 227 910 248 q 827 206 865 206 l 397 206 q 336 227 359 206 q 313 281 313 249 l 313 358 z "},"7":{"ha":1200,"x_min":61,"x_max":1139,"o":"m 61 929 l 61 722 l 785 722 l 217 0 l 536 0 l 1139 770 l 1139 929 l 61 929 z "},"8":{"ha":1223,"x_min":61,"x_max":1162,"o":"m 385 929 q 183 853 267 930 q 99 669 99 777 q 125 561 99 612 q 196 473 151 510 q 98 381 134 439 q 61 253 61 322 q 140 74 61 149 q 330 0 218 0 l 894 0 q 1083 74 1006 0 q 1162 253 1162 149 q 1126 380 1162 321 q 1027 473 1089 439 q 1098 561 1074 510 q 1124 669 1124 612 q 1040 852 1124 777 q 838 929 958 929 l 385 929 m 442 720 l 781 720 q 844 696 818 720 q 870 638 870 673 q 844 581 871 605 q 781 557 818 559 l 442 557 q 379 581 406 559 q 353 638 353 605 q 378 696 353 673 q 442 720 406 720 m 409 381 l 814 381 q 882 356 855 381 q 909 295 910 332 q 882 234 910 260 q 814 208 855 208 l 409 208 q 342 233 370 208 q 314 295 316 260 q 341 356 315 332 q 409 381 370 381 z "},"9":{"ha":1226,"x_min":61,"x_max":1165,"o":"m 848 0 q 1072 81 981 0 q 1164 271 1164 164 l 1164 646 q 1074 845 1165 762 q 853 928 983 928 l 372 928 q 152 845 243 928 q 61 646 61 762 q 151 446 61 530 q 372 363 243 363 l 910 363 l 910 270 q 890 224 912 243 q 839 205 869 206 q 134 207 385 208 l 134 0 l 848 0 m 911 570 l 398 570 q 338 591 361 570 q 315 646 315 612 q 337 701 315 680 q 398 722 360 722 l 827 722 q 888 701 866 724 q 911 646 911 681 l 911 570 z "},"B":{"ha":1378,"x_min":61,"x_max":1317,"o":"m 61 929 l 61 0 l 1031 0 q 1234 75 1152 0 q 1317 260 1317 152 q 1276 393 1317 332 q 1168 488 1236 454 q 1235 572 1211 524 q 1259 675 1259 621 q 1178 854 1261 780 q 979 929 1096 929 l 61 929 m 315 732 l 897 732 q 967 705 939 732 q 996 641 996 680 q 967 577 996 604 q 897 551 939 551 l 315 551 l 315 732 m 315 378 l 961 378 q 1030 352 1002 378 q 1059 288 1059 326 q 1031 223 1061 250 q 961 197 1002 197 l 315 197 l 315 378 z "},"A":{"ha":1473,"x_min":20,"x_max":1453,"o":"m 610 929 l 20 0 l 293 0 l 422 203 l 1051 203 l 1179 0 l 1453 0 l 863 929 l 610 929 m 737 699 l 926 400 l 547 400 l 737 699 z "},"C":{"ha":1426,"x_min":61,"x_max":1364,"o":"m 359 929 q 149 850 236 929 q 61 658 61 770 l 61 271 q 148 79 61 159 q 359 0 235 0 l 1065 0 q 1277 79 1190 0 q 1364 271 1364 159 l 1364 330 l 1110 330 l 1110 315 q 1076 239 1110 271 q 991 207 1042 209 l 434 207 q 350 238 385 208 q 315 315 315 271 l 315 614 q 349 690 315 661 q 434 722 385 723 l 991 722 q 1076 691 1042 724 q 1110 614 1110 661 l 1110 598 l 1364 598 l 1364 658 q 1277 850 1364 770 q 1065 929 1190 929 l 359 929 z "},"D":{"ha":1430,"x_min":61,"x_max":1369,"o":"m 61 929 l 61 0 l 1047 0 q 1202 36 1131 0 q 1321 135 1276 72 q 1367 271 1369 198 l 1367 658 q 1322 794 1369 731 q 1203 893 1279 857 q 1047 929 1130 929 l 61 929 m 315 722 l 994 722 q 1078 691 1044 724 q 1113 614 1113 661 l 1113 315 q 1078 239 1113 271 q 994 207 1044 209 l 315 207 l 315 722 z "},"E":{"ha":1270,"x_min":61,"x_max":1208,"o":"m 61 929 l 61 0 l 1208 0 l 1208 207 l 315 207 l 315 367 l 1089 367 l 1089 570 l 315 570 l 315 722 l 1208 722 l 1208 929 l 61 929 z "},"F":{"ha":1242,"x_min":61,"x_max":1181,"o":"m 61 929 l 61 0 l 315 0 l 315 338 l 1062 338 l 1062 541 l 315 541 l 315 722 l 1181 722 l 1181 929 l 61 929 z "},"G":{"ha":1445,"x_min":61,"x_max":1384,"o":"m 359 929 q 148 850 235 929 q 61 658 61 770 l 61 271 q 148 79 61 159 q 359 0 235 0 l 1384 0 l 1384 547 l 814 547 l 814 351 l 1131 351 l 1131 207 l 434 207 q 349 238 384 208 q 315 315 315 271 l 315 614 q 349 690 315 661 q 434 722 384 723 l 1352 722 l 1352 929 l 359 929 z "},"H":{"ha":1380,"x_min":61,"x_max":1319,"o":"m 61 929 l 61 0 l 315 0 l 315 374 l 1065 374 l 1065 0 l 1319 0 l 1319 929 l 1065 929 l 1065 581 l 315 581 l 315 929 l 61 929 z "},"I":{"ha":376,"x_min":61,"x_max":315,"o":"m 61 929 l 61 0 l 315 0 l 315 929 l 61 929 z "},"J":{"ha":834,"x_min":61,"x_max":773,"o":"m 773 929 l 773 271 q 686 79 773 159 q 475 0 599 0 l 61 0 l 61 207 l 400 207 q 484 238 450 208 q 519 315 519 271 l 519 929 l 773 929 z "},"K":{"ha":1423,"x_min":61,"x_max":1402,"o":"m 61 929 l 61 0 l 315 0 l 315 454 l 985 0 l 1402 0 l 641 493 l 1351 929 l 934 929 l 315 530 l 315 929 l 61 929 z "},"L":{"ha":1221,"x_min":61,"x_max":1160,"o":"m 61 0 l 61 929 l 315 929 l 315 207 l 1160 207 l 1160 0 l 61 0 z "},"M":{"ha":1604,"x_min":61,"x_max":1543,"o":"m 1543 929 l 1543 0 l 1289 0 l 1289 589 l 911 83 l 693 83 l 315 589 l 315 0 l 61 0 l 61 929 l 324 929 l 802 278 l 1279 929 l 1543 929 z "},"N":{"ha":1433,"x_min":61,"x_max":1372,"o":"m 61 929 l 61 0 l 315 0 l 315 652 l 1118 0 l 1372 0 l 1372 929 l 1118 929 l 1118 277 l 315 929 l 61 929 z "},"O":{"ha":1446,"x_min":61,"x_max":1385,"o":"m 359 929 q 148 850 235 929 q 61 658 61 770 l 61 271 q 148 79 61 159 q 359 0 235 0 l 1086 0 q 1297 79 1211 0 q 1384 271 1385 159 l 1384 658 q 1297 850 1385 770 q 1086 929 1211 929 l 359 929 m 434 722 l 1011 722 q 1096 691 1062 724 q 1131 614 1131 661 l 1131 315 q 1096 239 1131 271 q 1011 207 1062 209 l 434 207 q 349 238 384 208 q 315 315 315 271 l 315 614 q 349 690 315 661 q 434 722 384 723 z "},"P":{"ha":1390,"x_min":61,"x_max":1329,"o":"m 61 929 l 61 0 l 315 0 l 315 290 l 978 290 q 1154 332 1074 290 q 1282 448 1236 375 q 1329 609 1329 522 q 1282 770 1329 696 q 1154 886 1236 844 q 978 929 1074 929 l 61 929 m 315 722 l 954 722 q 1044 690 1009 723 q 1079 609 1079 660 q 1044 528 1079 560 q 954 496 1009 498 l 315 496 l 315 722 z "},"Q":{"ha":1446,"x_min":61,"x_max":1385,"o":"m 359 929 q 148 850 235 929 q 61 658 61 770 l 61 271 q 148 79 61 159 q 359 0 235 0 l 749 0 l 864 -181 l 1137 -181 l 1023 0 l 1086 0 q 1297 79 1211 0 q 1384 271 1385 159 l 1384 658 q 1297 850 1385 770 q 1086 929 1211 929 l 359 929 m 434 722 l 1011 722 q 1096 691 1062 724 q 1131 614 1131 661 l 1131 315 q 1096 239 1131 271 q 1011 207 1062 209 l 434 207 q 349 238 384 208 q 315 315 315 271 l 315 614 q 349 690 315 661 q 434 722 384 723 z "},"R":{"ha":1374,"x_min":61,"x_max":1313,"o":"m 61 929 l 61 0 l 315 0 l 315 337 l 739 337 l 1018 0 l 1313 0 l 1010 340 q 1217 436 1134 355 q 1299 633 1299 519 q 1204 842 1299 755 q 973 929 1108 929 l 61 929 m 315 722 l 949 722 q 1020 697 994 724 q 1048 632 1048 673 q 1020 567 1048 593 q 949 541 994 541 l 315 542 l 315 722 z "},"S":{"ha":1371,"x_min":61,"x_max":1310,"o":"m 370 929 q 153 844 241 925 q 63 648 63 765 q 153 450 63 533 q 370 368 242 369 l 968 368 q 1031 344 1005 368 q 1058 286 1058 320 q 1032 228 1058 252 q 968 204 1006 206 l 388 204 q 325 229 351 204 q 298 287 298 253 l 298 288 l 61 288 q 153 84 61 168 q 377 0 247 0 l 992 0 q 1215 84 1124 0 q 1308 288 1309 168 q 1216 492 1310 408 q 992 577 1124 578 q 704 577 899 579 q 415 576 509 576 q 360 597 382 576 q 337 648 338 618 q 359 699 337 678 q 415 720 382 722 l 943 720 q 1000 699 978 722 q 1023 648 1023 679 q 1022 644 1024 648 l 1022 644 l 1269 644 l 1269 648 q 1179 847 1269 765 q 962 929 1090 929 l 370 929 z "},"T":{"ha":1338,"x_min":61,"x_max":1277,"o":"m 61 929 l 61 722 l 542 722 l 542 0 l 795 0 l 795 722 l 1277 722 l 1277 929 l 61 929 z "},"U":{"ha":1386,"x_min":61,"x_max":1325,"o":"m 61 929 l 61 271 q 148 79 61 159 q 359 0 235 0 l 1026 0 q 1238 79 1151 0 q 1324 271 1325 159 l 1324 929 l 1071 929 l 1071 315 q 1036 239 1071 271 q 951 207 1002 209 l 434 207 q 349 238 384 208 q 315 315 315 271 l 315 929 l 61 929 z "},"V":{"ha":1462,"x_min":20,"x_max":1442,"o":"m 584 0 l 20 929 l 314 929 l 732 231 l 1148 929 l 1442 929 l 878 0 l 584 0 z "},"W":{"ha":1954,"x_min":27,"x_max":1927,"o":"m 27 929 l 440 0 l 693 0 l 977 614 l 1261 0 l 1514 0 l 1927 929 l 1652 929 l 1377 307 l 1104 922 l 850 922 l 576 307 l 302 929 l 27 929 z "},"X":{"ha":1693,"x_min":20,"x_max":1673,"o":"m 71 929 l 648 484 l 20 0 l 410 0 l 846 352 l 1284 0 l 1673 0 l 1045 484 l 1623 929 l 1232 929 l 846 615 l 461 929 l 71 929 z "},"Y":{"ha":1577,"x_min":20,"x_max":1557,"o":"m 20 929 l 662 336 l 662 0 l 916 0 l 916 336 l 1557 929 l 1183 929 l 789 538 l 395 929 l 20 929 z "},"Z":{"ha":1390,"x_min":61,"x_max":1329,"o":"m 93 929 l 93 722 l 884 722 l 61 168 l 61 0 l 1329 0 l 1329 207 l 478 207 l 1297 760 l 1297 929 l 93 929 z "},"Α":{"ha":1554,"x_min":61,"x_max":1493,"o":"m 651 929 l 61 0 l 334 0 l 463 203 l 1092 203 l 1220 0 l 1493 0 l 903 929 l 651 929 m 778 699 l 966 400 l 588 400 l 778 699 z "},"А":{"ha":1554,"x_min":61,"x_max":1493,"o":"m 651 929 l 61 0 l 334 0 l 463 203 l 1092 203 l 1220 0 l 1493 0 l 903 929 l 651 929 m 778 699 l 966 400 l 588 400 l 778 699 z "},"В":{"ha":1379,"x_min":61,"x_max":1318,"o":"m 61 929 l 61 0 l 1032 0 q 1234 75 1152 0 q 1318 260 1318 152 q 1277 393 1318 332 q 1168 488 1236 454 q 1235 572 1211 524 q 1259 675 1259 621 q 1178 854 1261 780 q 980 929 1096 929 l 61 929 m 315 732 l 898 732 q 967 705 939 732 q 996 641 998 680 q 968 577 998 604 q 898 551 939 551 l 315 551 l 315 732 m 315 378 l 961 378 q 1031 352 1002 378 q 1059 288 1059 326 q 1031 223 1059 250 q 961 197 1002 197 l 315 197 l 315 378 z "},"Β":{"ha":1379,"x_min":61,"x_max":1318,"o":"m 61 929 l 61 0 l 1032 0 q 1234 75 1152 0 q 1318 260 1318 152 q 1277 393 1318 332 q 1168 488 1236 454 q 1235 572 1211 524 q 1259 675 1259 621 q 1178 854 1261 780 q 980 929 1096 929 l 61 929 m 315 732 l 898 732 q 967 705 939 732 q 996 641 998 680 q 968 577 998 604 q 898 551 939 551 l 315 551 l 315 732 m 315 378 l 961 378 q 1031 352 1002 378 q 1059 288 1059 326 q 1031 223 1059 250 q 961 197 1002 197 l 315 197 l 315 378 z "},"Γ":{"ha":1221,"x_min":61,"x_max":1160,"o":"m 61 929 l 61 0 l 315 0 l 315 722 l 1160 722 l 1160 929 l 61 929 z "},"Г":{"ha":1222,"x_min":61,"x_max":1161,"o":"m 61 929 l 61 0 l 315 0 l 315 722 l 1161 722 l 1161 929 l 61 929 z "},"Ε":{"ha":1270,"x_min":61,"x_max":1208,"o":"m 61 929 l 61 0 l 1208 0 l 1208 207 l 315 207 l 315 367 l 1089 367 l 1089 570 l 315 570 l 315 722 l 1208 722 l 1208 929 l 61 929 z "},"Е":{"ha":1269,"x_min":61,"x_max":1208,"o":"m 61 929 l 61 0 l 1208 0 l 1208 207 l 315 207 l 315 367 l 1088 367 l 1088 570 l 315 570 l 315 722 l 1208 722 l 1208 929 l 61 929 z "},"Η":{"ha":1380,"x_min":61,"x_max":1319,"o":"m 61 929 l 61 0 l 315 0 l 315 374 l 1065 374 l 1065 0 l 1319 0 l 1319 929 l 1065 929 l 1065 581 l 315 581 l 315 929 l 61 929 m 61 929 l 61 0 l 315 0 l 315 374 l 1065 374 l 1065 0 l 1319 0 l 1319 929 l 1065 929 l 1065 581 l 315 581 l 315 929 l 61 929 z "},"Н":{"ha":1380,"x_min":61,"x_max":1319,"o":"m 61 929 l 61 0 l 315 0 l 315 374 l 1065 374 l 1065 0 l 1319 0 l 1319 929 l 1065 929 l 1065 581 l 315 581 l 315 929 l 61 929 z "},"Ζ":{"ha":1390,"x_min":61,"x_max":1329,"o":"m 93 929 l 93 722 l 884 722 l 61 168 l 61 0 l 1329 0 l 1329 207 l 478 207 l 1297 760 l 1297 929 l 93 929 z "},"Ι":{"ha":376,"x_min":61,"x_max":315,"o":"m 61 929 l 61 0 l 315 0 l 315 929 l 61 929 z "},"Κ":{"ha":1463,"x_min":61,"x_max":1402,"o":"m 61 929 l 61 0 l 315 0 l 315 454 l 985 0 l 1402 0 l 641 493 l 1351 929 l 934 929 l 315 530 l 315 929 l 61 929 z "},"Μ":{"ha":1603,"x_min":61,"x_max":1542,"o":"m 1542 929 l 1542 0 l 1289 0 l 1289 589 l 910 83 l 692 83 l 315 589 l 315 0 l 61 0 l 61 929 l 324 929 l 802 278 l 1279 929 l 1542 929 z "},"М":{"ha":1603,"x_min":61,"x_max":1542,"o":"m 1542 929 l 1542 0 l 1289 0 l 1289 589 l 910 83 l 692 83 l 315 589 l 315 0 l 61 0 l 61 929 l 324 929 l 802 278 l 1279 929 l 1542 929 z "},"Ν":{"ha":1434,"x_min":61,"x_max":1373,"o":"m 61 929 l 61 0 l 315 0 l 315 652 l 1118 0 l 1373 0 l 1373 929 l 1118 929 l 1118 277 l 315 929 l 61 929 z "},"И":{"ha":1434,"x_min":61,"x_max":1373,"o":"m 61 0 l 61 929 l 315 929 l 315 277 l 1118 929 l 1373 929 l 1373 0 l 1118 0 l 1118 652 l 315 0 l 61 0 z "},"Ο":{"ha":1446,"x_min":61,"x_max":1385,"o":"m 359 929 q 149 850 236 929 q 61 658 61 770 l 61 271 q 148 79 61 159 q 359 0 235 0 l 1086 0 q 1297 79 1210 0 q 1385 271 1385 159 l 1385 658 q 1298 850 1385 770 q 1086 929 1211 929 l 359 929 m 434 722 l 1012 722 q 1096 691 1062 724 q 1131 614 1131 661 l 1131 315 q 1097 239 1131 271 q 1012 207 1062 209 l 434 207 q 350 238 385 208 q 315 315 315 271 l 315 614 q 349 690 315 661 q 434 722 385 723 z "},"Ρ":{"ha":1390,"x_min":61,"x_max":1329,"o":"m 61 929 l 61 0 l 315 0 l 315 290 l 978 290 q 1154 332 1073 290 q 1282 448 1236 375 q 1329 609 1329 522 q 1282 770 1329 696 q 1155 886 1236 844 q 978 929 1074 929 l 61 929 m 315 722 l 954 722 q 1044 690 1009 723 q 1080 609 1080 660 q 1044 528 1081 560 q 954 496 1009 498 l 315 496 l 315 722 z "},"Р":{"ha":1390,"x_min":61,"x_max":1329,"o":"m 61 929 l 61 0 l 315 0 l 315 290 l 978 290 q 1154 332 1074 290 q 1282 448 1236 375 q 1329 609 1329 522 q 1282 770 1329 696 q 1154 886 1236 844 q 978 929 1074 929 l 61 929 m 315 722 l 954 722 q 1044 690 1009 723 q 1080 609 1080 660 q 1044 528 1081 560 q 954 496 1009 498 l 315 496 l 315 722 z "},"Τ":{"ha":1338,"x_min":61,"x_max":1277,"o":"m 61 929 l 61 722 l 543 722 l 543 0 l 796 0 l 796 722 l 1277 722 l 1277 929 l 61 929 z "},"Т":{"ha":1338,"x_min":61,"x_max":1277,"o":"m 61 929 l 61 722 l 543 722 l 543 0 l 796 0 l 796 722 l 1277 722 l 1277 929 l 61 929 z "},"Υ":{"ha":1659,"x_min":61,"x_max":1598,"o":"m 61 929 l 703 336 l 703 0 l 956 0 l 956 336 l 1598 929 l 1223 929 l 829 538 l 435 929 l 61 929 z "},"Χ":{"ha":1775,"x_min":61,"x_max":1714,"o":"m 112 929 l 690 484 l 61 0 l 451 0 l 887 352 l 1325 0 l 1714 0 l 1086 484 l 1664 929 l 1274 929 l 887 615 l 503 929 l 112 929 z "},"Х":{"ha":1775,"x_min":61,"x_max":1714,"o":"m 112 929 l 690 484 l 61 0 l 451 0 l 887 352 l 1325 0 l 1714 0 l 1086 484 l 1664 929 l 1274 929 l 887 615 l 503 929 l 112 929 z "},"Λ":{"ha":1544,"x_min":61,"x_max":1483,"o":"m 625 929 l 61 0 l 355 0 l 773 699 l 1190 0 l 1483 0 l 920 929 l 625 929 z "},"Δ":{"ha":1542,"x_min":61,"x_max":1481,"o":"m 623 929 l 61 0 l 1481 0 l 918 929 l 623 929 m 771 699 l 1065 207 l 477 207 l 771 699 z "},"Θ":{"ha":1446,"x_min":61,"x_max":1385,"o":"m 359 929 q 148 850 235 929 q 61 658 61 770 l 61 271 q 148 79 61 159 q 359 0 235 0 l 1086 0 q 1297 79 1211 0 q 1384 271 1385 159 l 1384 658 q 1297 850 1385 770 q 1086 929 1211 929 l 359 929 m 434 722 l 1011 722 q 1096 691 1062 724 q 1131 614 1131 661 l 1131 315 q 1096 239 1131 271 q 1011 207 1062 209 l 434 207 q 349 238 384 208 q 315 315 315 271 l 315 614 q 349 690 315 661 q 434 722 384 723 m 441 566 l 441 363 l 1004 363 l 1004 566 l 441 566 z "},"Ξ":{"ha":1329,"x_min":61,"x_max":1268,"o":"m 61 929 l 61 722 l 1268 722 l 1268 929 l 61 929 m 353 568 l 353 361 l 975 361 l 975 568 l 353 568 m 61 207 l 61 0 l 1268 0 l 1268 207 l 61 207 z "},"Π":{"ha":1383,"x_min":61,"x_max":1322,"o":"m 61 929 l 61 0 l 315 0 l 315 722 l 1068 722 l 1068 0 l 1322 0 l 1322 929 l 61 929 z "},"Σ":{"ha":1326,"x_min":61,"x_max":1265,"o":"m 71 929 l 71 760 l 502 473 l 61 168 l 61 0 l 1265 0 l 1265 207 l 474 207 l 861 473 l 485 722 l 1255 722 l 1255 929 l 71 929 z "},"Φ":{"ha":1447,"x_min":61,"x_max":1386,"o":"m 595 929 l 595 829 l 463 829 q 261 781 353 829 q 115 648 170 732 q 61 465 61 564 q 93 323 61 391 q 178 206 125 256 q 307 128 233 157 q 463 99 382 99 l 595 99 l 595 0 l 849 0 l 849 99 l 983 99 q 1139 127 1066 99 q 1267 205 1214 159 q 1353 322 1322 255 q 1385 465 1385 390 q 1331 648 1386 564 q 1185 781 1278 732 q 983 829 1093 829 l 849 829 l 849 929 l 595 929 m 445 624 l 463 624 l 595 624 l 595 305 l 463 305 q 338 351 389 305 q 288 465 288 397 q 332 574 289 529 q 445 624 376 618 m 849 624 l 983 624 q 1107 578 1058 624 q 1158 465 1158 534 q 1108 351 1160 397 q 983 305 1058 305 l 849 305 l 849 624 z "},"Ψ":{"ha":1386,"x_min":61,"x_max":1325,"o":"m 61 929 l 61 410 q 148 218 61 298 q 359 139 235 139 l 567 139 l 567 0 l 821 0 l 821 139 l 1026 139 q 1238 218 1151 138 q 1324 410 1325 297 l 1324 929 l 1071 929 l 1071 454 q 1036 378 1071 410 q 951 346 1002 346 l 821 346 l 821 929 l 567 929 l 567 346 l 434 346 q 349 377 384 346 q 315 454 315 410 l 315 929 l 61 929 z "},"Ω":{"ha":1594,"x_min":61,"x_max":1533,"o":"m 471 929 q 260 850 347 929 q 173 658 173 770 l 173 329 q 227 207 173 248 l 61 207 l 61 0 l 670 0 l 670 207 l 546 207 q 461 238 496 208 q 427 315 427 271 l 427 614 q 461 690 427 661 q 546 722 496 723 l 1048 722 q 1133 691 1099 724 q 1168 614 1168 661 l 1168 315 q 1133 239 1168 271 q 1048 207 1099 209 l 924 207 l 924 0 l 1533 0 l 1533 207 l 1369 207 q 1421 329 1421 250 l 1421 658 q 1335 850 1421 770 q 1123 929 1248 929 l 798 929 l 471 929 z "},"К":{"ha":1463,"x_min":61,"x_max":1402,"o":"m 61 929 l 61 0 l 315 0 l 315 454 l 985 0 l 1402 0 l 641 493 l 1351 929 l 934 929 l 315 530 l 315 929 l 61 929 z "},"О":{"ha":1446,"x_min":61,"x_max":1385,"o":"m 359 929 q 149 850 236 929 q 61 658 61 770 l 61 271 q 148 79 61 159 q 359 0 235 0 l 1086 0 q 1297 79 1210 0 q 1385 271 1385 159 l 1385 658 q 1298 850 1385 770 q 1086 929 1211 929 l 359 929 m 434 722 l 1012 722 q 1096 691 1062 724 q 1131 614 1131 661 l 1131 315 q 1097 239 1131 271 q 1012 207 1062 209 l 434 207 q 350 238 385 208 q 315 315 315 271 l 315 614 q 349 690 315 661 q 434 722 385 723 z "},"С":{"ha":1426,"x_min":61,"x_max":1364,"o":"m 359 929 q 149 850 236 929 q 61 658 61 770 l 61 271 q 148 79 61 159 q 359 0 235 0 l 1065 0 q 1277 79 1190 0 q 1364 271 1364 159 l 1364 330 l 1110 330 l 1110 315 q 1076 239 1110 271 q 991 207 1042 209 l 434 207 q 350 238 385 208 q 315 315 315 271 l 315 614 q 349 690 315 661 q 434 722 385 723 l 991 722 q 1076 691 1042 724 q 1110 614 1110 661 l 1110 598 l 1364 598 l 1364 658 q 1277 850 1364 770 q 1065 929 1190 929 l 359 929 z "},"Ф":{"ha":1447,"x_min":61,"x_max":1386,"o":"m 595 929 l 595 829 l 463 829 q 261 781 353 829 q 115 648 170 732 q 61 465 61 564 q 93 323 61 391 q 178 206 125 256 q 307 128 233 157 q 463 99 382 99 l 595 99 l 595 0 l 849 0 l 849 99 l 983 99 q 1139 127 1066 99 q 1267 205 1214 159 q 1353 322 1322 255 q 1385 465 1385 390 q 1331 648 1386 564 q 1185 781 1278 732 q 983 829 1093 829 l 849 829 l 849 929 l 595 929 m 445 624 l 463 624 l 595 624 l 595 305 l 463 305 q 338 351 389 305 q 288 465 288 397 q 332 574 289 529 q 445 624 376 618 m 849 624 l 983 624 q 1107 578 1058 624 q 1158 465 1158 534 q 1108 351 1160 397 q 983 305 1058 305 l 849 305 l 849 624 z "},"Я":{"ha":1374,"x_min":61,"x_max":1313,"o":"m 1313 929 l 1313 0 l 1059 0 l 1059 337 l 635 337 l 356 0 l 61 0 l 363 340 q 157 436 240 355 q 75 633 75 519 q 170 842 75 755 q 401 929 266 929 l 1313 929 m 1059 722 l 425 722 q 354 697 382 724 q 326 632 328 673 q 354 567 328 593 q 425 541 382 541 l 1059 542 l 1059 722 z "},"П":{"ha":1383,"x_min":61,"x_max":1322,"o":"m 61 929 l 61 0 l 315 0 l 315 722 l 1068 722 l 1068 0 l 1322 0 l 1322 929 l 61 929 z "},"Б":{"ha":1390,"x_min":61,"x_max":1329,"o":"m 61 929 l 61 0 l 989 0 q 1160 41 1082 0 q 1284 154 1239 83 q 1329 309 1329 225 q 1284 465 1329 393 q 1160 577 1240 536 q 989 618 1082 618 l 315 618 l 315 722 l 1210 722 l 1210 929 l 61 929 m 315 414 l 964 414 q 1046 385 1016 414 q 1079 309 1079 356 q 1047 234 1080 263 q 964 205 1015 205 l 315 205 l 315 206 l 315 414 z "},"Д":{"ha":1503,"x_min":61,"x_max":1442,"o":"m 349 929 l 188 207 l 61 207 l 61 -207 l 315 -207 l 315 0 l 1188 0 l 1188 -207 l 1442 -207 l 1442 207 l 1315 207 l 1315 929 l 349 929 m 562 722 l 1061 722 l 1061 207 l 447 207 l 562 722 z "},"Ж":{"ha":2431,"x_min":61,"x_max":2370,"o":"m 112 929 l 763 493 l 61 0 l 477 0 l 1088 454 l 1088 0 l 1342 0 l 1342 454 l 1953 0 l 2370 0 l 1668 493 l 2319 929 l 1902 929 l 1342 530 l 1342 929 l 1088 929 l 1088 530 l 529 929 l 112 929 z "},"З":{"ha":1223,"x_min":61,"x_max":1162,"o":"m 385 929 q 183 853 267 930 q 99 669 99 777 l 353 669 q 385 706 363 692 q 435 720 408 720 l 782 720 q 845 696 819 720 q 871 638 871 673 q 846 581 872 605 q 782 557 819 559 l 492 557 l 492 381 l 815 381 q 883 356 856 381 q 911 295 911 332 q 883 234 911 260 q 815 208 856 208 l 397 208 q 315 253 342 208 l 61 253 q 140 74 61 149 q 330 0 218 0 l 894 0 q 1084 74 1005 0 q 1162 253 1162 149 q 1126 381 1162 323 q 1027 473 1089 439 q 1099 561 1073 510 q 1124 669 1124 612 q 1041 852 1124 777 q 838 929 958 929 l 385 929 z "},"Й":{"ha":1434,"x_min":61,"x_max":1373,"o":"m 319 1339 q 372 1188 319 1260 q 517 1078 426 1119 q 717 1038 609 1038 q 916 1078 825 1038 q 1060 1187 1007 1118 q 1113 1339 1113 1259 l 885 1339 q 836 1249 887 1289 q 717 1211 788 1211 q 597 1249 648 1211 q 548 1339 548 1287 l 319 1339 m 61 929 l 61 0 l 315 0 l 1119 652 l 1119 0 l 1373 0 l 1373 929 l 1119 929 l 315 277 l 315 929 l 61 929 z "},"Л":{"ha":1383,"x_min":61,"x_max":1322,"o":"m 217 929 l 217 315 q 182 239 217 271 q 98 207 148 209 l 61 207 l 61 0 l 172 0 q 383 79 296 0 q 471 271 471 159 l 471 722 l 1069 722 l 1069 0 l 1322 0 l 1322 929 l 217 929 z "},"У":{"ha":1573,"x_min":61,"x_max":1512,"o":"m 61 929 l 621 322 l 323 0 l 654 0 l 1512 929 l 1181 929 l 786 502 l 393 929 l 61 929 z "},"Ц":{"ha":1510,"x_min":61,"x_max":1449,"o":"m 61 929 l 61 0 l 1195 0 l 1195 -207 l 1449 -207 l 1449 207 l 1322 207 l 1322 929 l 1068 929 l 1068 207 l 315 207 l 315 929 l 61 929 z "},"Ч":{"ha":1386,"x_min":61,"x_max":1325,"o":"m 61 929 l 61 597 q 148 405 61 484 q 359 326 235 326 l 907 326 q 1000 339 956 326 q 1072 379 1046 353 l 1072 0 l 1325 0 l 1325 929 l 1072 929 l 1072 641 q 1037 564 1072 597 q 952 532 1002 534 l 434 532 q 350 564 385 533 q 315 641 315 596 l 315 929 l 61 929 z "},"Ш":{"ha":1914,"x_min":61,"x_max":1853,"o":"m 61 929 l 61 0 l 1853 0 l 1853 929 l 1599 929 l 1599 207 l 1083 207 l 1083 929 l 829 929 l 829 207 l 315 207 l 315 929 l 61 929 z "},"Щ":{"ha":2040,"x_min":61,"x_max":1979,"o":"m 61 929 l 61 0 l 1725 0 l 1725 -206 l 1979 -206 l 1979 208 l 1852 208 l 1852 929 l 1598 929 l 1598 207 l 1083 207 l 1083 929 l 829 929 l 829 207 l 315 207 l 315 929 l 61 929 z "},"Ъ":{"ha":1617,"x_min":61,"x_max":1556,"o":"m 61 929 l 61 722 l 288 722 l 288 0 l 1215 0 q 1386 41 1309 0 q 1510 154 1466 83 q 1556 309 1556 225 q 1510 465 1556 393 q 1387 577 1466 536 q 1215 618 1309 618 l 541 618 l 541 929 l 61 929 m 541 414 l 1191 414 q 1274 385 1241 415 q 1306 309 1306 356 q 1274 235 1306 264 q 1191 205 1241 205 l 541 205 l 541 206 l 541 414 z "},"Ы":{"ha":1869,"x_min":61,"x_max":1808,"o":"m 61 929 l 61 0 l 989 0 q 1160 41 1082 0 q 1284 154 1239 83 q 1329 309 1329 225 q 1284 465 1329 393 q 1160 577 1240 536 q 989 618 1082 618 l 315 618 l 315 929 l 61 929 m 1554 929 l 1554 0 l 1808 0 l 1808 929 l 1554 929 m 315 414 l 964 414 q 1046 385 1016 414 q 1079 309 1079 356 q 1047 234 1080 263 q 964 205 1015 205 l 315 205 l 315 206 l 315 414 z "},"Ь":{"ha":1390,"x_min":61,"x_max":1329,"o":"m 61 929 l 61 0 l 989 0 q 1160 41 1082 0 q 1284 154 1239 83 q 1329 309 1329 225 q 1284 465 1329 393 q 1160 577 1240 536 q 989 618 1082 618 l 315 618 l 315 929 l 61 929 m 315 414 l 964 414 q 1046 385 1016 414 q 1079 309 1079 356 q 1047 234 1080 263 q 964 205 1015 205 l 315 205 l 315 206 l 315 414 z "},"Э":{"ha":1424,"x_min":61,"x_max":1363,"o":"m 359 929 q 149 850 236 929 q 61 658 61 770 l 61 598 l 315 598 l 315 614 q 349 690 315 661 q 434 722 385 723 l 990 722 q 1074 691 1040 724 q 1109 614 1109 661 l 1109 566 l 494 566 l 494 363 l 1109 363 l 1109 315 q 1075 239 1109 271 q 990 207 1040 209 l 434 207 q 350 238 385 208 q 315 315 315 271 l 315 330 l 61 330 l 61 271 q 148 79 61 159 q 359 0 235 0 l 1065 0 q 1276 79 1188 0 q 1363 271 1363 159 l 1363 658 q 1276 850 1363 770 q 1065 929 1189 929 l 359 929 z "},"Ю":{"ha":1926,"x_min":61,"x_max":1865,"o":"m 61 929 l 61 0 l 315 0 l 315 361 l 542 361 l 542 271 q 629 79 541 159 q 840 0 716 0 l 1567 0 q 1777 79 1690 0 q 1865 271 1865 159 l 1865 658 q 1778 850 1865 770 q 1567 929 1691 929 l 840 929 q 629 850 716 929 q 542 658 542 770 l 542 568 l 315 568 l 315 929 l 61 929 m 915 722 l 1492 722 q 1576 691 1542 724 q 1611 614 1611 661 l 1611 315 q 1577 239 1611 271 q 1492 207 1542 209 l 915 207 q 831 238 866 208 q 795 315 796 271 l 795 614 q 830 690 795 661 q 915 722 865 723 z "},"Ђ":{"ha":1872,"x_min":61,"x_max":1811,"o":"m 61 929 l 61 722 l 543 722 l 543 0 l 796 0 l 796 414 l 1446 414 q 1528 385 1497 414 q 1560 309 1560 356 q 1529 234 1561 263 q 1446 205 1496 205 l 1050 205 l 1050 0 l 1470 0 q 1641 41 1564 0 q 1765 154 1721 83 q 1811 309 1811 225 q 1765 465 1811 393 q 1642 577 1721 536 q 1470 618 1564 618 l 796 618 l 796 722 l 1277 722 l 1277 929 l 61 929 z "},"Љ":{"ha":2398,"x_min":61,"x_max":2337,"o":"m 216 929 l 216 315 q 182 239 217 271 q 97 207 148 209 l 61 207 l 61 0 l 172 0 q 382 79 296 0 q 470 271 470 159 l 470 722 l 1069 722 l 1069 0 l 1997 0 q 2167 41 2090 0 q 2292 154 2247 83 q 2337 309 2337 225 q 2292 465 2337 393 q 2168 577 2247 536 q 1997 618 2090 618 l 1322 618 l 1322 929 l 216 929 m 1322 414 l 1973 414 q 2055 385 2024 414 q 2087 309 2087 356 q 2056 234 2087 263 q 1973 205 2024 205 l 1322 205 l 1322 206 l 1322 414 z "},"Ћ":{"ha":1866,"x_min":61,"x_max":1805,"o":"m 61 929 l 61 722 l 542 722 l 542 0 l 795 0 l 795 288 q 830 365 795 335 q 915 397 865 397 l 1432 397 q 1516 366 1482 399 q 1552 288 1552 335 l 1552 0 l 1805 0 l 1805 332 q 1718 524 1805 445 q 1507 604 1631 604 l 960 604 q 867 589 913 604 q 795 549 822 575 l 795 722 l 1277 722 l 1277 929 l 61 929 z "},"І":{"ha":376,"x_min":61,"x_max":315,"o":"m 61 929 l 61 0 l 315 0 l 315 929 l 61 929 z "},"Ў":{"ha":1573,"x_min":61,"x_max":1512,"o":"m 356 1373 q 414 1205 355 1282 q 571 1083 472 1130 q 787 1038 671 1038 q 1003 1082 904 1038 q 1160 1205 1103 1130 q 1217 1373 1219 1282 l 970 1373 q 917 1273 972 1316 q 787 1231 864 1231 q 658 1272 712 1230 q 604 1373 605 1314 l 356 1373 m 61 929 l 621 322 l 323 0 l 654 0 l 1512 929 l 1181 929 l 786 502 l 393 929 l 61 929 z "},"Ѓ":{"ha":1222,"x_min":61,"x_max":1161,"o":"m 61 929 l 61 0 l 315 0 l 315 722 l 1161 722 l 1161 929 l 61 929 m 696 1603 l 336 1155 l 498 1038 l 900 1457 l 696 1603 z "},"Ќ":{"ha":1463,"x_min":61,"x_max":1402,"o":"m 61 929 l 61 0 l 315 0 l 315 454 l 985 0 l 1402 0 l 640 493 l 1351 929 l 934 929 l 315 530 l 315 929 l 61 929 m 751 1603 l 390 1155 l 553 1038 l 954 1457 l 751 1603 z "},"Ґ":{"ha":1222,"x_min":61,"x_max":1161,"o":"m 907 1136 l 907 929 l 61 929 l 61 0 l 315 0 l 315 722 l 907 722 l 1161 722 l 1161 929 l 1161 1136 l 907 1136 z "},"Ё":{"ha":1270,"x_min":61,"x_max":1208,"o":"m 215 1297 l 215 1092 l 469 1092 l 469 1297 l 215 1297 m 801 1297 l 801 1092 l 1055 1092 l 1055 1297 l 801 1297 m 61 929 l 61 0 l 1208 0 l 1208 207 l 315 207 l 315 368 l 1089 368 l 1089 570 l 315 570 l 315 722 l 1208 722 l 1208 929 l 61 929 z "},"Џ":{"ha":1383,"x_min":61,"x_max":1322,"o":"m 61 929 l 61 0 l 565 0 l 565 -207 l 819 -207 l 819 0 l 1322 0 l 1322 929 l 1069 929 l 1069 207 l 315 207 l 315 929 l 61 929 z "},"Ј":{"ha":834,"x_min":61,"x_max":773,"o":"m 773 929 l 773 271 q 686 79 773 159 q 475 0 599 0 l 61 0 l 61 207 l 400 207 q 484 238 450 208 q 519 315 519 271 l 519 929 l 773 929 z "},"Њ":{"ha":2051,"x_min":61,"x_max":1990,"o":"m 61 929 l 61 0 l 315 0 l 315 412 l 722 412 l 722 0 l 1649 0 q 1820 41 1743 0 q 1944 154 1900 83 q 1990 309 1990 225 q 1944 465 1990 393 q 1821 577 1900 536 q 1649 618 1743 618 l 975 618 l 975 929 l 722 929 l 722 618 l 315 618 l 315 929 l 61 929 m 975 414 l 1625 414 q 1707 385 1676 414 q 1740 309 1740 356 q 1708 234 1740 263 q 1625 205 1675 205 l 975 205 l 975 206 l 975 414 z "},"̈":{"ha":962,"x_min":61,"x_max":901,"o":"m 61 1297 l 61 1092 l 315 1092 l 315 1297 l 61 1297 m 647 1297 l 647 1092 l 901 1092 l 901 1297 l 647 1297 z "},"́":{"ha":686,"x_min":61,"x_max":625,"o":"m 422 1524 l 61 1076 l 224 960 l 625 1379 l 422 1524 z "},"̀":{"ha":686,"x_min":61,"x_max":625,"o":"m 264 1524 l 625 1076 l 463 960 l 61 1379 l 264 1524 z "},"˘":{"ha":983,"x_min":61,"x_max":922,"o":"m 61 1373 q 119 1205 61 1282 q 276 1083 178 1130 q 492 1038 376 1038 q 708 1082 609 1038 q 865 1205 808 1130 q 922 1373 922 1282 l 675 1373 q 622 1273 677 1316 q 492 1231 568 1231 q 363 1272 418 1230 q 309 1373 309 1314 l 61 1373 z "},"̑":{"ha":983,"x_min":61,"x_max":922,"o":"m 61 1037 q 119 1205 61 1128 q 276 1327 178 1282 q 492 1373 376 1373 q 708 1328 609 1375 q 865 1205 808 1283 q 922 1037 922 1128 l 675 1037 q 622 1137 677 1096 q 492 1179 568 1180 q 363 1138 418 1181 q 309 1037 309 1096 l 61 1037 z "},"!":{"ha":376,"x_min":61,"x_max":315,"o":"m 61 929 l 61 590 l 104 261 l 273 261 l 315 590 l 315 929 l 61 929 m 61 205 l 61 0 l 315 0 l 315 205 l 61 205 z "},"\"":{"ha":713,"x_min":61,"x_max":652,"o":"m 61 929 l 61 828 l 104 519 l 273 519 l 315 828 l 315 929 l 61 929 m 398 929 l 398 828 l 441 519 l 609 519 l 652 828 l 652 929 l 398 929 z "},"£":{"ha":1432,"x_min":61,"x_max":1371,"o":"m 545 929 q 334 850 422 929 q 247 658 247 770 l 247 568 l 61 568 l 61 361 l 247 361 l 247 207 l 61 207 l 61 0 l 485 0 l 1073 0 q 1284 79 1196 0 q 1371 271 1371 159 l 1371 315 l 1118 315 q 1083 239 1118 271 q 998 207 1048 209 l 500 207 l 500 361 l 903 361 l 903 568 l 500 568 l 500 614 q 535 690 500 661 q 620 722 571 723 l 1082 722 l 1082 929 l 545 929 z "},"$":{"ha":1371,"x_min":61,"x_max":1310,"o":"m 558 1159 l 558 928 l 380 928 q 163 844 252 925 q 74 648 74 764 q 163 450 74 532 q 380 368 253 368 l 969 368 q 1032 345 1006 369 q 1059 286 1059 320 q 1033 229 1059 252 q 969 205 1006 205 l 387 205 q 324 229 351 205 q 298 286 298 252 l 298 288 l 61 288 q 153 83 61 168 q 377 -1 245 0 l 558 -1 l 558 -231 l 812 -231 l 812 -1 l 992 -1 q 1216 83 1124 0 q 1309 288 1309 168 q 1217 492 1310 408 q 992 576 1124 576 l 416 576 q 361 597 384 576 q 338 648 338 619 q 361 699 338 678 q 416 720 385 720 l 944 720 q 1000 699 977 722 q 1023 648 1024 678 q 1023 646 1025 648 q 1023 644 1023 644 l 1269 644 l 1269 648 q 1179 846 1271 765 q 962 928 1090 930 l 812 928 l 812 1159 l 558 1159 z "},"%":{"ha":1487,"x_min":61,"x_max":1426,"o":"m 203 928 q 102 880 145 922 q 61 781 61 838 l 61 581 q 108 478 61 521 q 221 435 155 435 l 494 435 q 607 477 562 435 q 654 581 654 520 l 654 781 q 608 885 654 842 q 494 928 562 928 l 221 928 q 216 928 220 928 q 209 928 212 928 q 203 928 206 928 m 1156 928 l 135 0 l 329 0 l 1351 928 l 1156 928 m 262 804 l 452 804 q 492 788 476 804 q 509 751 509 773 l 509 612 q 492 575 509 591 q 452 559 476 562 l 262 559 q 222 574 239 560 q 206 612 206 590 l 206 751 q 222 788 206 773 q 262 804 239 804 m 992 492 q 880 450 926 492 q 833 346 833 407 l 833 146 q 879 43 833 85 q 992 0 926 0 l 1266 0 q 1379 42 1333 0 q 1425 146 1426 85 l 1425 346 q 1379 450 1426 407 q 1266 492 1333 492 l 992 492 m 1034 368 l 1223 368 q 1263 353 1248 369 q 1280 315 1280 338 l 1280 176 q 1264 139 1282 155 q 1223 123 1248 123 l 1034 123 q 994 139 1010 123 q 977 176 977 155 l 977 315 q 994 352 977 338 q 1034 368 1010 368 z "},"^":{"ha":1230,"x_min":61,"x_max":1168,"o":"m 489 929 l 61 256 l 325 256 l 616 714 l 907 256 l 1168 256 l 741 929 l 489 929 z "},"&":{"ha":1573,"x_min":61,"x_max":1512,"o":"m 399 928 q 202 854 286 930 q 120 674 121 780 q 144 572 122 620 q 210 488 168 523 q 102 393 142 454 q 61 259 61 332 q 144 75 61 151 q 347 -1 228 0 l 1259 0 l 1259 377 l 1512 377 l 1512 551 l 481 550 q 412 576 441 549 q 383 640 383 602 q 412 705 383 678 q 481 731 441 731 l 1005 731 l 1005 928 l 399 928 m 418 376 l 1005 377 l 1005 197 l 418 196 q 349 222 380 196 q 319 286 320 250 q 348 350 319 324 q 418 376 378 376 z "},"*":{"ha":944,"x_min":61,"x_max":883,"o":"m 382 928 l 382 857 l 412 638 l 219 771 l 151 806 l 61 666 l 129 630 l 353 545 l 130 458 l 62 423 l 151 281 l 220 317 l 412 450 l 383 232 l 383 160 l 562 160 l 562 232 l 532 450 l 725 317 l 793 282 l 883 423 l 815 459 l 591 545 l 815 630 l 883 666 l 793 807 l 725 772 l 532 638 l 562 857 l 562 928 l 382 928 z "},"(":{"ha":495,"x_min":61,"x_max":434,"o":"m 359 1227 q 149 1147 236 1227 q 61 956 61 1068 l 61 -28 q 148 -220 61 -140 q 359 -299 235 -299 l 434 -299 l 434 -92 q 350 -61 385 -92 q 315 16 315 -28 l 315 911 q 349 988 315 958 q 434 1020 385 1020 l 434 1227 l 359 1227 z "},".":{"ha":376,"x_min":61,"x_max":315,"o":"m 61 205 l 61 0 l 315 0 l 315 205 l 61 205 z "},",":{"ha":491,"x_min":61,"x_max":430,"o":"m 176 205 l 61 -199 l 262 -199 l 430 205 l 176 205 z "},":":{"ha":376,"x_min":61,"x_max":315,"o":"m 61 766 l 61 561 l 315 561 l 315 766 l 61 766 m 61 205 l 61 0 l 315 0 l 315 205 l 61 205 z "},";":{"ha":491,"x_min":61,"x_max":430,"o":"m 176 766 l 176 561 l 430 561 l 430 766 l 176 766 m 176 205 l 61 -199 l 262 -199 l 430 205 l 176 205 z "},")":{"ha":495,"x_min":61,"x_max":434,"o":"m 136 1227 q 347 1147 259 1227 q 434 956 434 1068 l 434 -28 q 347 -220 434 -140 q 136 -299 260 -299 l 61 -299 l 61 -92 q 145 -61 111 -92 q 180 16 180 -28 l 180 911 q 146 988 180 958 q 61 1020 111 1020 l 61 1227 l 136 1227 z "},"'":{"ha":376,"x_min":61,"x_max":315,"o":"m 61 929 l 61 828 l 104 519 l 273 519 l 315 828 l 315 929 l 61 929 z "}," ":{"ha":678,"x_min":0,"x_max":0,"o":""},"_":{"ha":1549,"x_min":61,"x_max":1488,"o":"m 61 0 l 1488 0 l 1488 -207 l 61 -207 l 61 0 z "},"-":{"ha":1074,"x_min":61,"x_max":1013,"o":"m 61 568 l 1013 568 l 1013 361 l 61 361 l 61 568 z "},"+":{"ha":1074,"x_min":61,"x_max":1013,"o":"m 410 848 l 410 568 l 61 568 l 61 361 l 410 361 l 410 80 l 663 80 l 663 361 l 1013 361 l 1013 568 l 663 568 l 663 848 l 410 848 z "},"=":{"ha":1073,"x_min":61,"x_max":1012,"o":"m 61 774 l 61 568 l 1012 568 l 1012 774 l 61 774 m 61 361 l 61 154 l 1012 154 l 1012 361 l 61 361 z "},"[":{"ha":629,"x_min":61,"x_max":568,"o":"m 61 1227 l 61 -298 l 568 -298 l 568 -125 l 315 -125 l 315 1053 l 568 1053 l 568 1227 l 61 1227 z "},"{":{"ha":614,"x_min":61,"x_max":553,"o":"m 479 1227 q 268 1148 355 1227 q 180 956 180 1069 l 180 667 q 146 590 180 623 q 61 558 111 560 l 61 370 q 145 339 111 372 q 180 262 180 309 l 180 -27 q 267 -219 180 -140 q 479 -298 355 -298 l 553 -298 l 553 -92 q 469 -60 505 -91 q 434 17 434 -28 l 434 296 q 339 465 434 408 q 434 632 434 521 l 434 912 q 469 989 434 959 q 553 1021 505 1021 l 553 1227 l 479 1227 z "},"@":{"ha":1317,"x_min":61,"x_max":1256,"o":"m 360 928 q 149 842 236 929 q 61 630 61 754 l 61 299 q 149 87 61 175 q 360 0 236 0 l 1256 0 l 1256 125 l 397 125 q 257 183 316 125 q 199 324 199 241 l 199 605 q 256 745 198 688 q 397 804 315 804 l 920 804 q 1061 746 1004 806 q 1119 605 1119 688 l 1119 324 q 1118 308 1119 319 l 990 308 l 990 747 l 456 747 q 321 699 380 747 q 262 582 262 650 l 262 347 q 320 231 262 279 q 456 182 380 182 l 1256 182 l 1256 630 q 1169 841 1256 754 q 958 928 1082 928 l 360 928 m 488 621 l 836 621 l 836 308 l 488 308 q 437 327 460 308 q 416 374 416 347 l 416 555 q 437 602 415 583 q 488 621 458 621 z "},">":{"ha":981,"x_min":61,"x_max":920,"o":"m 920 579 l 61 929 l 61 690 l 684 464 l 61 238 l 61 0 l 920 349 l 920 579 z "},"~":{"ha":1177,"x_min":61,"x_max":1116,"o":"m 61 355 l 79 421 q 216 587 110 530 q 441 617 321 646 l 751 546 q 841 557 799 536 q 896 624 884 581 l 1116 573 l 1098 507 q 962 341 1067 400 q 736 311 856 285 l 427 382 q 336 371 380 395 q 281 304 294 349 l 61 355 z "},"/":{"ha":949,"x_min":61,"x_max":888,"o":"m 618 1160 l 61 -231 l 332 -231 l 888 1160 l 618 1160 z "},"#":{"ha":1169,"x_min":61,"x_max":1108,"o":"m 405 929 l 345 723 l 214 723 l 153 516 l 283 516 l 253 412 l 121 412 l 61 205 l 191 205 l 131 0 l 385 0 l 445 205 l 572 205 l 511 0 l 765 0 l 825 205 l 956 205 l 1017 412 l 887 412 l 917 516 l 1048 516 l 1108 723 l 979 723 l 1039 929 l 785 929 l 725 723 l 598 723 l 659 929 l 405 929 m 536 516 l 663 516 l 633 412 l 507 412 l 536 516 z "},"?":{"ha":1169,"x_min":61,"x_max":1108,"o":"m 368 929 q 151 848 240 931 q 61 649 61 766 l 61 645 l 315 645 q 315 647 317 646 q 314 649 315 649 q 334 700 314 680 q 387 720 357 720 l 765 720 q 828 696 804 720 q 854 639 854 674 q 829 581 854 605 q 765 557 803 557 l 498 557 q 345 435 345 566 l 345 261 l 594 261 l 594 304 q 609 347 595 335 q 663 358 624 358 l 789 358 q 949 394 876 358 q 1065 495 1023 430 q 1108 639 1108 560 q 1066 785 1108 718 q 950 890 1024 852 q 789 929 877 929 l 368 929 m 345 205 l 345 0 l 598 0 l 598 205 l 345 205 z "},"|":{"ha":376,"x_min":61,"x_max":315,"o":"m 61 1160 l 61 -231 l 315 -231 l 315 1160 l 61 1160 z "},"¬":{"ha":1074,"x_min":61,"x_max":1013,"o":"m 61 665 l 61 458 l 844 458 l 844 264 l 1013 264 l 1013 665 l 61 665 z "},"¢":{"ha":1165,"x_min":61,"x_max":1104,"o":"m 454 1066 l 454 836 l 300 836 q 131 772 201 836 q 61 618 61 709 l 61 310 q 131 157 61 220 q 300 93 201 94 l 454 93 l 454 -138 l 708 -138 l 708 93 l 864 93 q 983 132 928 94 q 1071 231 1040 172 q 1103 351 1103 290 l 1103 398 l 849 398 l 849 387 q 821 326 849 352 q 753 300 793 300 l 410 300 q 342 325 371 300 q 315 387 315 351 l 315 543 q 342 604 315 579 q 410 629 370 631 l 753 629 q 821 604 793 631 q 849 543 849 579 l 849 530 l 1103 530 l 1103 578 q 1072 697 1104 639 q 984 796 1041 757 q 864 836 928 836 l 708 836 l 708 1066 l 454 1066 z "},"¥":{"ha":1657,"x_min":61,"x_max":1596,"o":"m 61 929 l 576 452 l 253 452 l 253 327 l 701 327 l 701 242 l 253 242 l 253 117 l 701 117 l 701 0 l 955 0 l 955 117 l 1404 117 l 1404 242 l 955 242 l 955 327 l 1404 327 l 1404 452 l 1080 452 l 1596 929 l 1223 929 l 828 538 l 435 929 l 61 929 z "},"§":{"ha":1367,"x_min":61,"x_max":1305,"o":"m 930 -184 q 1089 -146 1018 -184 q 1204 -41 1162 -108 q 1246 104 1246 26 q 1199 256 1246 187 q 1276 349 1248 296 q 1303 464 1303 403 q 1214 663 1305 581 q 996 745 1124 745 l 458 745 q 395 769 422 745 q 369 827 369 793 q 395 885 369 863 q 458 909 422 909 l 920 909 q 983 884 958 909 q 1010 826 1010 860 l 1010 825 l 1246 825 q 1204 970 1246 903 q 1090 1074 1162 1036 q 930 1113 1019 1113 l 434 1113 q 275 1075 349 1114 q 160 970 202 1036 q 118 825 118 903 q 165 673 118 742 q 89 580 118 635 q 61 465 61 528 q 151 266 61 349 q 368 184 242 184 l 906 184 q 969 160 945 184 q 996 102 996 136 q 970 44 996 68 q 906 20 944 20 l 444 20 q 381 44 408 20 q 355 102 355 68 l 355 104 l 118 104 q 160 -41 118 26 q 275 -146 203 -107 q 434 -184 349 -184 l 930 -184 m 413 392 q 357 412 380 392 q 334 463 335 435 q 357 514 335 494 q 413 536 380 536 q 709 536 519 536 q 951 536 901 538 q 1007 516 985 538 q 1030 465 1030 496 q 1007 414 1030 437 q 951 393 985 393 q 654 393 848 395 q 413 392 464 392 z "},"»":{"ha":1381,"x_min":61,"x_max":1320,"o":"m 61 929 l 61 690 l 487 463 l 61 238 l 61 0 l 723 349 l 723 578 l 61 929 m 658 929 l 658 690 l 1084 463 l 658 238 l 658 0 l 1320 349 l 1320 578 l 658 929 z "},"Ð":{"ha":1684,"x_min":61,"x_max":1623,"o":"m 315 929 l 315 568 l 61 568 l 61 361 l 315 361 l 315 0 l 1301 0 q 1457 36 1383 0 q 1575 135 1533 72 q 1621 271 1621 198 l 1621 658 q 1576 794 1623 731 q 1457 893 1531 857 q 1301 929 1385 929 l 315 929 m 568 722 l 1248 722 q 1332 691 1298 724 q 1367 614 1367 661 l 1367 315 q 1333 239 1367 271 q 1248 207 1298 209 l 568 207 l 568 361 l 918 361 l 918 568 l 568 568 l 568 722 z "},"Þ":{"ha":1390,"x_min":61,"x_max":1329,"o":"m 61 929 l 61 783 l 61 144 l 61 0 l 315 0 l 315 144 l 978 144 q 1154 186 1073 144 q 1282 302 1236 229 q 1329 463 1329 378 q 1282 624 1329 551 q 1155 741 1236 699 q 978 783 1074 783 l 315 783 l 315 929 l 61 929 m 315 576 l 954 576 q 1044 545 1009 576 q 1079 463 1079 514 q 1044 382 1079 414 q 954 350 1009 350 l 315 350 l 315 576 z "},"ß":{"ha":1697,"x_min":61,"x_max":1636,"o":"m 359 929 q 149 850 236 929 q 61 658 61 770 l 61 0 l 315 0 q 317 614 317 410 q 352 690 317 659 q 437 722 388 722 q 688 724 555 724 q 975 723 823 726 q 1201 722 1128 723 l 429 168 l 429 0 l 1636 0 l 1636 207 l 834 207 l 1604 760 l 1604 929 l 359 929 z "},"ẞ":{"ha":1697,"x_min":61,"x_max":1636,"o":"m 359 929 q 149 850 236 929 q 61 658 61 770 l 61 0 l 315 0 q 317 614 317 410 q 352 690 317 659 q 437 722 388 722 q 688 724 555 724 q 975 723 823 726 q 1201 722 1128 723 l 429 168 l 429 0 l 1636 0 l 1636 207 l 834 207 l 1604 760 l 1604 929 l 359 929 z "},"Œ":{"ha":2342,"x_min":61,"x_max":2281,"o":"m 359 929 q 149 850 236 929 q 61 658 61 770 l 61 271 q 148 79 61 159 q 359 0 235 0 l 968 0 q 1133 39 1078 0 l 1133 0 l 2281 0 l 2281 207 l 1387 207 l 1387 367 l 2162 367 l 2162 570 l 1387 570 l 1387 722 l 2281 722 l 2281 929 l 1133 929 l 1133 889 q 968 929 1076 929 l 359 929 m 434 722 l 1013 722 q 1097 691 1063 724 q 1133 614 1133 661 l 1133 315 q 1098 239 1133 271 q 1013 207 1063 209 l 434 207 q 350 238 385 208 q 315 315 315 271 l 315 614 q 349 690 315 661 q 434 722 385 723 z "},"Æ":{"ha":2281,"x_min":61,"x_max":2220,"o":"m 1005 929 l 61 0 l 378 0 l 585 203 l 1088 203 l 1087 0 l 2220 0 l 2220 207 l 1358 207 l 1358 367 l 2101 367 l 2101 570 l 1358 570 l 1358 722 l 2220 722 l 2220 929 l 1005 929 m 1088 699 l 1088 400 l 785 400 l 1088 699 z "},"¶":{"ha":1644,"x_min":61,"x_max":1583,"o":"m 412 929 q 236 886 317 929 q 108 770 155 844 q 61 609 61 696 q 108 449 61 524 q 235 333 155 376 q 412 290 317 290 l 949 290 l 949 0 l 1202 0 l 1202 722 l 1329 722 l 1329 0 l 1583 0 l 1583 929 l 412 929 z "},"”":{"ha":827,"x_min":61,"x_max":766,"o":"m 176 929 l 61 524 l 262 524 l 429 929 l 176 929 m 513 929 l 398 524 l 600 524 l 766 929 l 513 929 z "},"¸":{"ha":653,"x_min":61,"x_max":592,"o":"m 250 -412 q 117 -362 172 -412 q 61 -239 61 -311 l 61 -237 l 218 -237 l 217 -239 l 217 -239 q 232 -271 217 -258 q 267 -283 247 -283 l 378 -283 q 417 -269 401 -283 q 433 -233 433 -254 q 418 -198 434 -212 q 378 -183 401 -183 l 250 -183 q 164 -111 164 -183 l 164 0 l 319 0 l 319 -37 q 356 -60 319 -62 l 393 -60 q 533 -110 476 -58 q 590 -233 590 -159 q 533 -360 592 -308 q 393 -412 476 -412 l 250 -412 z "},"˚":{"ha":715,"x_min":61,"x_max":654,"o":"m 221 1430 q 108 1387 155 1430 q 61 1283 61 1344 l 61 1083 q 108 980 61 1023 q 221 937 155 937 l 495 937 q 608 979 562 937 q 654 1083 654 1022 l 654 1283 q 608 1387 654 1344 q 495 1430 562 1430 l 221 1430 m 262 1305 l 452 1305 q 492 1290 476 1306 q 509 1253 509 1275 l 509 1114 q 492 1076 509 1092 q 452 1061 476 1061 l 262 1061 q 222 1076 239 1061 q 206 1114 206 1092 l 206 1253 q 222 1289 206 1275 q 262 1305 239 1305 z "},"µ":{"ha":1386,"x_min":61,"x_max":1325,"o":"m 61 929 l 61 -207 l 315 -207 l 315 14 q 412 0 361 0 l 1027 0 q 1238 79 1150 0 q 1325 271 1325 159 l 1325 929 l 1072 929 l 1072 315 q 1037 239 1072 271 q 952 207 1002 209 l 434 207 q 350 238 385 208 q 315 315 315 271 l 315 929 l 113 929 l 61 929 z "},"}":{"ha":614,"x_min":61,"x_max":553,"o":"m 136 1227 q 347 1148 259 1227 q 434 956 434 1069 l 434 667 q 469 590 434 623 q 553 558 505 560 l 553 370 q 469 339 505 372 q 434 262 434 309 l 434 -27 q 347 -219 434 -140 q 136 -298 260 -298 l 61 -298 l 61 -92 q 145 -60 111 -91 q 180 17 180 -28 l 180 296 q 275 465 180 408 q 180 632 180 521 l 180 912 q 146 989 180 959 q 61 1021 111 1021 l 61 1227 l 136 1227 z "},"˜":{"ha":854,"x_min":61,"x_max":793,"o":"m 61 1123 l 74 1181 q 168 1330 95 1279 q 326 1356 243 1381 l 540 1293 q 603 1303 574 1283 q 641 1362 633 1324 l 793 1317 l 781 1258 q 687 1110 761 1162 q 530 1083 613 1059 l 315 1147 q 252 1137 282 1157 q 214 1078 222 1116 l 61 1123 z "},"̧":{"ha":653,"x_min":61,"x_max":592,"o":"m 250 -412 q 117 -362 172 -412 q 61 -239 61 -311 l 61 -237 l 218 -237 l 217 -239 l 217 -239 q 232 -271 217 -258 q 267 -283 247 -283 l 378 -283 q 417 -269 401 -283 q 433 -233 433 -254 q 418 -198 434 -212 q 378 -183 401 -183 l 250 -183 q 164 -111 164 -183 l 164 0 l 319 0 l 319 -37 q 356 -60 319 -62 l 393 -60 q 533 -110 476 -58 q 590 -233 590 -159 q 533 -360 592 -308 q 393 -412 476 -412 l 250 -412 z "},"̊":{"ha":715,"x_min":61,"x_max":654,"o":"m 221 1430 q 108 1387 155 1430 q 61 1283 61 1344 l 61 1083 q 108 980 61 1023 q 221 937 155 937 l 495 937 q 608 979 562 937 q 654 1083 654 1022 l 654 1283 q 608 1387 654 1344 q 495 1430 562 1430 l 221 1430 m 262 1305 l 452 1305 q 492 1290 476 1306 q 509 1253 509 1275 l 509 1114 q 492 1076 509 1092 q 452 1061 476 1061 l 262 1061 q 222 1076 239 1061 q 206 1114 206 1092 l 206 1253 q 222 1289 206 1275 q 262 1305 239 1305 z "},"ˆ":{"ha":983,"x_min":61,"x_max":922,"o":"m 331 1961 l 61 1586 l 336 1586 l 492 1771 l 648 1586 l 922 1586 l 652 1961 l 331 1961 z "},"̂":{"ha":983,"x_min":61,"x_max":922,"o":"m 331 1405 l 61 1030 l 336 1030 l 492 1215 l 648 1030 l 922 1030 l 652 1405 l 331 1405 z "},"ˇ":{"ha":983,"x_min":61,"x_max":922,"o":"m 331 1029 l 61 1404 l 336 1404 l 492 1219 l 648 1404 l 922 1404 l 652 1029 l 331 1029 z "},"̏":{"ha":1272,"x_min":61,"x_max":1211,"o":"m 850 1641 l 1211 1194 l 1048 1077 l 647 1496 l 850 1641 m 264 1641 l 625 1194 l 462 1077 l 61 1496 l 264 1641 z "},"˝":{"ha":1272,"x_min":61,"x_max":1211,"o":"m 422 929 l 61 481 l 224 365 l 625 784 l 422 929 m 1008 929 l 647 481 l 810 365 l 1211 784 l 1008 929 z "},"̋":{"ha":1272,"x_min":61,"x_max":1211,"o":"m 422 1641 l 61 1194 l 224 1077 l 625 1496 l 422 1641 m 1008 1641 l 647 1194 l 810 1077 l 1211 1496 l 1008 1641 z "},"ˉ":{"ha":983,"x_min":61,"x_max":922,"o":"m 61 1307 l 922 1307 l 922 1100 l 61 1100 l 61 1307 z "},"̅":{"ha":1549,"x_min":61,"x_max":1488,"o":"m 61 1307 l 1488 1307 l 1488 1100 l 61 1100 l 61 1307 z "},"̛":{"ha":491,"x_min":61,"x_max":430,"o":"m 176 929 l 61 525 l 262 525 l 430 929 l 176 929 z "},"<":{"ha":981,"x_min":61,"x_max":920,"o":"m 61 579 l 920 929 l 920 690 l 297 464 l 920 238 l 920 0 l 61 349 l 61 579 z "},"]":{"ha":629,"x_min":61,"x_max":568,"o":"m 568 1227 l 568 -298 l 61 -298 l 61 -125 l 315 -125 l 315 1053 l 61 1053 l 61 1227 l 568 1227 z "},"\\":{"ha":949,"x_min":61,"x_max":888,"o":"m 332 1160 l 888 -231 l 618 -231 l 61 1160 l 332 1160 z "},"`":{"ha":686,"x_min":61,"x_max":625,"o":"m 264 929 l 625 481 l 463 365 l 61 784 l 264 929 z "},"«":{"ha":1381,"x_min":61,"x_max":1320,"o":"m 1320 929 l 1320 690 l 894 463 l 1320 238 l 1320 0 l 658 349 l 658 578 l 1320 929 m 723 929 l 723 690 l 297 463 l 723 238 l 723 0 l 61 349 l 61 578 l 723 929 z "},"¨":{"ha":962,"x_min":61,"x_max":901,"o":"m 61 1297 l 61 1092 l 315 1092 l 315 1297 l 61 1297 m 647 1297 l 647 1092 l 901 1092 l 901 1297 l 647 1297 z "},"¦":{"ha":376,"x_min":61,"x_max":315,"o":"m 61 1022 l 61 588 l 315 588 l 315 1022 l 61 1022 m 61 340 l 61 -93 l 315 -93 l 315 340 l 61 340 z "},"¡":{"ha":376,"x_min":61,"x_max":315,"o":"m 61 0 l 61 339 l 104 668 l 273 668 l 315 339 l 315 0 l 61 0 m 61 724 l 61 929 l 315 929 l 315 724 l 61 724 z "},"¿":{"ha":1169,"x_min":61,"x_max":1108,"o":"m 802 0 q 1019 81 929 0 q 1108 280 1108 164 l 1108 284 l 854 282 l 854 282 q 855 280 857 281 q 835 229 855 250 q 783 209 815 209 l 404 209 q 341 233 368 209 q 315 290 315 256 q 340 348 315 326 q 404 372 368 372 l 671 372 q 825 494 825 366 l 825 668 l 575 668 l 575 625 q 560 583 574 595 q 507 571 546 571 l 380 571 q 220 535 293 571 q 104 434 146 499 q 61 290 61 369 q 103 144 61 212 q 219 39 146 77 q 380 0 293 0 l 802 0 m 825 724 l 825 929 l 571 929 l 571 724 l 825 724 z "},"´":{"ha":686,"x_min":61,"x_max":625,"o":"m 422 929 l 61 481 l 224 365 l 625 784 l 422 929 z "},"°":{"ha":715,"x_min":61,"x_max":654,"o":"m 221 1430 q 108 1387 155 1430 q 61 1283 61 1344 l 61 1083 q 108 980 61 1023 q 221 937 155 937 l 495 937 q 608 979 562 937 q 654 1083 654 1022 l 654 1283 q 608 1387 654 1344 q 495 1430 562 1430 l 221 1430 m 262 1305 l 452 1305 q 492 1290 476 1306 q 509 1253 509 1275 l 509 1114 q 492 1076 509 1092 q 452 1061 476 1061 l 262 1061 q 222 1076 239 1061 q 206 1114 206 1092 l 206 1253 q 222 1289 206 1275 q 262 1305 239 1305 z "},"¯":{"ha":983,"x_min":61,"x_max":922,"o":"m 61 1307 l 922 1307 l 922 1100 l 61 1100 l 61 1307 z "},"·":{"ha":376,"x_min":61,"x_max":315,"o":"m 61 570 l 61 366 l 315 366 l 315 570 l 61 570 z "},"¤":{"ha":1161,"x_min":61,"x_max":1100,"o":"m 61 779 l 290 600 q 285 565 285 579 l 285 365 q 290 329 285 347 l 61 150 l 296 150 l 393 227 q 444 219 420 221 l 719 219 q 769 227 745 221 l 866 150 l 1100 150 l 872 329 q 878 365 878 347 l 878 565 q 872 600 878 582 l 1100 779 l 865 779 l 769 704 q 719 711 745 712 l 444 711 q 393 703 419 713 l 296 779 l 61 779 m 486 587 l 675 587 q 715 572 700 589 q 732 534 732 557 l 732 395 q 716 358 734 374 q 675 342 700 345 l 486 342 q 446 358 463 345 q 430 395 430 374 l 430 534 q 446 571 430 557 q 486 587 463 587 z "},"±":{"ha":1074,"x_min":61,"x_max":1013,"o":"m 410 897 l 410 616 l 61 616 l 61 410 l 410 410 l 410 239 l 61 239 l 61 32 l 1013 32 l 1013 239 l 664 239 l 664 410 l 1013 410 l 1013 616 l 664 616 l 664 897 l 410 897 z "},"÷":{"ha":1074,"x_min":61,"x_max":1013,"o":"m 410 848 l 410 644 l 664 644 l 664 848 l 410 848 m 61 567 l 61 360 l 1013 360 l 1013 567 l 61 567 m 410 285 l 410 80 l 664 80 l 664 285 l 410 285 z "},"×":{"ha":1481,"x_min":61,"x_max":1420,"o":"m 62 848 l 553 465 l 61 80 l 436 80 l 741 318 l 1046 80 l 1420 80 l 928 465 l 1419 848 l 1046 848 l 741 610 l 436 848 l 62 848 z "},"©":{"ha":1317,"x_min":61,"x_max":1256,"o":"m 360 928 q 149 841 236 928 q 61 629 61 753 l 61 298 q 149 87 61 175 q 360 0 236 0 l 958 0 q 1168 87 1081 0 q 1256 298 1256 174 l 1256 629 q 1169 841 1256 753 q 958 928 1082 928 l 360 928 m 397 803 l 920 803 q 1061 745 1004 804 q 1119 605 1119 688 l 1119 323 q 1061 183 1120 242 q 920 125 1004 125 l 397 125 q 257 182 316 125 q 199 323 199 241 l 199 605 q 256 745 199 688 q 397 803 315 803 m 465 720 q 349 676 397 720 q 300 571 302 633 l 300 357 q 348 252 301 297 q 465 208 397 210 l 852 208 q 969 252 922 209 q 1017 357 1017 296 l 1017 390 l 878 390 l 878 382 q 859 340 878 358 q 812 322 840 322 l 505 322 q 458 339 477 321 q 439 382 439 357 l 439 547 q 458 589 439 572 q 505 606 477 606 l 812 606 q 859 589 840 608 q 878 547 878 573 l 878 538 l 1017 538 l 1017 571 q 969 676 1017 633 q 852 720 922 720 l 465 720 z "},"®":{"ha":1317,"x_min":61,"x_max":1256,"o":"m 360 928 q 149 842 236 929 q 61 630 61 754 l 61 299 q 149 87 61 175 q 360 0 236 0 l 957 0 q 1168 87 1081 0 q 1256 299 1256 175 l 1256 630 q 1168 841 1256 754 q 957 928 1081 928 l 360 928 m 397 804 l 920 804 q 1061 746 1004 806 q 1119 605 1119 688 l 1119 324 q 1061 184 1120 243 q 920 125 1004 125 l 397 125 q 256 183 315 125 q 198 324 198 241 l 198 605 q 256 745 198 688 q 397 804 315 804 m 319 717 l 319 212 l 456 212 l 456 395 l 687 395 l 838 212 l 998 212 l 834 397 q 946 449 901 404 q 991 556 991 495 q 940 669 993 623 q 814 717 890 717 l 319 717 m 456 604 l 801 604 q 840 591 825 605 q 854 555 854 578 q 840 520 854 534 q 801 506 825 506 l 456 506 l 456 604 z "},"˛":{"ha":509,"x_min":61,"x_max":448,"o":"m 198 0 q 155 -66 180 -27 q 120 -120 131 -104 q 98 -273 61 -210 q 249 -336 137 -336 l 448 -336 l 448 -171 l 294 -171 q 233 -146 248 -171 q 242 -84 220 -119 l 297 0 l 198 0 z "},"̨":{"ha":509,"x_min":61,"x_max":448,"o":"m 198 0 q 155 -66 180 -27 q 120 -120 131 -104 q 98 -273 61 -210 q 249 -336 137 -336 l 448 -336 l 448 -171 l 294 -171 q 233 -146 248 -171 q 242 -84 220 -119 l 297 0 l 198 0 z "},"̈́":{"ha":962,"x_min":61,"x_max":901,"o":"m 61 1297 l 61 1092 l 315 1092 l 315 1297 l 61 1297 m 647 1297 l 647 1092 l 901 1092 l 901 1297 l 647 1297 m 673 1795 l 312 1348 l 475 1231 l 876 1650 l 673 1795 z "},"͂":{"ha":854,"x_min":61,"x_max":793,"o":"m 61 1123 l 74 1181 q 168 1330 95 1279 q 326 1356 243 1381 l 540 1293 q 603 1303 574 1283 q 641 1362 633 1324 l 793 1317 l 781 1258 q 687 1110 761 1162 q 530 1083 613 1059 l 315 1147 q 252 1137 282 1157 q 214 1078 222 1116 l 61 1123 z "},"̐":{"ha":983,"x_min":61,"x_max":922,"o":"m 61 1372 q 119 1204 61 1281 q 276 1082 178 1128 q 492 1036 376 1036 q 708 1081 609 1036 q 865 1204 808 1128 q 922 1372 922 1281 l 675 1372 q 622 1272 677 1314 q 492 1230 568 1230 q 363 1271 418 1229 q 309 1372 309 1313 l 61 1372 m 365 1577 l 365 1372 l 618 1372 l 618 1577 l 365 1577 z "},"͒":{"ha":983,"x_min":61,"x_max":922,"o":"m 61 1241 q 119 1409 61 1332 q 276 1531 178 1487 q 492 1577 376 1579 q 708 1532 609 1579 q 865 1409 808 1487 q 922 1241 922 1332 l 675 1241 q 622 1341 677 1299 q 492 1383 568 1383 q 363 1342 418 1385 q 309 1241 309 1300 l 61 1241 m 365 1036 l 365 1241 l 618 1241 l 618 1036 l 365 1036 z "},"῁":{"ha":962,"x_min":61,"x_max":901,"o":"m 61 1297 l 61 1092 l 315 1092 l 315 1297 l 61 1297 m 647 1297 l 647 1092 l 901 1092 l 901 1297 l 647 1297 m 115 1392 l 127 1451 q 222 1599 151 1548 q 379 1626 296 1650 l 593 1563 q 656 1572 628 1552 q 694 1632 686 1594 l 847 1586 l 835 1527 q 741 1379 817 1431 q 583 1352 667 1328 l 368 1417 q 306 1406 336 1427 q 268 1347 276 1385 l 115 1392 z "},"΅":{"ha":962,"x_min":61,"x_max":901,"o":"m 61 1297 l 61 1092 l 315 1092 l 315 1297 l 61 1297 m 647 1297 l 647 1092 l 901 1092 l 901 1297 l 647 1297 m 673 1795 l 312 1348 l 475 1231 l 876 1650 l 673 1795 z "},"̓":{"ha":491,"x_min":61,"x_max":430,"o":"m 176 929 l 61 525 l 262 525 l 430 929 l 176 929 z "},"̔":{"ha":491,"x_min":61,"x_max":430,"o":"m 315 929 l 430 525 l 229 525 l 61 929 l 315 929 z "},"̒":{"ha":491,"x_min":61,"x_max":430,"o":"m 315 525 l 430 929 l 229 929 l 61 525 l 315 525 z "},"ͺ":{"ha":627,"x_min":61,"x_max":566,"o":"m 61 0 l 61 -193 q 148 -385 61 -305 q 359 -465 235 -465 l 566 -465 l 566 -306 l 434 -306 q 350 -275 385 -305 q 315 -197 315 -242 l 315 0 l 61 0 z "},"ͅ":{"ha":627,"x_min":61,"x_max":566,"o":"m 61 -34 l 61 -227 q 148 -419 61 -339 q 359 -498 235 -498 l 566 -498 l 566 -340 l 434 -340 q 350 -309 385 -339 q 315 -231 315 -276 l 315 -34 l 61 -34 z "},"῍":{"ha":1110,"x_min":61,"x_max":1049,"o":"m 176 1109 l 61 705 l 262 705 l 430 1109 l 176 1109 m 688 1272 l 1049 824 l 886 707 l 485 1126 l 688 1272 z "},"῝":{"ha":1004,"x_min":61,"x_max":943,"o":"m 315 1109 l 430 705 l 229 705 l 61 1109 l 315 1109 m 583 1272 l 943 824 l 781 707 l 379 1126 l 583 1272 z "},"῞":{"ha":1100,"x_min":61,"x_max":1039,"o":"m 315 1109 l 430 705 l 229 705 l 61 1109 l 315 1109 m 836 1272 l 475 824 l 637 707 l 1039 1126 l 836 1272 z "},"῏":{"ha":854,"x_min":61,"x_max":793,"o":"m 288 929 l 172 525 l 374 525 l 541 929 l 288 929 m 61 1037 l 74 1095 q 168 1244 95 1193 q 326 1270 243 1295 l 540 1207 q 603 1217 574 1196 q 641 1276 633 1238 l 793 1231 l 781 1172 q 687 1024 761 1076 q 530 997 613 972 l 315 1061 q 252 1050 282 1072 q 214 991 222 1030 l 61 1037 z "},"῟":{"ha":854,"x_min":61,"x_max":793,"o":"m 496 929 l 612 525 l 410 525 l 243 929 l 496 929 m 61 1037 l 74 1095 q 168 1244 95 1193 q 326 1270 243 1295 l 540 1207 q 603 1217 574 1196 q 641 1276 633 1238 l 793 1231 l 781 1172 q 687 1024 761 1076 q 530 997 613 972 l 315 1061 q 252 1050 282 1072 q 214 991 222 1030 l 61 1037 z "},"῎":{"ha":1022,"x_min":61,"x_max":961,"o":"m 176 1109 l 61 705 l 262 705 l 430 1109 l 176 1109 m 758 1272 l 397 824 l 559 707 l 961 1126 l 758 1272 z "},"῭":{"ha":962,"x_min":61,"x_max":901,"o":"m 61 1297 l 61 1092 l 315 1092 l 315 1297 l 61 1297 m 647 1297 l 647 1092 l 901 1092 l 901 1297 l 647 1297 m 289 1795 l 650 1348 l 487 1231 l 85 1650 l 289 1795 z "},"b":{"ha":1216,"x_min":61,"x_max":1155,"o":"m 61 811 l 61 0 l 898 0 q 1078 68 1004 0 q 1153 232 1154 136 q 1121 345 1155 293 q 1034 428 1088 397 q 1103 584 1105 495 q 1030 745 1103 678 q 853 811 957 811 l 61 811 m 300 622 l 784 622 q 835 603 814 624 q 857 555 857 585 q 836 509 858 528 q 784 490 815 490 l 300 490 l 300 622 m 300 321 l 838 321 q 889 302 869 323 q 910 255 911 282 q 889 209 911 229 q 838 189 869 191 l 300 189 l 300 321 z "},"c":{"ha":1255,"x_min":61,"x_max":1194,"o":"m 327 811 q 139 741 218 811 q 61 570 63 670 l 61 241 q 138 71 61 141 q 327 0 217 0 l 926 0 q 1114 70 1038 0 q 1192 241 1194 141 l 1192 302 l 953 302 l 953 279 q 927 221 954 245 q 863 197 902 199 l 390 197 q 327 221 353 199 q 300 279 300 245 l 300 532 q 326 590 300 567 q 390 614 353 614 l 863 614 q 926 590 901 614 q 953 532 953 567 l 953 509 l 1192 509 l 1192 570 q 1115 741 1194 670 q 926 811 1038 811 l 327 811 z "},"d":{"ha":1258,"x_min":61,"x_max":1197,"o":"m 61 811 l 61 0 l 911 0 q 1109 71 1023 0 q 1195 241 1195 142 l 1195 570 q 1109 740 1197 669 q 911 811 1024 811 l 61 811 m 301 614 l 866 614 q 929 590 903 614 q 956 532 956 567 l 956 279 q 930 221 956 245 q 866 197 903 199 l 301 197 l 301 614 z "},"u":{"ha":1222,"x_min":61,"x_max":1161,"o":"m 61 811 l 61 241 q 138 71 61 142 q 327 0 217 0 l 894 0 q 1082 71 1006 0 q 1160 241 1161 142 l 1160 811 l 920 811 l 920 279 q 894 221 921 245 q 830 197 868 199 l 390 197 q 327 221 353 199 q 300 279 300 245 l 300 811 l 61 811 z "},"v":{"ha":1289,"x_min":20,"x_max":1269,"o":"m 20 811 l 513 0 l 777 0 l 1269 811 l 992 811 l 645 229 l 297 811 l 20 811 z "},"w":{"ha":1705,"x_min":27,"x_max":1678,"o":"m 27 811 l 388 0 l 619 0 l 852 505 l 1086 0 l 1317 0 l 1678 811 l 1419 811 l 1193 301 l 968 805 l 737 805 l 512 301 l 286 811 l 27 811 z "},"x":{"ha":1512,"x_min":20,"x_max":1491,"o":"m 64 811 l 569 422 l 20 0 l 389 0 l 755 296 l 1123 0 l 1491 0 l 942 422 l 1447 811 l 1079 811 l 755 549 l 433 811 l 64 811 z "},"y":{"ha":1403,"x_min":20,"x_max":1383,"o":"m 20 811 l 582 292 l 582 0 l 821 0 l 821 292 l 1383 811 l 1031 811 l 701 484 l 372 811 l 20 811 z "},"z":{"ha":1223,"x_min":61,"x_max":1162,"o":"m 87 811 l 87 614 l 735 614 l 65 162 l 61 159 l 61 0 l 1162 0 l 1162 197 l 463 197 l 1135 652 l 1135 811 l 87 811 z "},"n":{"ha":1261,"x_min":61,"x_max":1200,"o":"m 61 811 l 61 0 l 300 0 l 300 541 l 967 0 l 1200 0 l 1200 811 l 960 811 l 960 271 l 293 811 l 61 811 z "},"o":{"ha":1273,"x_min":61,"x_max":1212,"o":"m 326 811 q 139 741 218 811 q 61 570 63 670 l 61 241 q 138 71 61 141 q 326 0 218 0 l 944 0 q 1132 70 1056 0 q 1210 241 1211 141 l 1210 570 q 1133 741 1212 670 q 944 811 1055 811 l 326 811 m 390 614 l 881 614 q 944 590 918 614 q 970 532 970 567 l 970 279 q 945 221 971 245 q 881 197 920 199 l 390 197 q 327 221 353 199 q 300 279 300 245 l 300 532 q 326 590 300 567 q 390 614 353 614 z "},"p":{"ha":1223,"x_min":61,"x_max":1162,"o":"m 61 811 l 61 0 l 300 0 l 300 247 l 852 247 q 1071 329 981 247 q 1162 528 1162 412 q 1071 728 1162 646 q 852 811 980 811 l 61 811 m 300 614 l 831 614 q 900 590 873 614 q 926 528 926 567 q 900 467 926 491 q 831 443 873 445 l 300 443 l 300 614 z "},"q":{"ha":1273,"x_min":61,"x_max":1212,"o":"m 326 811 q 138 741 218 811 q 61 570 61 670 l 61 241 q 138 71 61 141 q 326 0 218 0 l 652 0 l 749 -154 l 1008 -154 l 911 0 l 944 0 q 1132 70 1056 0 q 1210 241 1211 141 l 1210 570 q 1133 741 1212 670 q 944 811 1055 811 l 326 811 m 390 614 l 881 614 q 944 590 918 614 q 970 532 970 567 l 970 279 q 945 221 971 245 q 881 197 920 199 l 390 197 q 327 221 353 199 q 300 279 300 245 l 300 532 q 326 590 300 567 q 390 614 353 614 z "},"r":{"ha":1223,"x_min":61,"x_max":1162,"o":"m 61 811 l 61 0 l 300 0 l 300 286 l 643 286 l 881 0 l 1162 0 l 903 292 q 1071 381 1004 311 q 1138 549 1138 454 q 1053 734 1138 659 q 849 811 970 811 l 61 811 m 300 614 l 828 614 q 881 596 863 614 q 901 548 901 578 q 881 500 901 518 q 828 481 863 481 q 300 481 751 481 l 300 614 z "},"s":{"ha":1208,"x_min":61,"x_max":1147,"o":"m 333 811 l 332 811 q 142 735 221 807 q 63 562 63 664 q 143 386 64 459 q 336 313 224 313 l 845 313 q 890 296 872 315 q 909 254 909 278 q 891 212 910 229 q 845 195 872 195 l 351 195 q 306 212 325 195 q 287 254 288 231 l 287 260 l 61 260 l 61 256 q 143 75 61 150 q 341 0 225 0 l 865 0 q 1063 75 982 0 q 1145 256 1147 150 q 1063 437 1147 362 q 865 512 982 512 q 621 512 787 514 q 375 511 454 511 q 336 526 353 511 q 320 562 320 541 q 336 597 320 583 q 375 612 353 612 l 823 612 q 863 597 846 612 q 878 562 879 585 q 878 557 878 560 l 1112 557 l 1112 562 q 1031 738 1112 666 q 839 811 952 811 l 336 811 l 336 811 l 333 811 z "},"t":{"ha":1180,"x_min":61,"x_max":1119,"o":"m 61 811 l 61 614 l 471 614 l 471 0 l 709 0 l 709 614 l 1119 614 l 1119 811 l 61 811 z "},"g":{"ha":1271,"x_min":61,"x_max":1210,"o":"m 327 811 q 139 741 218 811 q 61 570 63 670 l 61 241 q 138 71 61 141 q 327 0 217 0 l 1210 0 l 1210 487 l 701 487 l 701 298 l 970 298 l 970 197 l 390 197 q 327 221 353 199 q 300 279 300 245 l 300 532 q 326 590 300 567 q 390 614 353 614 l 1182 614 l 1182 811 l 327 811 z "},"h":{"ha":1214,"x_min":61,"x_max":1153,"o":"m 61 811 l 61 0 l 300 0 l 300 318 l 914 318 l 914 0 l 1153 0 l 1153 811 l 914 811 l 914 515 l 300 515 l 300 811 l 61 811 z "},"i":{"ha":361,"x_min":61,"x_max":300,"o":"m 61 811 l 61 0 l 300 0 l 300 811 l 61 811 z "},"j":{"ha":753,"x_min":61,"x_max":692,"o":"m 450 811 l 450 279 q 424 221 450 245 q 360 197 397 199 l 61 197 l 61 0 l 424 0 q 612 70 534 0 q 690 241 692 141 l 690 811 l 450 811 z "},"k":{"ha":1271,"x_min":61,"x_max":1251,"o":"m 61 811 l 61 0 l 301 0 l 301 375 l 855 0 l 1251 0 l 587 430 l 1208 811 l 812 811 l 301 482 l 301 811 l 61 811 z "},"l":{"ha":1082,"x_min":61,"x_max":1021,"o":"m 61 811 l 61 0 l 1021 0 l 1021 197 l 301 197 l 301 811 l 61 811 z "},"m":{"ha":1405,"x_min":61,"x_max":1344,"o":"m 61 811 l 61 0 l 300 0 l 300 476 l 603 71 l 802 71 l 1105 476 l 1105 0 l 1344 0 l 1344 811 l 1101 811 l 703 267 l 303 811 l 61 811 z "},"a":{"ha":1299,"x_min":20,"x_max":1278,"o":"m 536 811 l 20 0 l 279 0 l 390 173 l 910 173 l 1019 0 l 1278 0 l 763 811 l 536 811 m 650 583 l 791 361 l 509 361 l 650 583 z "},"e":{"ha":1122,"x_min":61,"x_max":1061,"o":"m 61 811 l 61 0 l 1061 0 l 1061 197 l 301 197 l 301 312 l 960 312 l 960 506 l 301 506 l 301 614 l 1061 614 l 1061 811 l 61 811 z "},"f":{"ha":1098,"x_min":61,"x_max":1037,"o":"m 61 811 l 61 0 l 301 0 l 301 288 l 936 288 l 936 481 l 301 481 l 301 614 l 1037 614 l 1037 811 l 61 811 z "},"þ":{"ha":1222,"x_min":61,"x_max":1161,"o":"m 61 811 l 61 0 l 298 0 l 298 123 l 851 123 q 1070 205 979 122 q 1161 405 1161 289 q 1070 604 1161 523 q 851 687 979 688 l 298 687 l 298 811 l 61 811 m 298 490 l 831 490 q 901 467 874 491 q 927 405 927 444 q 901 343 927 368 q 831 319 874 319 l 298 319 l 298 490 z "},"ı":{"ha":339,"x_min":61,"x_max":278,"o":"m 61 811 l 61 0 l 278 0 l 278 811 l 61 811 z "},"ð":{"ha":1491,"x_min":61,"x_max":1430,"o":"m 298 811 l 298 504 l 61 504 l 61 307 l 298 307 l 298 0 l 1147 0 q 1284 32 1221 0 q 1390 119 1349 64 q 1430 241 1430 176 l 1430 570 q 1390 691 1430 636 q 1285 779 1350 749 q 1147 811 1220 811 l 298 811 m 536 614 l 1103 614 q 1166 590 1141 614 q 1193 532 1193 567 l 1193 279 q 1167 221 1193 245 q 1103 197 1141 199 l 536 197 l 536 307 l 833 307 l 833 504 l 536 504 l 536 614 z "},"æ":{"ha":1995,"x_min":61,"x_max":1934,"o":"m 886 811 q 462 394 741 669 q 61 0 183 119 l 361 0 q 537 173 391 28 l 950 173 q 949 0 952 144 l 1934 0 l 1934 197 l 1201 197 l 1201 312 l 1833 312 l 1833 507 l 1201 507 l 1201 614 l 1934 614 l 1934 811 l 886 811 m 950 578 l 950 361 l 730 361 l 950 578 z "},"œ":{"ha":2030,"x_min":61,"x_max":1969,"o":"m 325 811 q 138 741 216 811 q 61 570 61 670 l 61 241 q 138 71 61 141 q 325 0 215 0 l 843 0 q 972 24 926 0 l 972 0 l 1969 0 l 1969 197 l 1210 197 l 1210 312 l 1868 312 l 1868 505 l 1210 505 l 1210 614 l 1969 614 l 1969 811 l 972 811 l 972 785 q 843 811 924 811 l 325 811 m 389 614 l 881 614 q 945 590 920 614 q 972 532 972 567 l 972 279 q 945 221 972 245 q 881 197 920 199 l 389 197 q 324 221 351 199 q 298 279 298 245 l 298 532 q 324 590 298 567 q 389 614 351 614 z "},"α":{"ha":1379,"x_min":61,"x_max":1318,"o":"m 576 811 l 61 0 l 319 0 l 430 173 l 950 173 l 1059 0 l 1318 0 l 803 811 l 576 811 m 690 583 l 831 361 l 549 361 l 690 583 z "},"β":{"ha":1214,"x_min":61,"x_max":1153,"o":"m 61 811 l 61 0 l 898 0 q 1078 68 1004 0 q 1153 232 1153 136 q 1121 345 1153 293 q 1034 428 1088 397 q 1103 584 1105 495 q 1030 745 1103 678 q 853 811 957 811 l 61 811 m 300 622 l 784 622 q 835 603 814 624 q 856 555 856 585 q 836 509 858 528 q 784 490 815 490 l 300 490 l 300 622 m 300 321 l 838 321 q 889 302 868 323 q 910 255 910 282 q 889 209 910 229 q 838 189 868 191 l 300 189 l 300 321 z "},"ε":{"ha":1122,"x_min":61,"x_max":1061,"o":"m 61 811 l 61 0 l 1061 0 l 1061 197 l 300 197 l 300 312 l 960 312 l 960 506 l 300 506 l 300 614 l 1061 614 l 1061 811 l 61 811 z "},"γ":{"ha":1082,"x_min":61,"x_max":1021,"o":"m 61 0 l 61 811 l 1021 811 l 1021 614 l 300 614 l 300 0 l 61 0 z "},"ζ":{"ha":1223,"x_min":61,"x_max":1162,"o":"m 88 811 l 88 614 l 736 614 l 66 162 l 61 159 l 61 0 l 1162 0 l 1162 197 l 463 197 l 1135 652 l 1135 811 l 88 811 z "},"η":{"ha":1214,"x_min":61,"x_max":1153,"o":"m 61 811 l 61 0 l 300 0 l 300 318 l 914 318 l 914 0 l 1153 0 l 1153 811 l 914 811 l 914 515 l 300 515 l 300 811 l 61 811 z "},"ι":{"ha":361,"x_min":61,"x_max":300,"o":"m 61 811 l 61 0 l 300 0 l 300 811 l 61 811 z "},"κ":{"ha":1312,"x_min":61,"x_max":1251,"o":"m 61 811 l 61 0 l 300 0 l 300 375 l 855 0 l 1251 0 l 587 430 l 1208 811 l 812 811 l 300 482 l 300 811 l 61 811 z "},"μ":{"ha":1405,"x_min":61,"x_max":1344,"o":"m 61 811 l 61 0 l 300 0 l 300 476 l 604 71 l 802 71 l 1105 476 l 1105 0 l 1344 0 l 1344 811 l 1101 811 l 703 267 l 303 811 l 61 811 z "},"ν":{"ha":1261,"x_min":61,"x_max":1200,"o":"m 61 811 l 61 0 l 300 0 l 300 541 l 966 0 l 1200 0 l 1200 811 l 960 811 l 960 271 l 293 811 l 61 811 z "},"ο":{"ha":1273,"x_min":61,"x_max":1212,"o":"m 327 811 q 139 741 217 811 q 61 570 61 670 l 61 241 q 138 71 61 141 q 327 0 217 0 l 945 0 q 1132 70 1055 0 q 1210 241 1210 141 l 1210 570 q 1133 741 1212 670 q 945 811 1055 811 l 327 811 m 390 614 l 881 614 q 944 590 918 614 q 970 532 970 567 l 970 279 q 945 221 971 245 q 881 197 918 199 l 390 197 q 327 221 353 199 q 300 279 300 245 l 300 532 q 326 590 300 567 q 390 614 353 614 z "},"ρ":{"ha":1223,"x_min":61,"x_max":1162,"o":"m 61 811 l 61 0 l 300 0 l 300 247 l 852 247 q 1072 329 981 247 q 1162 528 1162 412 q 1072 728 1162 646 q 852 811 980 811 l 61 811 m 300 614 l 831 614 q 900 590 873 614 q 926 528 926 567 q 900 467 926 491 q 831 443 873 445 l 300 443 l 300 614 z "},"τ":{"ha":1180,"x_min":61,"x_max":1119,"o":"m 61 811 l 61 614 l 471 614 l 471 0 l 709 0 l 709 614 l 1119 614 l 1119 811 l 61 811 z "},"υ":{"ha":1484,"x_min":61,"x_max":1423,"o":"m 61 811 l 623 292 l 623 0 l 861 0 l 861 292 l 1423 811 l 1072 811 l 742 484 l 412 811 l 61 811 z "},"χ":{"ha":1593,"x_min":61,"x_max":1532,"o":"m 104 811 l 610 422 l 61 0 l 429 0 l 795 296 l 1163 0 l 1532 0 l 983 422 l 1488 811 l 1119 811 l 795 549 l 473 811 l 104 811 z "},"Đ":{"ha":1684,"x_min":61,"x_max":1623,"o":"m 315 929 l 315 568 l 61 568 l 61 361 l 315 361 l 315 0 l 1301 0 q 1457 36 1383 0 q 1575 135 1533 72 q 1621 271 1621 198 l 1621 658 q 1576 794 1623 731 q 1457 893 1531 857 q 1301 929 1385 929 l 315 929 m 568 722 l 1248 722 q 1332 691 1298 724 q 1367 614 1367 661 l 1367 315 q 1333 239 1367 271 q 1248 207 1298 209 l 568 207 l 568 361 l 918 361 l 918 568 l 568 568 l 568 722 z "},"đ":{"ha":1491,"x_min":61,"x_max":1430,"o":"m 298 811 l 298 504 l 61 504 l 61 307 l 298 307 l 298 0 l 1147 0 q 1284 32 1221 0 q 1390 119 1349 64 q 1430 241 1430 176 l 1430 570 q 1390 691 1430 636 q 1285 779 1350 749 q 1147 811 1220 811 l 298 811 m 536 614 l 1103 614 q 1166 590 1141 614 q 1193 532 1193 567 l 1193 279 q 1167 221 1193 245 q 1103 197 1141 199 l 536 197 l 536 307 l 833 307 l 833 504 l 536 504 l 536 614 z "},"΅":{"ha":962,"x_min":61,"x_max":901,"o":"m 61 1297 l 61 1092 l 315 1092 l 315 1297 l 61 1297 m 647 1297 l 647 1092 l 901 1092 l 901 1297 l 647 1297 m 673 1795 l 312 1348 l 475 1231 l 876 1650 l 673 1795 z "},"΄":{"ha":686,"x_min":61,"x_max":625,"o":"m 422 1656 l 61 1208 l 224 1092 l 625 1511 l 422 1656 z "},";":{"ha":491,"x_min":61,"x_max":430,"o":"m 176 766 l 176 561 l 430 561 l 430 766 l 176 766 m 176 205 l 61 -199 l 262 -199 l 430 205 l 176 205 z "},"·":{"ha":376,"x_min":61,"x_max":315,"o":"m 61 811 l 61 606 l 315 606 l 315 811 l 61 811 z "},"λ":{"ha":1371,"x_min":61,"x_max":1310,"o":"m 61 0 l 553 811 l 817 811 l 1310 0 l 1033 0 l 686 582 l 338 0 l 61 0 z "},"δ":{"ha":1380,"x_min":61,"x_max":1319,"o":"m 557 811 l 61 0 l 1319 0 l 823 811 l 557 811 m 690 583 l 924 197 l 458 197 l 690 583 z "},"θ":{"ha":1273,"x_min":61,"x_max":1212,"o":"m 386 503 l 386 309 l 886 309 l 886 503 l 386 503 m 327 811 q 139 741 217 811 q 61 570 61 670 l 61 241 q 138 71 61 141 q 327 0 217 0 l 945 0 q 1132 70 1055 0 q 1210 241 1210 141 l 1210 570 q 1133 741 1212 670 q 945 811 1055 811 l 327 811 m 390 614 l 881 614 q 944 590 918 614 q 970 532 970 567 l 970 279 q 945 221 971 245 q 881 197 918 199 l 390 197 q 327 221 353 199 q 300 279 300 245 l 300 532 q 326 590 300 567 q 390 614 353 614 z "},"π":{"ha":1215,"x_min":61,"x_max":1154,"o":"m 61 811 l 61 0 l 298 0 l 298 614 l 917 614 l 917 0 l 1154 0 l 1154 811 l 61 811 z "},"ς":{"ha":1167,"x_min":61,"x_max":1106,"o":"m 70 811 l 70 651 l 427 412 l 61 159 l 61 0 l 1106 0 l 1106 197 l 452 196 l 770 412 l 450 614 l 1097 614 l 1097 811 l 70 811 z "},"σ":{"ha":1167,"x_min":61,"x_max":1106,"o":"m 70 811 l 70 651 l 427 412 l 61 159 l 61 0 l 1106 0 l 1106 197 l 452 196 l 770 412 l 450 614 l 1097 614 l 1097 811 l 70 811 z "},"ξ":{"ha":1170,"x_min":61,"x_max":1109,"o":"m 61 811 l 61 614 l 1109 614 l 1109 811 l 61 811 m 309 504 l 309 307 l 859 307 l 859 504 l 309 504 m 61 197 l 61 0 l 1109 0 l 1109 197 l 61 197 z "},"φ":{"ha":1272,"x_min":61,"x_max":1211,"o":"m 515 811 l 515 727 l 414 727 q 237 684 319 727 q 109 568 157 643 q 61 406 62 494 q 89 281 62 342 q 165 178 118 222 q 277 110 214 136 q 414 84 343 84 l 515 84 l 515 0 l 753 0 l 753 84 l 856 84 q 992 109 929 84 q 1105 178 1059 136 q 1181 280 1154 221 q 1208 406 1211 340 q 1160 568 1211 493 q 1032 684 1116 642 q 856 727 954 727 l 753 727 l 753 811 l 515 811 m 399 530 l 414 530 l 515 530 l 515 281 l 414 281 q 315 317 355 282 q 276 406 277 355 q 310 491 276 456 q 399 530 345 526 m 753 530 l 856 530 q 954 494 916 530 q 994 406 994 460 q 955 317 994 355 q 856 281 916 282 l 753 281 l 753 530 z "},"ψ":{"ha":1218,"x_min":61,"x_max":1157,"o":"m 61 811 l 61 359 q 138 189 61 260 q 326 118 218 118 l 491 118 l 491 0 l 728 0 l 728 118 l 892 118 q 1080 188 1002 117 q 1157 359 1157 259 l 1157 811 l 920 811 l 920 397 q 893 340 920 364 q 829 315 869 315 l 728 315 l 728 811 l 491 811 l 491 315 l 389 315 q 324 340 351 315 q 298 397 298 364 l 298 811 l 61 811 z "},"ω":{"ha":1395,"x_min":61,"x_max":1334,"o":"m 420 811 q 233 741 311 811 q 156 570 158 670 l 156 290 q 164 233 156 260 q 184 196 172 206 l 61 197 l 61 0 l 600 0 l 600 197 l 484 197 q 418 221 445 199 q 393 279 393 245 l 393 532 q 418 589 393 567 q 484 614 445 616 l 911 614 q 975 590 949 614 q 1002 532 1002 567 l 1002 279 q 975 222 1002 246 q 911 197 949 199 l 794 197 l 794 0 l 1334 0 l 1334 197 l 1212 197 q 1232 234 1225 208 q 1239 290 1240 262 l 1239 570 q 1162 741 1239 670 q 975 811 1086 811 l 698 811 l 420 811 z "},"а":{"ha":1379,"x_min":61,"x_max":1318,"o":"m 576 811 l 61 0 l 319 0 l 430 173 l 950 173 l 1059 0 l 1318 0 l 803 811 l 576 811 m 690 583 l 831 361 l 549 361 l 690 583 z "},"в":{"ha":1214,"x_min":61,"x_max":1153,"o":"m 61 811 l 61 0 l 898 0 q 1078 68 1004 0 q 1153 232 1153 136 q 1121 345 1153 293 q 1034 428 1088 397 q 1103 584 1105 495 q 1030 745 1103 678 q 853 811 957 811 l 61 811 m 300 622 l 784 622 q 835 603 814 624 q 856 555 856 585 q 836 509 858 528 q 784 490 815 490 l 300 490 l 300 622 m 300 321 l 838 321 q 889 302 868 323 q 910 255 910 282 q 889 209 910 229 q 838 189 868 191 l 300 189 l 300 321 z "},"г":{"ha":1082,"x_min":61,"x_max":1021,"o":"m 61 0 l 61 811 l 1021 811 l 1021 614 l 300 614 l 300 0 l 61 0 z "},"е":{"ha":1122,"x_min":61,"x_max":1061,"o":"m 61 811 l 61 0 l 1061 0 l 1061 197 l 300 197 l 300 312 l 960 312 l 960 506 l 300 506 l 300 614 l 1061 614 l 1061 811 l 61 811 z "},"и":{"ha":1261,"x_min":61,"x_max":1200,"o":"m 61 0 l 61 811 l 300 811 l 300 271 l 966 811 l 1200 811 l 1200 0 l 960 0 l 960 541 l 293 0 l 61 0 z "},"й":{"ha":1261,"x_min":61,"x_max":1200,"o":"m 61 0 l 61 811 l 300 811 l 300 271 l 966 811 l 1200 811 l 1200 0 l 960 0 l 960 541 l 293 0 l 61 0 m 260 1215 q 313 1063 260 1135 q 458 954 368 994 q 658 913 550 913 q 857 953 766 913 q 1001 1063 948 994 q 1054 1215 1054 1134 l 826 1215 q 777 1124 828 1164 q 658 1086 728 1086 q 538 1124 589 1086 q 489 1215 490 1162 l 260 1215 z "},"к":{"ha":1312,"x_min":61,"x_max":1251,"o":"m 61 811 l 61 0 l 300 0 l 300 375 l 855 0 l 1251 0 l 587 430 l 1208 811 l 812 811 l 300 482 l 300 811 l 61 811 z "},"м":{"ha":1405,"x_min":61,"x_max":1344,"o":"m 61 811 l 61 0 l 300 0 l 300 476 l 604 71 l 802 71 l 1105 476 l 1105 0 l 1344 0 l 1344 811 l 1101 811 l 703 267 l 303 811 l 61 811 z "},"н":{"ha":1214,"x_min":61,"x_max":1153,"o":"m 61 811 l 61 0 l 300 0 l 300 318 l 914 318 l 914 0 l 1153 0 l 1153 811 l 914 811 l 914 515 l 300 515 l 300 811 l 61 811 z "},"о":{"ha":1273,"x_min":61,"x_max":1212,"o":"m 327 811 q 139 741 217 811 q 61 570 61 670 l 61 241 q 138 71 61 141 q 327 0 217 0 l 945 0 q 1132 70 1055 0 q 1210 241 1210 141 l 1210 570 q 1133 741 1212 670 q 945 811 1055 811 l 327 811 m 390 614 l 881 614 q 944 590 918 614 q 970 532 970 567 l 970 279 q 945 221 971 245 q 881 197 918 199 l 390 197 q 327 221 353 199 q 300 279 300 245 l 300 532 q 326 590 300 567 q 390 614 353 614 z "},"п":{"ha":1215,"x_min":61,"x_max":1154,"o":"m 61 811 l 61 0 l 298 0 l 298 614 l 917 614 l 917 0 l 1154 0 l 1154 811 l 61 811 z "},"р":{"ha":1223,"x_min":61,"x_max":1162,"o":"m 61 811 l 61 0 l 300 0 l 300 247 l 852 247 q 1072 329 981 247 q 1162 528 1162 412 q 1072 728 1162 646 q 852 811 980 811 l 61 811 m 300 614 l 831 614 q 900 590 873 614 q 926 528 926 567 q 900 467 926 491 q 831 443 873 445 l 300 443 l 300 614 z "},"т":{"ha":1180,"x_min":61,"x_max":1119,"o":"m 61 811 l 61 614 l 471 614 l 471 0 l 709 0 l 709 614 l 1119 614 l 1119 811 l 61 811 z "},"х":{"ha":1593,"x_min":61,"x_max":1532,"o":"m 104 811 l 610 422 l 61 0 l 429 0 l 795 296 l 1163 0 l 1532 0 l 983 422 l 1488 811 l 1119 811 l 795 549 l 473 811 l 104 811 z "},"с":{"ha":1255,"x_min":61,"x_max":1194,"o":"m 327 811 q 139 741 218 811 q 61 570 63 670 l 61 241 q 138 71 61 141 q 327 0 217 0 l 926 0 q 1114 70 1038 0 q 1192 241 1194 141 l 1192 302 l 953 302 l 953 279 q 927 221 954 245 q 863 197 902 199 l 390 197 q 327 221 353 199 q 300 279 300 245 l 300 532 q 326 590 300 567 q 390 614 353 614 l 863 614 q 926 590 901 614 q 953 532 953 567 l 953 509 l 1192 509 l 1192 570 q 1115 741 1194 670 q 926 811 1038 811 l 327 811 z "},"я":{"ha":1223,"x_min":61,"x_max":1162,"o":"m 1162 811 l 1162 0 l 923 0 l 923 286 l 581 286 l 342 0 l 61 0 l 321 292 q 153 381 220 311 q 85 549 85 454 q 170 734 85 659 q 374 811 254 811 l 1162 811 m 923 614 l 395 614 q 342 596 361 614 q 323 548 323 578 q 342 500 323 518 q 395 481 361 481 q 923 481 473 481 l 923 614 z "},"ф":{"ha":1272,"x_min":61,"x_max":1211,"o":"m 515 811 l 515 727 l 414 727 q 237 684 319 727 q 109 568 157 643 q 61 406 62 494 q 89 281 62 342 q 165 178 118 222 q 277 110 214 136 q 414 84 343 84 l 515 84 l 515 0 l 753 0 l 753 84 l 856 84 q 992 109 929 84 q 1105 178 1059 136 q 1181 280 1154 221 q 1208 406 1211 340 q 1160 568 1211 493 q 1032 684 1116 642 q 856 727 954 727 l 753 727 l 753 811 l 515 811 m 399 530 l 414 530 l 515 530 l 515 281 l 414 281 q 315 317 355 282 q 276 406 277 355 q 310 491 276 456 q 399 530 345 526 m 753 530 l 856 530 q 954 494 916 530 q 994 406 994 460 q 955 317 994 355 q 856 281 916 282 l 753 281 l 753 530 z "},"б":{"ha":1222,"x_min":61,"x_max":1161,"o":"m 61 811 l 61 0 l 860 0 q 1010 37 943 2 q 1120 136 1082 73 q 1160 274 1161 199 q 1120 412 1160 349 q 1010 511 1081 475 q 860 547 943 547 l 298 547 l 298 614 l 1059 614 l 1059 811 l 61 811 m 298 351 l 840 351 q 902 330 879 351 q 926 274 926 308 q 902 218 926 240 q 840 196 878 196 l 298 196 l 298 351 z "},"д":{"ha":1318,"x_min":61,"x_max":1257,"o":"m 308 811 l 171 197 l 61 197 l 61 -176 l 298 -176 l 298 0 l 1019 0 l 1019 -176 l 1257 -176 l 1257 197 l 1149 197 l 1149 811 l 308 811 m 507 614 l 911 614 l 911 197 l 414 197 l 507 614 z "},"ж":{"ha":1848,"x_min":61,"x_max":1787,"o":"m 96 692 l 96 690 l 578 367 l 61 0 l 395 0 l 821 317 l 821 0 l 1026 0 l 1026 317 l 1453 0 l 1787 1 l 1270 367 l 1752 690 l 1752 692 l 1417 692 l 1026 415 l 1026 692 l 821 692 l 821 415 l 431 692 l 96 692 z "},"з":{"ha":1081,"x_min":61,"x_max":1020,"o":"m 347 811 q 168 744 243 813 q 111 664 128 709 q 93 568 93 619 l 326 568 q 353 602 335 589 q 389 612 371 612 l 684 612 q 730 595 712 613 q 750 553 750 578 q 731 513 750 531 q 684 495 712 496 l 427 495 l 427 324 l 713 324 q 763 305 743 324 q 783 262 785 288 q 763 218 785 236 q 713 199 743 199 l 357 199 q 319 209 335 199 q 294 237 304 219 l 61 237 q 77 144 61 187 q 131 66 95 100 q 300 0 201 0 l 780 0 q 949 66 880 0 q 1019 226 1019 133 q 986 341 1020 289 q 913 415 960 388 q 963 483 945 444 q 987 579 986 529 q 912 743 987 675 q 732 811 838 811 l 347 811 z "},"л":{"ha":1216,"x_min":61,"x_max":1155,"o":"m 194 811 l 194 279 q 168 222 194 246 q 103 197 142 199 l 61 197 l 61 0 l 167 0 q 353 70 277 0 q 431 241 431 141 l 431 614 l 918 614 l 918 0 l 1155 0 l 1155 811 l 194 811 z "},"у":{"ha":1406,"x_min":61,"x_max":1345,"o":"m 61 811 l 547 285 l 284 0 l 595 0 l 1345 811 l 1034 811 l 703 454 l 373 811 l 61 811 z "},"ц":{"ha":1323,"x_min":61,"x_max":1262,"o":"m 61 811 l 61 0 l 1025 0 l 1025 -176 l 1262 -176 l 1262 197 l 1154 197 l 1154 811 l 917 811 l 917 197 l 298 197 l 298 811 l 61 811 z "},"ч":{"ha":1219,"x_min":61,"x_max":1158,"o":"m 61 811 l 61 518 q 138 347 62 418 q 326 277 216 277 l 791 277 q 874 289 836 278 q 900 296 888 293 q 920 307 912 300 l 920 0 l 1158 0 l 1158 811 l 920 811 l 920 555 q 895 498 921 523 q 829 474 868 476 l 389 474 q 324 498 351 475 q 298 555 298 522 l 298 811 l 61 811 z "},"ш":{"ha":1667,"x_min":61,"x_max":1606,"o":"m 61 811 l 61 0 l 1606 0 l 1606 811 l 1369 811 l 1369 197 l 951 197 l 951 811 l 714 811 l 714 197 l 298 197 l 298 811 l 61 811 z "},"щ":{"ha":1773,"x_min":61,"x_max":1712,"o":"m 61 811 l 61 0 l 1476 0 l 1476 -175 l 1712 -175 l 1712 198 l 1605 198 l 1605 811 l 1368 811 l 1368 197 l 951 197 l 951 811 l 714 811 l 714 197 l 298 197 l 298 811 l 61 811 z "},"ъ":{"ha":1415,"x_min":61,"x_max":1354,"o":"m 61 811 l 61 614 l 254 614 l 254 0 l 1053 0 q 1203 37 1136 1 q 1313 136 1274 73 q 1353 274 1354 199 q 1312 412 1353 349 q 1204 511 1274 475 q 1053 547 1136 547 l 491 547 l 491 811 l 61 811 m 491 351 l 1032 351 q 1095 330 1071 353 q 1120 274 1120 308 q 1095 218 1120 241 q 1032 196 1071 196 l 491 196 l 491 351 z "},"ы":{"ha":1629,"x_min":61,"x_max":1568,"o":"m 61 811 l 61 0 l 861 0 q 1010 37 943 1 q 1121 136 1082 73 q 1161 274 1161 199 q 1120 412 1161 349 q 1011 511 1082 475 q 861 547 943 547 l 298 547 l 298 811 l 61 811 m 1331 811 l 1331 0 l 1568 0 l 1568 811 l 1331 811 m 298 351 l 840 351 q 902 330 879 351 q 926 274 926 308 q 903 218 928 240 q 840 196 878 196 l 298 196 l 298 351 z "},"ь":{"ha":1222,"x_min":61,"x_max":1161,"o":"m 61 811 l 61 0 l 861 0 q 1010 37 943 1 q 1121 136 1082 73 q 1161 274 1161 199 q 1120 412 1161 349 q 1011 511 1082 475 q 861 547 943 547 l 298 547 l 298 811 l 61 811 m 298 351 l 840 351 q 902 330 879 351 q 926 274 926 308 q 903 218 928 240 q 840 196 878 196 l 298 196 l 298 351 z "},"э":{"ha":1251,"x_min":61,"x_max":1190,"o":"m 326 811 q 139 741 217 811 q 61 570 61 670 l 61 509 l 298 509 l 298 532 q 324 589 298 567 q 389 614 352 615 l 862 614 q 926 590 901 615 q 952 532 952 567 l 952 503 l 429 503 l 429 309 l 952 309 l 952 279 q 926 222 952 246 q 861 197 900 199 l 389 197 q 324 221 351 198 q 298 279 298 245 l 298 302 l 61 302 l 61 241 q 138 70 62 141 q 326 0 216 0 l 925 0 q 1112 70 1035 0 q 1190 241 1190 141 l 1190 570 q 1112 741 1190 670 q 925 811 1035 811 l 326 811 z "},"ю":{"ha":1678,"x_min":61,"x_max":1617,"o":"m 61 811 l 61 0 l 298 0 l 298 307 l 470 307 l 470 241 q 547 70 470 141 q 734 0 625 0 l 1352 0 q 1538 70 1461 0 q 1616 241 1617 141 l 1616 570 q 1539 741 1616 670 q 1352 811 1461 811 l 734 811 q 547 741 625 811 q 470 570 470 670 l 470 504 l 298 504 l 298 811 l 61 811 m 798 614 l 1289 614 q 1352 590 1326 615 q 1379 532 1379 567 l 1379 279 q 1353 222 1379 246 q 1288 197 1326 199 l 798 197 q 733 221 760 198 q 707 279 708 245 l 707 532 q 732 589 707 567 q 798 614 760 615 z "},"ё":{"ha":1120,"x_min":61,"x_max":1059,"o":"m 61 811 l 61 0 l 1059 0 l 1059 197 l 298 197 l 298 313 l 957 313 l 957 507 l 298 507 l 298 614 l 1059 614 l 1059 811 l 61 811 m 155 1139 l 155 935 l 409 935 l 409 1139 l 155 1139 m 741 1139 l 741 935 l 995 935 l 995 1139 l 741 1139 z "},"ђ":{"ha":1631,"x_min":61,"x_max":1570,"o":"m 61 811 l 61 614 l 470 614 l 470 0 l 707 0 l 707 351 l 1249 351 q 1311 330 1287 352 q 1335 274 1335 309 q 1312 218 1336 240 q 1249 196 1287 196 l 901 196 l 901 0 l 1270 0 q 1419 37 1352 1 q 1530 136 1491 73 q 1569 274 1570 199 q 1529 412 1569 349 q 1420 511 1490 475 q 1270 547 1352 547 l 707 547 l 707 614 l 1116 614 l 1116 811 l 61 811 z "},"ѓ":{"ha":1078,"x_min":61,"x_max":1017,"o":"m 61 811 l 61 0 l 298 0 l 298 614 l 1017 614 l 1017 811 l 61 811 m 653 1487 l 292 1040 l 455 923 l 857 1342 l 653 1487 z "},"і":{"ha":361,"x_min":61,"x_max":300,"o":"m 61 811 l 61 0 l 300 0 l 300 811 l 61 811 z "},"ј":{"ha":753,"x_min":61,"x_max":692,"o":"m 450 811 l 450 279 q 424 221 450 245 q 360 197 397 199 l 61 197 l 61 0 l 424 0 q 612 70 534 0 q 690 241 692 141 l 690 811 l 450 811 z "},"љ":{"ha":2078,"x_min":61,"x_max":2017,"o":"m 193 811 l 193 279 q 167 222 194 246 q 102 197 140 199 l 61 197 l 61 0 l 165 0 q 353 70 276 0 q 430 241 430 141 l 430 614 l 918 614 l 918 0 l 1717 0 q 1867 37 1800 1 q 1977 136 1938 73 q 2017 274 2017 199 q 1976 412 2017 349 q 1868 511 1938 475 q 1717 547 1799 547 l 1155 547 l 1155 811 l 193 811 m 1155 351 l 1697 351 q 1759 330 1736 352 q 1783 274 1784 309 q 1759 218 1784 240 q 1697 196 1735 196 l 1155 196 l 1155 351 z "},"њ":{"ha":1784,"x_min":61,"x_max":1723,"o":"m 61 811 l 61 0 l 298 0 l 298 350 l 623 350 l 623 0 l 1422 0 q 1572 37 1504 1 q 1682 136 1643 73 q 1722 274 1723 199 q 1681 412 1722 349 q 1573 511 1643 475 q 1422 547 1504 547 l 860 547 l 860 811 l 623 811 l 623 547 l 298 547 l 298 811 l 61 811 m 860 351 l 1401 351 q 1463 330 1440 352 q 1488 274 1488 309 q 1464 218 1489 240 q 1401 196 1439 196 l 860 196 l 860 351 z "},"ћ":{"ha":1628,"x_min":61,"x_max":1567,"o":"m 61 811 l 61 614 l 470 614 l 470 0 l 707 0 l 707 256 q 732 313 707 290 q 798 337 760 338 l 1238 337 q 1301 313 1276 338 q 1328 256 1328 290 l 1328 0 l 1565 0 l 1565 293 q 1489 465 1567 393 q 1301 534 1411 534 l 836 534 q 707 503 754 536 l 707 614 l 1116 614 l 1116 811 l 61 811 z "},"ќ":{"ha":1302,"x_min":61,"x_max":1241,"o":"m 61 811 l 61 0 l 298 0 l 298 376 l 854 0 l 1241 2 l 585 429 l 1200 807 l 1199 811 l 810 811 l 298 481 l 298 811 l 61 811 m 680 1491 l 319 1043 l 482 926 l 884 1345 l 680 1491 z "},"ў":{"ha":1406,"x_min":61,"x_max":1345,"o":"m 61 811 l 547 285 l 284 0 l 595 0 l 1345 811 l 1033 811 l 702 454 l 372 811 l 61 811 m 271 1272 q 328 1103 270 1181 q 486 981 387 1028 q 702 936 586 936 q 918 981 819 936 q 1074 1103 1017 1028 q 1132 1272 1134 1181 l 884 1272 q 831 1171 886 1214 q 702 1129 779 1129 q 572 1171 627 1128 q 519 1272 519 1213 l 271 1272 z "},"џ":{"ha":1216,"x_min":61,"x_max":1155,"o":"m 61 811 l 61 0 l 489 0 l 489 -176 l 726 -176 l 726 0 l 1155 0 l 1155 811 l 918 811 l 918 197 l 298 197 l 298 811 l 61 811 z "},"Ά":{"ha":1749,"x_min":61,"x_max":1688,"o":"m 846 929 l 256 0 l 528 0 l 658 203 l 1286 203 l 1415 0 l 1688 0 l 1098 929 l 846 929 m 972 699 l 1161 400 l 783 400 l 972 699 m 422 929 l 61 481 l 224 365 l 625 784 l 422 929 z "},"Έ":{"ha":1898,"x_min":61,"x_max":1837,"o":"m 690 929 l 690 0 l 1837 0 l 1837 207 l 944 207 l 944 367 l 1718 367 l 1718 570 l 944 570 l 944 722 l 1837 722 l 1837 929 l 690 929 m 422 929 l 61 481 l 224 365 l 625 784 l 422 929 z "},"Ή":{"ha":2009,"x_min":61,"x_max":1948,"o":"m 690 929 l 690 0 l 943 0 l 943 374 l 1694 374 l 1694 0 l 1948 0 l 1948 929 l 1694 929 l 1694 581 l 943 581 l 943 929 l 690 929 m 690 929 l 690 0 l 943 0 l 943 374 l 1694 374 l 1694 0 l 1948 0 l 1948 929 l 1694 929 l 1694 581 l 943 581 l 943 929 l 690 929 m 422 929 l 61 481 l 224 365 l 625 784 l 422 929 z "},"Ί":{"ha":1004,"x_min":61,"x_max":943,"o":"m 690 929 l 690 0 l 943 0 l 943 929 l 690 929 m 422 929 l 61 481 l 224 365 l 625 784 l 422 929 z "},"Ό":{"ha":2075,"x_min":61,"x_max":2013,"o":"m 988 929 q 777 850 865 929 q 690 658 690 770 l 690 271 q 777 79 690 159 q 988 0 864 0 l 1715 0 q 1926 79 1839 0 q 2013 271 2013 159 l 2013 658 q 1927 850 2013 770 q 1715 929 1839 929 l 988 929 m 1063 722 l 1640 722 q 1725 691 1691 724 q 1760 614 1760 661 l 1760 315 q 1725 239 1760 271 q 1640 207 1691 209 l 1063 207 q 979 238 1014 208 q 943 315 943 271 l 943 614 q 978 690 943 661 q 1063 722 1014 723 m 422 929 l 61 481 l 224 365 l 625 784 l 422 929 z "},"Ύ":{"ha":2287,"x_min":61,"x_max":2226,"o":"m 690 929 l 1331 336 l 1331 0 l 1585 0 l 1585 336 l 2226 929 l 1852 929 l 1458 538 l 1064 929 l 690 929 m 422 929 l 61 481 l 224 365 l 625 784 l 422 929 z "},"Ώ":{"ha":2223,"x_min":61,"x_max":2162,"o":"m 1100 929 q 888 850 976 929 q 802 658 802 770 l 802 329 q 856 207 802 248 l 690 207 l 690 0 l 1299 0 l 1299 207 l 1175 207 q 1090 238 1124 208 q 1055 315 1055 271 l 1055 614 q 1090 690 1055 661 q 1175 722 1124 723 l 1677 722 q 1762 691 1727 724 q 1796 614 1796 661 l 1796 315 q 1762 239 1796 271 q 1677 207 1727 209 l 1552 207 l 1552 0 l 2162 0 l 2162 207 l 1998 207 q 2050 329 2050 250 l 2050 658 q 1963 850 2050 770 q 1752 929 1876 929 l 1426 929 l 1100 929 m 422 929 l 61 481 l 224 365 l 625 784 l 422 929 z "},"ΐ":{"ha":962,"x_min":61,"x_max":901,"o":"m 361 811 l 361 0 l 600 0 l 600 811 l 361 811 m 61 1134 l 61 929 l 315 929 l 315 1134 l 61 1134 m 647 1134 l 647 929 l 901 929 l 901 1134 l 647 1134 m 673 1632 l 312 1185 l 475 1068 l 876 1487 l 673 1632 z "},"Ϋ":{"ha":1659,"x_min":61,"x_max":1598,"o":"m 61 929 l 703 336 l 703 0 l 956 0 l 956 336 l 1598 929 l 1223 929 l 829 538 l 435 929 l 61 929 m 410 1297 l 410 1092 l 663 1092 l 663 1297 l 410 1297 m 996 1297 l 996 1092 l 1249 1092 l 1249 1297 l 996 1297 z "},"Ϊ":{"ha":962,"x_min":61,"x_max":901,"o":"m 61 1297 l 61 1092 l 315 1092 l 315 1297 l 61 1297 m 647 1297 l 647 1092 l 901 1092 l 901 1297 l 647 1297 m 354 929 l 354 0 l 608 0 l 608 929 l 354 929 z "},"ά":{"ha":1379,"x_min":61,"x_max":1318,"o":"m 576 811 l 61 0 l 319 0 l 430 173 l 950 173 l 1059 0 l 1318 0 l 803 811 l 576 811 m 690 583 l 831 361 l 549 361 l 690 583 m 764 1491 l 404 1043 l 566 926 l 968 1345 l 764 1491 z "},"έ":{"ha":1122,"x_min":61,"x_max":1061,"o":"m 61 811 l 61 0 l 1061 0 l 1061 197 l 300 197 l 300 312 l 960 312 l 960 506 l 300 506 l 300 614 l 1061 614 l 1061 811 l 61 811 m 664 1491 l 303 1043 l 466 926 l 867 1345 l 664 1491 z "},"ή":{"ha":1214,"x_min":61,"x_max":1153,"o":"m 61 811 l 61 0 l 300 0 l 300 318 l 914 318 l 914 0 l 1153 0 l 1153 811 l 914 811 l 914 515 l 300 515 l 300 811 l 61 811 m 664 1491 l 303 1043 l 466 926 l 867 1345 l 664 1491 z "},"ί":{"ha":686,"x_min":61,"x_max":625,"o":"m 231 811 l 231 0 l 470 0 l 470 811 l 231 811 m 422 1491 l 61 1043 l 224 926 l 625 1345 l 422 1491 z "},"ΰ":{"ha":1484,"x_min":61,"x_max":1423,"o":"m 61 811 l 623 292 l 623 0 l 861 0 l 861 292 l 1423 811 l 1072 811 l 742 484 l 412 811 l 61 811 m 323 1134 l 323 929 l 576 929 l 576 1134 l 323 1134 m 909 1134 l 909 929 l 1162 929 l 1162 1134 l 909 1134 m 935 1632 l 574 1185 l 736 1068 l 1138 1487 l 935 1632 z "},"Ø":{"ha":1660,"x_min":61,"x_max":1599,"o":"m 1345 1048 l 1213 928 q 1194 929 1206 929 l 467 929 q 255 850 342 929 q 168 658 168 770 l 168 271 q 194 159 168 212 q 268 68 220 106 l 61 -119 l 315 -119 l 447 0 q 457 0 447 -1 l 467 0 l 1194 0 q 1405 79 1318 0 q 1492 271 1492 159 l 1492 658 q 1466 770 1492 718 q 1392 860 1440 822 l 1599 1048 l 1345 1048 m 541 722 l 987 722 l 456 239 q 422 315 422 271 l 422 614 q 457 691 422 659 q 541 722 492 722 m 1204 689 q 1238 614 1238 657 l 1238 315 q 1203 238 1238 270 q 1119 207 1168 207 l 673 207 l 1204 689 z "},"ø":{"ha":1486,"x_min":61,"x_max":1425,"o":"m 1177 912 l 1065 812 q 1052 811 1061 812 l 434 811 q 248 741 324 811 q 170 570 170 670 l 170 241 q 193 142 170 189 q 249 69 213 100 l 61 -102 l 309 -102 l 421 0 q 426 0 422 0 l 434 0 l 1052 0 q 1238 70 1161 0 q 1316 241 1317 141 l 1316 570 q 1293 670 1316 623 q 1238 743 1274 712 l 1425 912 l 1177 912 m 497 614 l 848 614 l 425 229 q 410 252 414 239 q 407 279 407 264 l 407 532 q 433 589 407 566 q 497 614 460 614 m 1061 582 q 1075 559 1072 572 q 1079 532 1079 546 l 1079 279 q 1053 222 1080 246 q 989 197 1027 198 l 637 197 l 1061 582 z "},"ª":{"ha":838,"x_min":61,"x_max":777,"o":"m 355 1276 l 61 811 l 197 811 l 262 913 l 576 913 l 640 811 l 777 811 l 481 1276 l 355 1276 m 419 1160 l 513 1011 l 324 1011 l 419 1160 z "},"º":{"ha":684,"x_min":61,"x_max":623,"o":"m 210 1276 q 104 1236 148 1276 q 61 1140 61 1196 l 61 947 q 104 850 61 890 q 210 811 148 811 l 473 811 q 579 850 536 811 q 623 947 623 890 l 623 1140 q 579 1236 623 1196 q 473 1276 536 1276 l 210 1276 m 248 1172 l 436 1172 q 479 1157 461 1173 q 496 1118 496 1141 l 496 968 q 479 930 496 947 q 436 914 461 916 l 248 914 q 205 930 222 915 q 188 968 188 947 l 188 1118 q 205 1156 188 1141 q 248 1172 222 1173 z "},"¹":{"ha":344,"x_min":61,"x_max":283,"o":"m 283 1276 l 283 811 l 156 811 l 156 1150 l 61 1113 l 61 1222 l 200 1276 l 283 1276 z "},"²":{"ha":650,"x_min":61,"x_max":589,"o":"m 218 1276 q 110 1235 155 1276 q 65 1135 65 1194 l 65 1134 l 191 1134 q 191 1135 193 1134 q 191 1135 191 1135 q 203 1161 191 1151 q 231 1171 214 1171 l 416 1171 q 448 1160 436 1171 q 461 1131 461 1148 q 449 1101 461 1114 q 416 1090 435 1090 l 218 1090 q 107 1048 153 1090 q 61 945 61 1006 l 61 811 l 589 811 l 589 913 l 187 913 l 187 945 q 201 974 187 962 q 232 986 214 986 l 429 986 q 541 1028 495 986 q 589 1131 589 1070 q 542 1233 589 1191 q 429 1276 495 1276 l 218 1276 z "},"³":{"ha":673,"x_min":61,"x_max":612,"o":"m 223 1275 q 122 1237 163 1276 q 80 1145 80 1199 l 207 1145 q 222 1164 212 1157 q 248 1171 235 1171 l 421 1171 q 453 1159 439 1171 q 466 1130 466 1147 q 453 1101 467 1114 q 421 1089 439 1090 l 276 1089 l 276 1001 l 438 1001 q 472 989 458 1001 q 486 958 486 977 q 472 928 486 941 q 438 915 458 915 l 229 915 q 187 937 201 915 l 61 937 q 100 848 61 886 q 195 811 140 811 l 477 811 q 572 848 533 811 q 612 937 612 886 q 593 1001 612 971 q 544 1047 575 1031 q 579 1091 567 1066 q 593 1145 593 1116 q 551 1237 593 1199 q 449 1275 509 1275 l 223 1275 z "},"¼":{"ha":1384,"x_min":61,"x_max":1323,"o":"m 1082 928 l 61 0 l 255 0 l 1277 928 l 1082 928 m 408 928 l 408 435 l 274 435 l 274 794 l 174 755 l 174 870 l 321 928 l 408 928 m 950 492 l 716 153 l 716 69 l 1107 69 l 1107 0 l 1241 0 l 1241 69 l 1323 69 l 1323 178 l 1241 178 l 1241 338 l 1107 338 l 1107 178 l 899 178 l 1114 492 l 950 492 z "},"¾":{"ha":1499,"x_min":61,"x_max":1438,"o":"m 1214 928 l 193 0 l 387 0 l 1409 928 l 1214 928 m 1065 492 l 831 153 l 831 69 l 1222 69 l 1222 0 l 1356 0 l 1356 69 l 1438 69 l 1438 178 l 1356 178 l 1356 338 l 1222 338 l 1222 178 l 1015 178 l 1230 492 l 1065 492 m 233 926 q 126 886 170 928 q 81 789 81 846 l 216 789 q 233 808 221 802 q 260 816 245 816 l 443 816 q 477 804 463 816 q 490 772 490 791 q 477 743 491 755 q 443 730 463 731 l 289 730 l 289 636 l 461 636 q 497 623 482 636 q 511 591 511 610 q 497 558 511 573 q 461 545 482 545 l 239 545 q 195 568 210 545 l 61 568 q 103 473 61 514 q 203 435 144 435 l 503 435 q 603 473 562 435 q 645 568 645 514 q 625 636 645 604 q 573 685 606 667 q 610 732 597 705 q 625 789 625 758 q 581 886 625 846 q 473 926 536 926 l 233 926 z "},"½":{"ha":1446,"x_min":61,"x_max":1385,"o":"m 1082 928 l 61 0 l 255 0 l 1277 928 l 1082 928 m 408 928 l 408 435 l 274 435 l 274 794 l 174 755 l 174 870 l 321 928 l 408 928 m 993 493 q 878 450 925 494 q 830 344 830 406 l 830 342 l 964 342 q 964 343 965 342 q 964 344 964 344 q 976 371 964 361 q 1006 382 988 382 l 1202 382 q 1236 370 1223 382 q 1250 339 1250 357 q 1237 308 1250 321 q 1202 296 1223 296 l 993 296 q 875 251 924 296 q 826 142 826 207 l 826 0 l 1385 0 l 1385 109 l 960 109 l 960 142 q 974 173 960 161 q 1007 186 987 186 l 1215 186 q 1335 231 1286 186 q 1385 339 1385 275 q 1335 448 1385 403 q 1215 493 1286 493 l 993 493 z "},"̕":{"ha":491,"x_min":61,"x_max":430,"o":"m 176 929 l 61 525 l 262 525 l 430 929 l 176 929 z "},"ϊ":{"ha":962,"x_min":61,"x_max":901,"o":"m 361 811 l 361 0 l 600 0 l 600 811 l 361 811 m 61 1134 l 61 929 l 315 929 l 315 1134 l 61 1134 m 647 1134 l 647 929 l 901 929 l 901 1134 l 647 1134 z "},"ϋ":{"ha":1484,"x_min":61,"x_max":1423,"o":"m 61 811 l 623 292 l 623 0 l 861 0 l 861 292 l 1423 811 l 1072 811 l 742 484 l 412 811 l 61 811 m 317 1134 l 317 929 l 571 929 l 571 1134 l 317 1134 m 903 1134 l 903 929 l 1157 929 l 1157 1134 l 903 1134 z "},"ό":{"ha":1273,"x_min":61,"x_max":1212,"o":"m 327 811 q 139 741 217 811 q 61 570 61 670 l 61 241 q 138 71 61 141 q 327 0 217 0 l 945 0 q 1132 70 1055 0 q 1210 241 1210 141 l 1210 570 q 1133 741 1212 670 q 945 811 1055 811 l 327 811 m 390 614 l 881 614 q 944 590 918 614 q 970 532 970 567 l 970 279 q 945 221 971 245 q 881 197 918 199 l 390 197 q 327 221 353 199 q 300 279 300 245 l 300 532 q 326 590 300 567 q 390 614 353 614 m 692 1491 l 332 1043 l 494 926 l 896 1345 l 692 1491 z "},"ύ":{"ha":1484,"x_min":61,"x_max":1423,"o":"m 61 811 l 623 292 l 623 0 l 861 0 l 861 292 l 1423 811 l 1072 811 l 742 484 l 412 811 l 61 811 m 816 1491 l 455 1043 l 618 926 l 1019 1345 l 816 1491 z "},"ώ":{"ha":1395,"x_min":61,"x_max":1334,"o":"m 420 811 q 233 741 311 811 q 156 570 158 670 l 156 290 q 164 233 156 260 q 184 196 172 206 l 61 197 l 61 0 l 600 0 l 600 197 l 484 197 q 418 221 445 199 q 393 279 393 245 l 393 532 q 418 589 393 567 q 484 614 445 616 l 911 614 q 975 590 949 614 q 1002 532 1002 567 l 1002 279 q 975 222 1002 246 q 911 197 949 199 l 794 197 l 794 0 l 1334 0 l 1334 197 l 1212 197 q 1232 234 1225 208 q 1239 290 1240 262 l 1239 570 q 1162 741 1239 670 q 975 811 1086 811 l 698 811 l 420 811 m 745 1491 l 384 1043 l 547 926 l 948 1345 l 745 1491 z "},"Š":{"ha":1371,"x_min":61,"x_max":1310,"o":"m 370 929 q 153 844 241 925 q 63 648 63 765 q 153 450 63 533 q 370 368 242 369 l 968 368 q 1031 344 1005 368 q 1058 286 1058 320 q 1032 228 1058 252 q 968 204 1006 206 l 388 204 q 325 229 351 204 q 298 287 298 253 l 298 288 l 61 288 q 153 84 61 168 q 377 0 247 0 l 992 0 q 1215 84 1124 0 q 1308 288 1309 168 q 1216 492 1310 408 q 992 577 1124 578 q 704 577 899 579 q 415 576 509 576 q 360 597 382 576 q 337 648 338 618 q 359 699 337 678 q 415 720 382 722 l 943 720 q 1000 699 978 722 q 1023 648 1023 679 q 1022 644 1024 648 l 1022 644 l 1269 644 l 1269 648 q 1179 847 1269 765 q 962 929 1090 929 l 370 929 m 525 998 l 255 1373 l 530 1373 l 686 1188 l 842 1373 l 1116 1373 l 846 998 l 525 998 z "},"Ž":{"ha":1390,"x_min":61,"x_max":1329,"o":"m 93 929 l 93 722 l 884 722 l 61 168 l 61 0 l 1329 0 l 1329 207 l 478 207 l 1297 760 l 1297 929 l 93 929 m 534 998 l 264 1373 l 539 1373 l 696 1188 l 851 1373 l 1126 1373 l 856 998 l 534 998 z "},"š":{"ha":1208,"x_min":61,"x_max":1147,"o":"m 333 811 l 332 811 q 142 735 221 807 q 63 562 63 664 q 143 386 64 459 q 336 313 224 313 l 845 313 q 890 296 872 315 q 909 254 909 278 q 891 212 910 229 q 845 195 872 195 l 351 195 q 306 212 325 195 q 287 254 288 231 l 287 260 l 61 260 l 61 256 q 143 75 61 150 q 341 0 225 0 l 865 0 q 1063 75 982 0 q 1145 256 1147 150 q 1063 437 1147 362 q 865 512 982 512 q 621 512 787 514 q 375 511 454 511 q 336 526 353 511 q 320 562 320 541 q 336 597 320 583 q 375 612 353 612 l 823 612 q 863 597 846 612 q 878 562 879 585 q 878 557 878 560 l 1112 557 l 1112 562 q 1031 738 1112 666 q 839 811 952 811 l 336 811 l 336 811 l 333 811 m 444 880 l 174 1255 l 448 1255 l 605 1070 l 760 1255 l 1035 1255 l 765 880 l 444 880 z "},"ž":{"ha":1223,"x_min":61,"x_max":1162,"o":"m 87 811 l 87 614 l 735 614 l 65 162 l 61 159 l 61 0 l 1162 0 l 1162 197 l 463 197 l 1135 652 l 1135 811 l 87 811 m 451 880 l 181 1255 l 456 1255 l 612 1070 l 768 1255 l 1042 1255 l 772 880 l 451 880 z "},"Ÿ":{"ha":1659,"x_min":61,"x_max":1598,"o":"m 20 929 l 662 336 l 662 0 l 916 0 l 916 336 l 1557 929 l 1183 929 l 789 538 l 395 929 l 20 929 m 355 1203 l 355 998 l 609 998 l 609 1203 l 355 1203 m 941 1203 l 941 998 l 1195 998 l 1195 1203 l 941 1203 z "},"À":{"ha":1554,"x_min":61,"x_max":1493,"o":"m 610 929 l 20 0 l 293 0 l 422 203 l 1051 203 l 1179 0 l 1453 0 l 863 929 l 610 929 m 737 699 l 926 400 l 547 400 l 737 699 m 644 1563 l 1005 1115 l 842 998 l 441 1417 l 644 1563 z "},"Á":{"ha":1554,"x_min":61,"x_max":1493,"o":"m 610 929 l 20 0 l 293 0 l 422 203 l 1051 203 l 1179 0 l 1453 0 l 863 929 l 610 929 m 737 699 l 926 400 l 547 400 l 737 699 m 802 1563 l 441 1115 l 604 998 l 1005 1417 l 802 1563 z "},"Â":{"ha":1554,"x_min":61,"x_max":1493,"o":"m 610 929 l 20 0 l 293 0 l 422 203 l 1051 203 l 1179 0 l 1453 0 l 863 929 l 610 929 m 737 699 l 926 400 l 547 400 l 737 699 m 562 1373 l 292 998 l 567 998 l 724 1183 l 879 998 l 1154 998 l 884 1373 l 562 1373 z "},"Ã":{"ha":1554,"x_min":61,"x_max":1493,"o":"m 610 929 l 20 0 l 293 0 l 422 203 l 1051 203 l 1179 0 l 1453 0 l 863 929 l 610 929 m 737 699 l 926 400 l 547 400 l 737 699 m 357 1062 l 370 1120 q 464 1269 391 1218 q 621 1295 538 1320 l 836 1232 q 899 1242 870 1222 q 937 1301 929 1263 l 1089 1256 l 1077 1197 q 983 1049 1057 1101 q 825 1022 909 998 l 610 1086 q 548 1076 578 1096 q 510 1017 518 1055 l 357 1062 z "},"Ä":{"ha":1554,"x_min":61,"x_max":1493,"o":"m 610 929 l 20 0 l 293 0 l 422 203 l 1051 203 l 1179 0 l 1453 0 l 863 929 l 610 929 m 737 699 l 926 400 l 547 400 l 737 699 m 303 1203 l 303 998 l 557 998 l 557 1203 l 303 1203 m 889 1203 l 889 998 l 1143 998 l 1143 1203 l 889 1203 z "},"Å":{"ha":1554,"x_min":61,"x_max":1493,"o":"m 610 929 l 20 0 l 293 0 l 422 203 l 1051 203 l 1179 0 l 1453 0 l 863 929 l 610 929 m 737 699 l 926 400 l 547 400 l 737 699 m 587 1491 q 473 1448 520 1491 q 427 1344 427 1405 l 427 1144 q 473 1041 427 1084 q 587 998 520 998 l 861 998 q 973 1040 927 998 q 1019 1144 1019 1083 l 1019 1344 q 973 1448 1019 1405 q 861 1491 927 1491 l 587 1491 m 628 1366 l 818 1366 q 858 1351 842 1367 q 874 1314 874 1336 l 874 1175 q 858 1137 874 1153 q 818 1122 842 1122 l 628 1122 q 588 1137 604 1122 q 572 1175 572 1153 l 572 1314 q 588 1350 572 1336 q 628 1366 604 1366 z "},"Ç":{"ha":1426,"x_min":61,"x_max":1364,"o":"m 359 929 q 149 850 236 929 q 61 658 61 770 l 61 271 q 148 79 61 159 q 359 0 235 0 l 1065 0 q 1277 79 1190 0 q 1364 271 1364 159 l 1364 330 l 1110 330 l 1110 315 q 1076 239 1110 271 q 991 207 1042 209 l 434 207 q 350 238 385 208 q 315 315 315 271 l 315 614 q 349 690 315 661 q 434 722 385 723 l 991 722 q 1076 691 1042 724 q 1110 614 1110 661 l 1110 598 l 1364 598 l 1364 658 q 1277 850 1364 770 q 1065 929 1190 929 l 359 929 m 636 -481 q 503 -431 558 -481 q 447 -309 447 -380 l 447 -307 l 604 -307 l 603 -309 l 603 -309 q 618 -340 603 -327 q 653 -353 633 -353 l 764 -353 q 803 -338 787 -353 q 819 -302 819 -323 q 804 -267 820 -281 q 764 -252 787 -252 l 636 -252 q 550 -180 550 -252 l 550 -69 l 705 -69 l 705 -106 q 742 -130 705 -131 l 779 -130 q 919 -179 862 -127 q 976 -302 976 -228 q 919 -429 978 -377 q 779 -481 862 -481 l 636 -481 z "},"È":{"ha":1270,"x_min":61,"x_max":1208,"o":"m 61 929 l 61 0 l 1208 0 l 1208 207 l 315 207 l 315 367 l 1089 367 l 1089 570 l 315 570 l 315 722 l 1208 722 l 1208 929 l 61 929 m 556 1563 l 917 1115 l 754 998 l 353 1417 l 556 1563 z "},"É":{"ha":1270,"x_min":61,"x_max":1208,"o":"m 61 929 l 61 0 l 1208 0 l 1208 207 l 315 207 l 315 367 l 1089 367 l 1089 570 l 315 570 l 315 722 l 1208 722 l 1208 929 l 61 929 m 713 1563 l 353 1115 l 515 998 l 917 1417 l 713 1563 z "},"Ê":{"ha":1270,"x_min":61,"x_max":1208,"o":"m 61 929 l 61 0 l 1208 0 l 1208 207 l 315 207 l 315 367 l 1089 367 l 1089 570 l 315 570 l 315 722 l 1208 722 l 1208 929 l 61 929 m 474 1373 l 204 998 l 479 998 l 635 1183 l 791 998 l 1065 998 l 795 1373 l 474 1373 z "},"Ë":{"ha":1270,"x_min":61,"x_max":1208,"o":"m 61 929 l 61 0 l 1208 0 l 1208 207 l 315 207 l 315 367 l 1089 367 l 1089 570 l 315 570 l 315 722 l 1208 722 l 1208 929 l 61 929 m 215 1203 l 215 998 l 469 998 l 469 1203 l 215 1203 m 801 1203 l 801 998 l 1055 998 l 1055 1203 l 801 1203 z "},"Ì":{"ha":686,"x_min":61,"x_max":625,"o":"m 216 929 l 216 0 l 470 0 l 470 929 l 216 929 m 264 1563 l 625 1115 l 463 998 l 61 1417 l 264 1563 z "},"Í":{"ha":686,"x_min":61,"x_max":625,"o":"m 216 929 l 216 0 l 470 0 l 470 929 l 216 929 m 422 1563 l 61 1115 l 224 998 l 625 1417 l 422 1563 z "},"Î":{"ha":983,"x_min":61,"x_max":922,"o":"m 365 929 l 365 0 l 618 0 l 618 929 l 365 929 m 331 1373 l 61 998 l 336 998 l 492 1183 l 648 998 l 922 998 l 652 1373 l 331 1373 z "},"Ï":{"ha":962,"x_min":61,"x_max":901,"o":"m 354 929 l 354 0 l 608 0 l 608 929 l 354 929 m 61 1203 l 61 998 l 315 998 l 315 1203 l 61 1203 m 647 1203 l 647 998 l 901 998 l 901 1203 l 647 1203 z "},"Ñ":{"ha":1433,"x_min":61,"x_max":1372,"o":"m 61 929 l 61 0 l 315 0 l 315 652 l 1118 0 l 1372 0 l 1372 929 l 1118 929 l 1118 277 l 315 929 l 61 929 m 350 1062 l 363 1120 q 457 1269 384 1218 q 614 1295 532 1320 l 829 1232 q 892 1242 863 1222 q 930 1301 922 1263 l 1082 1256 l 1070 1197 q 976 1049 1050 1101 q 819 1022 902 998 l 604 1086 q 541 1076 571 1096 q 503 1017 511 1055 l 350 1062 z "},"Ò":{"ha":1446,"x_min":61,"x_max":1385,"o":"m 359 929 q 148 850 235 929 q 61 658 61 770 l 61 271 q 148 79 61 159 q 359 0 235 0 l 1086 0 q 1297 79 1211 0 q 1384 271 1385 159 l 1384 658 q 1297 850 1385 770 q 1086 929 1211 929 l 359 929 m 434 722 l 1011 722 q 1096 691 1062 724 q 1131 614 1131 661 l 1131 315 q 1096 239 1131 271 q 1011 207 1062 209 l 434 207 q 349 238 384 208 q 315 315 315 271 l 315 614 q 349 690 315 661 q 434 722 384 723 m 644 1563 l 1005 1115 l 842 998 l 441 1417 l 644 1563 z "},"Ó":{"ha":1446,"x_min":61,"x_max":1385,"o":"m 359 929 q 148 850 235 929 q 61 658 61 770 l 61 271 q 148 79 61 159 q 359 0 235 0 l 1086 0 q 1297 79 1211 0 q 1384 271 1385 159 l 1384 658 q 1297 850 1385 770 q 1086 929 1211 929 l 359 929 m 434 722 l 1011 722 q 1096 691 1062 724 q 1131 614 1131 661 l 1131 315 q 1096 239 1131 271 q 1011 207 1062 209 l 434 207 q 349 238 384 208 q 315 315 315 271 l 315 614 q 349 690 315 661 q 434 722 384 723 m 802 1563 l 441 1115 l 604 998 l 1005 1417 l 802 1563 z "},"Ô":{"ha":1446,"x_min":61,"x_max":1385,"o":"m 359 929 q 148 850 235 929 q 61 658 61 770 l 61 271 q 148 79 61 159 q 359 0 235 0 l 1086 0 q 1297 79 1211 0 q 1384 271 1385 159 l 1384 658 q 1297 850 1385 770 q 1086 929 1211 929 l 359 929 m 434 722 l 1011 722 q 1096 691 1062 724 q 1131 614 1131 661 l 1131 315 q 1096 239 1131 271 q 1011 207 1062 209 l 434 207 q 349 238 384 208 q 315 315 315 271 l 315 614 q 349 690 315 661 q 434 722 384 723 m 562 1373 l 292 998 l 567 998 l 724 1183 l 879 998 l 1154 998 l 884 1373 l 562 1373 z "},"Õ":{"ha":1446,"x_min":61,"x_max":1385,"o":"m 359 929 q 148 850 235 929 q 61 658 61 770 l 61 271 q 148 79 61 159 q 359 0 235 0 l 1086 0 q 1297 79 1211 0 q 1384 271 1385 159 l 1384 658 q 1297 850 1385 770 q 1086 929 1211 929 l 359 929 m 434 722 l 1011 722 q 1096 691 1062 724 q 1131 614 1131 661 l 1131 315 q 1096 239 1131 271 q 1011 207 1062 209 l 434 207 q 349 238 384 208 q 315 315 315 271 l 315 614 q 349 690 315 661 q 434 722 384 723 m 357 1062 l 370 1120 q 464 1269 391 1218 q 621 1295 538 1320 l 836 1232 q 899 1242 870 1222 q 937 1301 929 1263 l 1089 1256 l 1077 1197 q 983 1049 1057 1101 q 825 1022 909 998 l 610 1086 q 548 1076 578 1096 q 510 1017 518 1055 l 357 1062 z "},"Ö":{"ha":1446,"x_min":61,"x_max":1385,"o":"m 359 929 q 148 850 235 929 q 61 658 61 770 l 61 271 q 148 79 61 159 q 359 0 235 0 l 1086 0 q 1297 79 1211 0 q 1384 271 1385 159 l 1384 658 q 1297 850 1385 770 q 1086 929 1211 929 l 359 929 m 434 722 l 1011 722 q 1096 691 1062 724 q 1131 614 1131 661 l 1131 315 q 1096 239 1131 271 q 1011 207 1062 209 l 434 207 q 349 238 384 208 q 315 315 315 271 l 315 614 q 349 690 315 661 q 434 722 384 723 m 303 1203 l 303 998 l 557 998 l 557 1203 l 303 1203 m 889 1203 l 889 998 l 1143 998 l 1143 1203 l 889 1203 z "},"Ù":{"ha":1386,"x_min":61,"x_max":1325,"o":"m 61 929 l 61 271 q 148 79 61 159 q 359 0 235 0 l 1026 0 q 1238 79 1151 0 q 1324 271 1325 159 l 1324 929 l 1071 929 l 1071 315 q 1036 239 1071 271 q 951 207 1002 209 l 434 207 q 349 238 384 208 q 315 315 315 271 l 315 929 l 61 929 m 614 1563 l 975 1115 l 812 998 l 411 1417 l 614 1563 z "},"Ú":{"ha":1386,"x_min":61,"x_max":1325,"o":"m 61 929 l 61 271 q 148 79 61 159 q 359 0 235 0 l 1026 0 q 1238 79 1151 0 q 1324 271 1325 159 l 1324 929 l 1071 929 l 1071 315 q 1036 239 1071 271 q 951 207 1002 209 l 434 207 q 349 238 384 208 q 315 315 315 271 l 315 929 l 61 929 m 772 1563 l 411 1115 l 574 998 l 975 1417 l 772 1563 z "},"Û":{"ha":1386,"x_min":61,"x_max":1325,"o":"m 61 929 l 61 271 q 148 79 61 159 q 359 0 235 0 l 1026 0 q 1238 79 1151 0 q 1324 271 1325 159 l 1324 929 l 1071 929 l 1071 315 q 1036 239 1071 271 q 951 207 1002 209 l 434 207 q 349 238 384 208 q 315 315 315 271 l 315 929 l 61 929 m 532 1373 l 262 998 l 537 998 l 694 1183 l 849 998 l 1124 998 l 854 1373 l 532 1373 z "},"Ü":{"ha":1386,"x_min":61,"x_max":1325,"o":"m 61 929 l 61 271 q 148 79 61 159 q 359 0 235 0 l 1026 0 q 1238 79 1151 0 q 1324 271 1325 159 l 1324 929 l 1071 929 l 1071 315 q 1036 239 1071 271 q 951 207 1002 209 l 434 207 q 349 238 384 208 q 315 315 315 271 l 315 929 l 61 929 m 273 1203 l 273 998 l 527 998 l 527 1203 l 273 1203 m 859 1203 l 859 998 l 1113 998 l 1113 1203 l 859 1203 z "},"Ý":{"ha":1659,"x_min":61,"x_max":1598,"o":"m 20 929 l 662 336 l 662 0 l 916 0 l 916 336 l 1557 929 l 1183 929 l 789 538 l 395 929 l 20 929 m 854 1563 l 493 1115 l 656 998 l 1057 1417 l 854 1563 z "},"à":{"ha":1380,"x_min":61,"x_max":1319,"o":"m 536 811 l 20 0 l 279 0 l 390 173 l 910 173 l 1019 0 l 1278 0 l 763 811 l 536 811 m 650 583 l 791 361 l 509 361 l 650 583 m 557 1444 l 918 997 l 755 880 l 354 1299 l 557 1444 z "},"á":{"ha":1380,"x_min":61,"x_max":1319,"o":"m 536 811 l 20 0 l 279 0 l 390 173 l 910 173 l 1019 0 l 1278 0 l 763 811 l 536 811 m 650 583 l 791 361 l 509 361 l 650 583 m 715 1444 l 354 997 l 517 880 l 918 1299 l 715 1444 z "},"â":{"ha":1380,"x_min":61,"x_max":1319,"o":"m 536 811 l 20 0 l 279 0 l 390 173 l 910 173 l 1019 0 l 1278 0 l 763 811 l 536 811 m 650 583 l 791 361 l 509 361 l 650 583 m 475 1255 l 205 880 l 480 880 l 637 1065 l 792 880 l 1067 880 l 797 1255 l 475 1255 z "},"ã":{"ha":1380,"x_min":61,"x_max":1319,"o":"m 536 811 l 20 0 l 279 0 l 390 173 l 910 173 l 1019 0 l 1278 0 l 763 811 l 536 811 m 650 583 l 791 361 l 509 361 l 650 583 m 270 944 l 283 1002 q 377 1151 304 1100 q 534 1177 452 1202 l 749 1114 q 812 1124 783 1104 q 850 1183 842 1145 l 1002 1138 l 990 1079 q 896 931 970 983 q 739 904 822 880 l 524 968 q 461 958 491 978 q 423 899 431 937 l 270 944 z "},"ä":{"ha":1380,"x_min":61,"x_max":1319,"o":"m 536 811 l 20 0 l 279 0 l 390 173 l 910 173 l 1019 0 l 1278 0 l 763 811 l 536 811 m 650 583 l 791 361 l 509 361 l 650 583 m 216 1085 l 216 880 l 470 880 l 470 1085 l 216 1085 m 802 1085 l 802 880 l 1056 880 l 1056 1085 l 802 1085 z "},"å":{"ha":1380,"x_min":61,"x_max":1319,"o":"m 536 811 l 20 0 l 279 0 l 390 173 l 910 173 l 1019 0 l 1278 0 l 763 811 l 536 811 m 650 583 l 791 361 l 509 361 l 650 583 m 500 1373 q 387 1330 433 1373 q 340 1226 340 1287 l 340 1026 q 387 923 340 966 q 500 880 433 880 l 774 880 q 886 922 840 880 q 932 1026 932 965 l 932 1226 q 886 1330 932 1287 q 774 1373 840 1373 l 500 1373 m 541 1248 l 731 1248 q 771 1233 755 1249 q 787 1196 787 1218 l 787 1057 q 771 1019 787 1035 q 731 1004 755 1004 l 541 1004 q 501 1019 517 1004 q 485 1057 485 1035 l 485 1196 q 501 1232 485 1218 q 541 1248 517 1248 z "},"ç":{"ha":1255,"x_min":61,"x_max":1194,"o":"m 327 811 q 139 741 218 811 q 61 570 63 670 l 61 241 q 138 71 61 141 q 327 0 217 0 l 926 0 q 1114 70 1038 0 q 1192 241 1194 141 l 1192 302 l 953 302 l 953 279 q 927 221 954 245 q 863 197 902 199 l 390 197 q 327 221 353 199 q 300 279 300 245 l 300 532 q 326 590 300 567 q 390 614 353 614 l 863 614 q 926 590 901 614 q 953 532 953 567 l 953 509 l 1192 509 l 1192 570 q 1115 741 1194 670 q 926 811 1038 811 l 327 811 m 551 -481 q 418 -431 473 -481 q 362 -309 362 -380 l 362 -307 l 519 -307 l 518 -309 l 518 -309 q 533 -340 518 -327 q 568 -353 548 -353 l 680 -353 q 718 -338 703 -353 q 734 -302 734 -323 q 719 -267 735 -281 q 680 -252 703 -252 l 551 -252 q 465 -180 465 -252 l 465 -69 l 620 -69 l 620 -106 q 657 -130 620 -131 l 694 -130 q 834 -179 777 -127 q 891 -302 891 -228 q 834 -429 893 -377 q 694 -481 777 -481 l 551 -481 z "},"è":{"ha":1122,"x_min":61,"x_max":1061,"o":"m 61 811 l 61 0 l 1061 0 l 1061 197 l 301 197 l 301 312 l 960 312 l 960 506 l 301 506 l 301 614 l 1061 614 l 1061 811 l 61 811 m 482 1444 l 843 997 l 680 880 l 279 1299 l 482 1444 z "},"é":{"ha":1122,"x_min":61,"x_max":1061,"o":"m 61 811 l 61 0 l 1061 0 l 1061 197 l 301 197 l 301 312 l 960 312 l 960 506 l 301 506 l 301 614 l 1061 614 l 1061 811 l 61 811 m 640 1444 l 279 997 l 441 880 l 843 1299 l 640 1444 z "},"ê":{"ha":1122,"x_min":61,"x_max":1061,"o":"m 61 811 l 61 0 l 1061 0 l 1061 197 l 301 197 l 301 312 l 960 312 l 960 506 l 301 506 l 301 614 l 1061 614 l 1061 811 l 61 811 m 400 1255 l 130 880 l 405 880 l 562 1065 l 717 880 l 991 880 l 722 1255 l 400 1255 z "},"ë":{"ha":1122,"x_min":61,"x_max":1061,"o":"m 61 811 l 61 0 l 1061 0 l 1061 197 l 301 197 l 301 312 l 960 312 l 960 506 l 301 506 l 301 614 l 1061 614 l 1061 811 l 61 811 m 141 1085 l 141 880 l 395 880 l 395 1085 l 141 1085 m 727 1085 l 727 880 l 981 880 l 981 1085 l 727 1085 z "},"ì":{"ha":686,"x_min":61,"x_max":625,"o":"m 235 811 l 235 0 l 452 0 l 452 811 l 235 811 m 264 1444 l 625 997 l 463 880 l 61 1299 l 264 1444 z "},"í":{"ha":686,"x_min":61,"x_max":625,"o":"m 235 811 l 235 0 l 452 0 l 452 811 l 235 811 m 422 1444 l 61 997 l 224 880 l 625 1299 l 422 1444 z "},"î":{"ha":983,"x_min":61,"x_max":922,"o":"m 383 811 l 383 0 l 600 0 l 600 811 l 383 811 m 331 1255 l 61 880 l 336 880 l 492 1065 l 648 880 l 922 880 l 652 1255 l 331 1255 z "},"ï":{"ha":962,"x_min":61,"x_max":901,"o":"m 372 811 l 372 0 l 589 0 l 589 811 l 372 811 m 61 1085 l 61 880 l 315 880 l 315 1085 l 61 1085 m 647 1085 l 647 880 l 901 880 l 901 1085 l 647 1085 z "},"ñ":{"ha":1261,"x_min":61,"x_max":1200,"o":"m 61 811 l 61 0 l 300 0 l 300 541 l 967 0 l 1200 0 l 1200 811 l 960 811 l 960 271 l 293 811 l 61 811 m 264 944 l 277 1002 q 372 1151 298 1100 q 529 1177 446 1202 l 743 1114 q 806 1124 778 1104 q 844 1183 837 1145 l 997 1138 l 985 1079 q 890 931 964 983 q 733 904 817 880 l 518 968 q 456 958 486 978 q 418 899 426 937 l 264 944 z "},"ò":{"ha":1273,"x_min":61,"x_max":1212,"o":"m 326 811 q 139 741 218 811 q 61 570 63 670 l 61 241 q 138 71 61 141 q 326 0 218 0 l 944 0 q 1132 70 1056 0 q 1210 241 1211 141 l 1210 570 q 1133 741 1212 670 q 944 811 1055 811 l 326 811 m 390 614 l 881 614 q 944 590 918 614 q 970 532 970 567 l 970 279 q 945 221 971 245 q 881 197 920 199 l 390 197 q 327 221 353 199 q 300 279 300 245 l 300 532 q 326 590 300 567 q 390 614 353 614 m 557 1444 l 918 997 l 755 880 l 354 1299 l 557 1444 z "},"ó":{"ha":1273,"x_min":61,"x_max":1212,"o":"m 326 811 q 139 741 218 811 q 61 570 63 670 l 61 241 q 138 71 61 141 q 326 0 218 0 l 944 0 q 1132 70 1056 0 q 1210 241 1211 141 l 1210 570 q 1133 741 1212 670 q 944 811 1055 811 l 326 811 m 390 614 l 881 614 q 944 590 918 614 q 970 532 970 567 l 970 279 q 945 221 971 245 q 881 197 920 199 l 390 197 q 327 221 353 199 q 300 279 300 245 l 300 532 q 326 590 300 567 q 390 614 353 614 m 715 1444 l 354 997 l 517 880 l 918 1299 l 715 1444 z "},"ô":{"ha":1273,"x_min":61,"x_max":1212,"o":"m 326 811 q 139 741 218 811 q 61 570 63 670 l 61 241 q 138 71 61 141 q 326 0 218 0 l 944 0 q 1132 70 1056 0 q 1210 241 1211 141 l 1210 570 q 1133 741 1212 670 q 944 811 1055 811 l 326 811 m 390 614 l 881 614 q 944 590 918 614 q 970 532 970 567 l 970 279 q 945 221 971 245 q 881 197 920 199 l 390 197 q 327 221 353 199 q 300 279 300 245 l 300 532 q 326 590 300 567 q 390 614 353 614 m 475 1255 l 205 880 l 480 880 l 637 1065 l 792 880 l 1067 880 l 797 1255 l 475 1255 z "},"õ":{"ha":1273,"x_min":61,"x_max":1212,"o":"m 326 811 q 139 741 218 811 q 61 570 63 670 l 61 241 q 138 71 61 141 q 326 0 218 0 l 944 0 q 1132 70 1056 0 q 1210 241 1211 141 l 1210 570 q 1133 741 1212 670 q 944 811 1055 811 l 326 811 m 390 614 l 881 614 q 944 590 918 614 q 970 532 970 567 l 970 279 q 945 221 971 245 q 881 197 920 199 l 390 197 q 327 221 353 199 q 300 279 300 245 l 300 532 q 326 590 300 567 q 390 614 353 614 m 270 944 l 283 1002 q 377 1151 304 1100 q 534 1177 452 1202 l 749 1114 q 812 1124 783 1104 q 850 1183 842 1145 l 1002 1138 l 990 1079 q 896 931 970 983 q 739 904 822 880 l 524 968 q 461 958 491 978 q 423 899 431 937 l 270 944 z "},"ö":{"ha":1273,"x_min":61,"x_max":1212,"o":"m 326 811 q 139 741 218 811 q 61 570 63 670 l 61 241 q 138 71 61 141 q 326 0 218 0 l 944 0 q 1132 70 1056 0 q 1210 241 1211 141 l 1210 570 q 1133 741 1212 670 q 944 811 1055 811 l 326 811 m 390 614 l 881 614 q 944 590 918 614 q 970 532 970 567 l 970 279 q 945 221 971 245 q 881 197 920 199 l 390 197 q 327 221 353 199 q 300 279 300 245 l 300 532 q 326 590 300 567 q 390 614 353 614 m 216 1085 l 216 880 l 470 880 l 470 1085 l 216 1085 m 802 1085 l 802 880 l 1056 880 l 1056 1085 l 802 1085 z "},"ù":{"ha":1222,"x_min":61,"x_max":1161,"o":"m 61 811 l 61 241 q 138 71 61 142 q 327 0 217 0 l 894 0 q 1082 71 1006 0 q 1160 241 1161 142 l 1160 811 l 920 811 l 920 279 q 894 221 921 245 q 830 197 868 199 l 390 197 q 327 221 353 199 q 300 279 300 245 l 300 811 l 61 811 m 532 1444 l 893 997 l 730 880 l 329 1299 l 532 1444 z "},"ú":{"ha":1222,"x_min":61,"x_max":1161,"o":"m 61 811 l 61 241 q 138 71 61 142 q 327 0 217 0 l 894 0 q 1082 71 1006 0 q 1160 241 1161 142 l 1160 811 l 920 811 l 920 279 q 894 221 921 245 q 830 197 868 199 l 390 197 q 327 221 353 199 q 300 279 300 245 l 300 811 l 61 811 m 690 1444 l 329 997 l 492 880 l 893 1299 l 690 1444 z "},"û":{"ha":1222,"x_min":61,"x_max":1161,"o":"m 61 811 l 61 241 q 138 71 61 142 q 327 0 217 0 l 894 0 q 1082 71 1006 0 q 1160 241 1161 142 l 1160 811 l 920 811 l 920 279 q 894 221 921 245 q 830 197 868 199 l 390 197 q 327 221 353 199 q 300 279 300 245 l 300 811 l 61 811 m 450 1255 l 180 880 l 455 880 l 612 1065 l 767 880 l 1042 880 l 772 1255 l 450 1255 z "},"ü":{"ha":1222,"x_min":61,"x_max":1161,"o":"m 61 811 l 61 241 q 138 71 61 142 q 327 0 217 0 l 894 0 q 1082 71 1006 0 q 1160 241 1161 142 l 1160 811 l 920 811 l 920 279 q 894 221 921 245 q 830 197 868 199 l 390 197 q 327 221 353 199 q 300 279 300 245 l 300 811 l 61 811 m 191 1085 l 191 880 l 445 880 l 445 1085 l 191 1085 m 777 1085 l 777 880 l 1031 880 l 1031 1085 l 777 1085 z "},"ý":{"ha":1485,"x_min":61,"x_max":1423,"o":"m 20 811 l 582 292 l 582 0 l 821 0 l 821 292 l 1383 811 l 1031 811 l 701 484 l 372 811 l 20 811 m 766 1444 l 406 997 l 568 880 l 970 1299 l 766 1444 z "},"ÿ":{"ha":1485,"x_min":61,"x_max":1423,"o":"m 20 811 l 582 292 l 582 0 l 821 0 l 821 292 l 1383 811 l 1031 811 l 701 484 l 372 811 l 20 811 m 268 1085 l 268 880 l 522 880 l 522 1085 l 268 1085 m 854 1085 l 854 880 l 1107 880 l 1107 1085 l 854 1085 z "},"Ā":{"ha":1554,"x_min":61,"x_max":1493,"o":"m 610 929 l 20 0 l 293 0 l 422 203 l 1051 203 l 1179 0 l 1453 0 l 863 929 l 610 929 m 737 699 l 926 400 l 547 400 l 737 699 m 292 1205 l 1154 1205 l 1154 998 l 292 998 l 292 1205 z "},"ā":{"ha":1380,"x_min":61,"x_max":1319,"o":"m 536 811 l 20 0 l 279 0 l 390 173 l 910 173 l 1019 0 l 1278 0 l 763 811 l 536 811 m 650 583 l 791 361 l 509 361 l 650 583 m 205 1087 l 1067 1087 l 1067 880 l 205 880 l 205 1087 z "},"Ă":{"ha":1554,"x_min":61,"x_max":1493,"o":"m 610 929 l 20 0 l 293 0 l 422 203 l 1051 203 l 1179 0 l 1453 0 l 863 929 l 610 929 m 737 699 l 926 400 l 547 400 l 737 699 m 292 1334 q 350 1166 292 1243 q 507 1044 409 1090 q 724 998 607 998 q 939 1043 840 998 q 1096 1166 1039 1090 q 1154 1334 1154 1243 l 906 1334 q 853 1234 908 1276 q 724 1192 800 1192 q 594 1233 649 1191 q 541 1334 541 1275 l 292 1334 z "},"ă":{"ha":1380,"x_min":61,"x_max":1319,"o":"m 536 811 l 20 0 l 279 0 l 390 173 l 910 173 l 1019 0 l 1278 0 l 763 811 l 536 811 m 650 583 l 791 361 l 509 361 l 650 583 m 205 1216 q 263 1048 205 1125 q 420 926 322 972 q 637 880 520 880 q 852 925 753 880 q 1009 1048 952 972 q 1067 1216 1067 1125 l 819 1216 q 766 1116 821 1158 q 637 1074 713 1074 q 507 1115 562 1073 q 454 1216 454 1157 l 205 1216 z "},"Ą":{"ha":1588,"x_min":61,"x_max":1527,"o":"m 610 929 l 20 0 l 293 0 l 422 203 l 1051 203 l 1179 0 l 1453 0 l 863 929 l 610 929 m 737 699 l 926 400 l 547 400 l 737 699 m 1276 0 q 1234 -66 1258 -27 q 1198 -120 1209 -104 q 1177 -273 1139 -210 q 1327 -336 1215 -336 l 1527 -336 l 1527 -171 l 1372 -171 q 1312 -146 1326 -171 q 1320 -84 1298 -119 l 1375 0 l 1276 0 z "},"ą":{"ha":1433,"x_min":61,"x_max":1372,"o":"m 536 811 l 20 0 l 279 0 l 390 173 l 910 173 l 1019 0 l 1278 0 l 763 811 l 536 811 m 650 583 l 791 361 l 509 361 l 650 583 m 1122 0 q 1079 -66 1103 -27 q 1044 -120 1055 -104 q 1022 -273 985 -210 q 1173 -336 1061 -336 l 1372 -336 l 1372 -171 l 1217 -171 q 1157 -146 1172 -171 q 1166 -84 1143 -119 l 1221 0 l 1122 0 z "},"Ć":{"ha":1426,"x_min":61,"x_max":1364,"o":"m 359 929 q 149 850 236 929 q 61 658 61 770 l 61 271 q 148 79 61 159 q 359 0 235 0 l 1065 0 q 1277 79 1190 0 q 1364 271 1364 159 l 1364 330 l 1110 330 l 1110 315 q 1076 239 1110 271 q 991 207 1042 209 l 434 207 q 350 238 385 208 q 315 315 315 271 l 315 614 q 349 690 315 661 q 434 722 385 723 l 991 722 q 1076 691 1042 724 q 1110 614 1110 661 l 1110 598 l 1364 598 l 1364 658 q 1277 850 1364 770 q 1065 929 1190 929 l 359 929 m 791 1563 l 431 1115 l 593 998 l 995 1417 l 791 1563 z "},"ć":{"ha":1255,"x_min":61,"x_max":1194,"o":"m 327 811 q 139 741 218 811 q 61 570 63 670 l 61 241 q 138 71 61 141 q 327 0 217 0 l 926 0 q 1114 70 1038 0 q 1192 241 1194 141 l 1192 302 l 953 302 l 953 279 q 927 221 954 245 q 863 197 902 199 l 390 197 q 327 221 353 199 q 300 279 300 245 l 300 532 q 326 590 300 567 q 390 614 353 614 l 863 614 q 926 590 901 614 q 953 532 953 567 l 953 509 l 1192 509 l 1192 570 q 1115 741 1194 670 q 926 811 1038 811 l 327 811 m 707 1444 l 346 997 l 509 880 l 910 1299 l 707 1444 z "},"Ĉ":{"ha":1426,"x_min":61,"x_max":1364,"o":"m 359 929 q 149 850 236 929 q 61 658 61 770 l 61 271 q 148 79 61 159 q 359 0 235 0 l 1065 0 q 1277 79 1190 0 q 1364 271 1364 159 l 1364 330 l 1110 330 l 1110 315 q 1076 239 1110 271 q 991 207 1042 209 l 434 207 q 350 238 385 208 q 315 315 315 271 l 315 614 q 349 690 315 661 q 434 722 385 723 l 991 722 q 1076 691 1042 724 q 1110 614 1110 661 l 1110 598 l 1364 598 l 1364 658 q 1277 850 1364 770 q 1065 929 1190 929 l 359 929 m 552 1373 l 282 998 l 557 998 l 713 1183 l 869 998 l 1143 998 l 873 1373 l 552 1373 z "},"ĉ":{"ha":1255,"x_min":61,"x_max":1194,"o":"m 327 811 q 139 741 218 811 q 61 570 63 670 l 61 241 q 138 71 61 141 q 327 0 217 0 l 926 0 q 1114 70 1038 0 q 1192 241 1194 141 l 1192 302 l 953 302 l 953 279 q 927 221 954 245 q 863 197 902 199 l 390 197 q 327 221 353 199 q 300 279 300 245 l 300 532 q 326 590 300 567 q 390 614 353 614 l 863 614 q 926 590 901 614 q 953 532 953 567 l 953 509 l 1192 509 l 1192 570 q 1115 741 1194 670 q 926 811 1038 811 l 327 811 m 467 1255 l 197 880 l 472 880 l 629 1065 l 784 880 l 1059 880 l 789 1255 l 467 1255 z "},"Č":{"ha":1426,"x_min":61,"x_max":1364,"o":"m 359 929 q 149 850 236 929 q 61 658 61 770 l 61 271 q 148 79 61 159 q 359 0 235 0 l 1065 0 q 1277 79 1190 0 q 1364 271 1364 159 l 1364 330 l 1110 330 l 1110 315 q 1076 239 1110 271 q 991 207 1042 209 l 434 207 q 350 238 385 208 q 315 315 315 271 l 315 614 q 349 690 315 661 q 434 722 385 723 l 991 722 q 1076 691 1042 724 q 1110 614 1110 661 l 1110 598 l 1364 598 l 1364 658 q 1277 850 1364 770 q 1065 929 1190 929 l 359 929 m 552 998 l 282 1373 l 557 1373 l 713 1188 l 869 1373 l 1143 1373 l 873 998 l 552 998 z "},"č":{"ha":1255,"x_min":61,"x_max":1194,"o":"m 327 811 q 139 741 218 811 q 61 570 63 670 l 61 241 q 138 71 61 141 q 327 0 217 0 l 926 0 q 1114 70 1038 0 q 1192 241 1194 141 l 1192 302 l 953 302 l 953 279 q 927 221 954 245 q 863 197 902 199 l 390 197 q 327 221 353 199 q 300 279 300 245 l 300 532 q 326 590 300 567 q 390 614 353 614 l 863 614 q 926 590 901 614 q 953 532 953 567 l 953 509 l 1192 509 l 1192 570 q 1115 741 1194 670 q 926 811 1038 811 l 327 811 m 467 880 l 197 1255 l 472 1255 l 629 1070 l 784 1255 l 1059 1255 l 789 880 l 467 880 z "},"Ď":{"ha":1430,"x_min":61,"x_max":1369,"o":"m 61 929 l 61 0 l 1047 0 q 1202 36 1131 0 q 1321 135 1276 72 q 1367 271 1369 198 l 1367 658 q 1322 794 1369 731 q 1203 893 1279 857 q 1047 929 1130 929 l 61 929 m 315 722 l 994 722 q 1078 691 1044 724 q 1113 614 1113 661 l 1113 315 q 1078 239 1113 271 q 994 207 1044 209 l 315 207 l 315 722 m 554 998 l 284 1373 l 559 1373 l 715 1188 l 871 1373 l 1145 1373 l 876 998 l 554 998 z "},"ď":{"ha":1258,"x_min":61,"x_max":1197,"o":"m 61 811 l 61 0 l 911 0 q 1109 71 1023 0 q 1195 241 1195 142 l 1195 570 q 1109 740 1197 669 q 911 811 1024 811 l 61 811 m 301 614 l 866 614 q 929 590 903 614 q 956 532 956 567 l 956 279 q 930 221 956 245 q 866 197 903 199 l 301 197 l 301 614 m 469 880 l 199 1255 l 473 1255 l 630 1070 l 785 1255 l 1060 1255 l 790 880 l 469 880 z "},"Ē":{"ha":1270,"x_min":61,"x_max":1208,"o":"m 61 929 l 61 0 l 1208 0 l 1208 207 l 315 207 l 315 367 l 1089 367 l 1089 570 l 315 570 l 315 722 l 1208 722 l 1208 929 l 61 929 m 204 1205 l 1065 1205 l 1065 998 l 204 998 l 204 1205 z "},"ē":{"ha":1122,"x_min":61,"x_max":1061,"o":"m 61 811 l 61 0 l 1061 0 l 1061 197 l 301 197 l 301 312 l 960 312 l 960 506 l 301 506 l 301 614 l 1061 614 l 1061 811 l 61 811 m 130 1087 l 991 1087 l 991 880 l 130 880 l 130 1087 z "},"Ĕ":{"ha":1270,"x_min":61,"x_max":1208,"o":"m 61 929 l 61 0 l 1208 0 l 1208 207 l 315 207 l 315 367 l 1089 367 l 1089 570 l 315 570 l 315 722 l 1208 722 l 1208 929 l 61 929 m 204 1334 q 262 1166 204 1243 q 419 1044 321 1090 q 635 998 519 998 q 851 1043 752 998 q 1008 1166 951 1090 q 1065 1334 1065 1243 l 818 1334 q 765 1234 820 1276 q 635 1192 711 1192 q 506 1233 561 1191 q 452 1334 452 1275 l 204 1334 z "},"ĕ":{"ha":1122,"x_min":61,"x_max":1061,"o":"m 61 811 l 61 0 l 1061 0 l 1061 197 l 301 197 l 301 312 l 960 312 l 960 506 l 301 506 l 301 614 l 1061 614 l 1061 811 l 61 811 m 130 1216 q 188 1048 130 1125 q 345 926 247 972 q 562 880 445 880 q 777 925 678 880 q 934 1048 877 972 q 991 1216 991 1125 l 744 1216 q 691 1116 746 1158 q 562 1074 637 1074 q 432 1115 487 1073 q 378 1216 378 1157 l 130 1216 z "},"Ę":{"ha":1364,"x_min":61,"x_max":1303,"o":"m 61 929 l 61 0 l 1208 0 l 1208 207 l 315 207 l 315 367 l 1089 367 l 1089 570 l 315 570 l 315 722 l 1208 722 l 1208 929 l 61 929 m 1053 0 q 1010 -66 1034 -27 q 975 -120 985 -104 q 953 -273 916 -210 q 1103 -336 991 -336 l 1303 -336 l 1303 -171 l 1148 -171 q 1088 -146 1103 -171 q 1097 -84 1074 -119 l 1152 0 l 1053 0 z "},"ę":{"ha":1222,"x_min":61,"x_max":1161,"o":"m 61 811 l 61 0 l 1061 0 l 1061 197 l 301 197 l 301 312 l 960 312 l 960 506 l 301 506 l 301 614 l 1061 614 l 1061 811 l 61 811 m 911 0 q 868 -66 892 -27 q 833 -120 844 -104 q 811 -273 774 -210 q 962 -336 850 -336 l 1161 -336 l 1161 -171 l 1006 -171 q 946 -146 961 -171 q 955 -84 932 -119 l 1010 0 l 911 0 z "},"Ě":{"ha":1270,"x_min":61,"x_max":1208,"o":"m 61 929 l 61 0 l 1208 0 l 1208 207 l 315 207 l 315 367 l 1089 367 l 1089 570 l 315 570 l 315 722 l 1208 722 l 1208 929 l 61 929 m 474 998 l 204 1373 l 479 1373 l 635 1188 l 791 1373 l 1065 1373 l 795 998 l 474 998 z "},"ě":{"ha":1122,"x_min":61,"x_max":1061,"o":"m 61 811 l 61 0 l 1061 0 l 1061 197 l 301 197 l 301 312 l 960 312 l 960 506 l 301 506 l 301 614 l 1061 614 l 1061 811 l 61 811 m 400 880 l 130 1255 l 405 1255 l 562 1070 l 717 1255 l 991 1255 l 722 880 l 400 880 z "},"Ĝ":{"ha":1445,"x_min":61,"x_max":1384,"o":"m 359 929 q 148 850 235 929 q 61 658 61 770 l 61 271 q 148 79 61 159 q 359 0 235 0 l 1384 0 l 1384 547 l 814 547 l 814 351 l 1131 351 l 1131 207 l 434 207 q 349 238 384 208 q 315 315 315 271 l 315 614 q 349 690 315 661 q 434 722 384 723 l 1352 722 l 1352 929 l 359 929 m 562 1373 l 292 998 l 567 998 l 724 1183 l 879 998 l 1154 998 l 884 1373 l 562 1373 z "},"ĝ":{"ha":1271,"x_min":61,"x_max":1210,"o":"m 327 811 q 139 741 218 811 q 61 570 63 670 l 61 241 q 138 71 61 141 q 327 0 217 0 l 1210 0 l 1210 487 l 701 487 l 701 298 l 970 298 l 970 197 l 390 197 q 327 221 353 199 q 300 279 300 245 l 300 532 q 326 590 300 567 q 390 614 353 614 l 1182 614 l 1182 811 l 327 811 m 475 1255 l 205 880 l 479 880 l 636 1065 l 791 880 l 1066 880 l 796 1255 l 475 1255 z "},"Ğ":{"ha":1445,"x_min":61,"x_max":1384,"o":"m 359 929 q 148 850 235 929 q 61 658 61 770 l 61 271 q 148 79 61 159 q 359 0 235 0 l 1384 0 l 1384 547 l 814 547 l 814 351 l 1131 351 l 1131 207 l 434 207 q 349 238 384 208 q 315 315 315 271 l 315 614 q 349 690 315 661 q 434 722 384 723 l 1352 722 l 1352 929 l 359 929 m 292 1334 q 350 1166 292 1243 q 507 1044 409 1090 q 724 998 607 998 q 939 1043 840 998 q 1096 1166 1039 1090 q 1154 1334 1154 1243 l 906 1334 q 853 1234 908 1276 q 724 1192 800 1192 q 594 1233 649 1191 q 541 1334 541 1275 l 292 1334 z "},"ğ":{"ha":1271,"x_min":61,"x_max":1210,"o":"m 327 811 q 139 741 218 811 q 61 570 63 670 l 61 241 q 138 71 61 141 q 327 0 217 0 l 1210 0 l 1210 487 l 701 487 l 701 298 l 970 298 l 970 197 l 390 197 q 327 221 353 199 q 300 279 300 245 l 300 532 q 326 590 300 567 q 390 614 353 614 l 1182 614 l 1182 811 l 327 811 m 205 1216 q 262 1048 205 1125 q 420 926 321 972 q 636 880 519 880 q 852 925 753 880 q 1008 1048 951 972 q 1066 1216 1066 1125 l 819 1216 q 766 1116 821 1158 q 636 1074 712 1074 q 507 1115 562 1073 q 453 1216 453 1157 l 205 1216 z "},"Ģ":{"ha":1445,"x_min":61,"x_max":1384,"o":"m 359 929 q 148 850 235 929 q 61 658 61 770 l 61 271 q 148 79 61 159 q 359 0 235 0 l 1384 0 l 1384 547 l 814 547 l 814 351 l 1131 351 l 1131 207 l 434 207 q 349 238 384 208 q 315 315 315 271 l 315 614 q 349 690 315 661 q 434 722 384 723 l 1352 722 l 1352 929 l 359 929 m 646 -481 q 513 -431 568 -481 q 457 -309 457 -380 l 457 -307 l 614 -307 l 613 -309 l 613 -309 q 628 -340 613 -327 q 663 -353 643 -353 l 774 -353 q 813 -338 798 -353 q 829 -302 829 -323 q 814 -267 830 -281 q 774 -252 798 -252 l 646 -252 q 560 -180 560 -252 l 560 -69 l 715 -69 l 715 -106 q 752 -130 715 -131 l 789 -130 q 929 -179 872 -127 q 986 -302 986 -228 q 929 -429 988 -377 q 789 -481 872 -481 l 646 -481 z "},"ģ":{"ha":1271,"x_min":61,"x_max":1210,"o":"m 327 811 q 139 741 218 811 q 61 570 63 670 l 61 241 q 138 71 61 141 q 327 0 217 0 l 1210 0 l 1210 487 l 701 487 l 701 298 l 970 298 l 970 197 l 390 197 q 327 221 353 199 q 300 279 300 245 l 300 532 q 326 590 300 567 q 390 614 353 614 l 1182 614 l 1182 811 l 327 811 m 559 -481 q 425 -431 481 -481 q 370 -309 370 -380 l 370 -307 l 526 -307 l 526 -309 l 526 -309 q 541 -340 526 -327 q 576 -353 555 -353 l 687 -353 q 726 -338 710 -353 q 742 -302 742 -323 q 726 -267 743 -281 q 687 -252 710 -252 l 559 -252 q 473 -180 473 -252 l 473 -69 l 627 -69 l 627 -106 q 665 -130 627 -131 l 702 -130 q 842 -179 785 -127 q 899 -302 899 -228 q 842 -429 901 -377 q 702 -481 785 -481 l 559 -481 z "},"Ĥ":{"ha":1380,"x_min":61,"x_max":1319,"o":"m 61 929 l 61 0 l 315 0 l 315 374 l 1065 374 l 1065 0 l 1319 0 l 1319 929 l 1065 929 l 1065 581 l 315 581 l 315 929 l 61 929 m 530 1373 l 260 998 l 534 998 l 691 1183 l 846 998 l 1121 998 l 851 1373 l 530 1373 z "},"ĥ":{"ha":1214,"x_min":61,"x_max":1153,"o":"m 61 811 l 61 0 l 300 0 l 300 318 l 914 318 l 914 0 l 1153 0 l 1153 811 l 914 811 l 914 515 l 300 515 l 300 811 l 61 811 m 446 1255 l 176 880 l 451 880 l 608 1065 l 763 880 l 1038 880 l 768 1255 l 446 1255 z "},"Ĩ":{"ha":854,"x_min":61,"x_max":793,"o":"m 300 929 l 300 0 l 554 0 l 554 929 l 300 929 m 61 1062 l 74 1120 q 168 1269 95 1218 q 326 1295 243 1320 l 540 1232 q 603 1242 574 1222 q 641 1301 633 1263 l 793 1256 l 781 1197 q 687 1049 761 1101 q 530 1022 613 998 l 315 1086 q 252 1076 282 1096 q 214 1017 222 1055 l 61 1062 z "},"ĩ":{"ha":854,"x_min":61,"x_max":793,"o":"m 319 811 l 319 0 l 536 0 l 536 811 l 319 811 m 61 944 l 74 1002 q 168 1151 95 1100 q 326 1177 243 1202 l 540 1114 q 603 1124 574 1104 q 641 1183 633 1145 l 793 1138 l 781 1079 q 687 931 761 983 q 530 904 613 880 l 315 968 q 252 958 282 978 q 214 899 222 937 l 61 944 z "},"Ī":{"ha":983,"x_min":61,"x_max":922,"o":"m 365 929 l 365 0 l 618 0 l 618 929 l 365 929 m 61 1205 l 922 1205 l 922 998 l 61 998 l 61 1205 z "},"ī":{"ha":983,"x_min":61,"x_max":922,"o":"m 383 811 l 383 0 l 600 0 l 600 811 l 383 811 m 61 1087 l 922 1087 l 922 880 l 61 880 l 61 1087 z "},"Ĭ":{"ha":983,"x_min":61,"x_max":922,"o":"m 365 929 l 365 0 l 618 0 l 618 929 l 365 929 m 61 1334 q 119 1166 61 1243 q 276 1044 178 1090 q 492 998 376 998 q 708 1043 609 998 q 865 1166 808 1090 q 922 1334 922 1243 l 675 1334 q 622 1234 677 1276 q 492 1192 568 1192 q 363 1233 418 1191 q 309 1334 309 1275 l 61 1334 z "},"ĭ":{"ha":983,"x_min":61,"x_max":922,"o":"m 383 811 l 383 0 l 600 0 l 600 811 l 383 811 m 61 1216 q 119 1048 61 1125 q 276 926 178 972 q 492 880 376 880 q 708 925 609 880 q 865 1048 808 972 q 922 1216 922 1125 l 675 1216 q 622 1116 677 1158 q 492 1074 568 1074 q 363 1115 418 1073 q 309 1216 309 1157 l 61 1216 z "},"Į":{"ha":509,"x_min":61,"x_max":448,"o":"m 90 929 l 90 0 l 344 0 l 344 929 l 90 929 m 198 0 q 155 -66 180 -27 q 120 -120 131 -104 q 98 -273 61 -210 q 249 -336 137 -336 l 448 -336 l 448 -171 l 294 -171 q 233 -146 248 -171 q 242 -84 220 -119 l 297 0 l 198 0 z "},"į":{"ha":509,"x_min":61,"x_max":448,"o":"m 123 811 l 123 0 l 340 0 l 340 811 l 123 811 m 198 0 q 155 -66 180 -27 q 120 -120 131 -104 q 98 -273 61 -210 q 249 -336 137 -336 l 448 -336 l 448 -171 l 294 -171 q 233 -146 248 -171 q 242 -84 220 -119 l 297 0 l 198 0 z "},"Ĵ":{"ha":1132,"x_min":61,"x_max":1071,"o":"m 773 929 l 773 271 q 686 79 773 159 q 475 0 599 0 l 61 0 l 61 207 l 400 207 q 484 238 450 208 q 519 315 519 271 l 519 929 l 773 929 m 479 1373 l 210 998 l 484 998 l 641 1183 l 796 998 l 1071 998 l 801 1373 l 479 1373 z "},"ĵ":{"ha":1058,"x_min":61,"x_max":997,"o":"m 450 811 l 450 279 q 424 221 450 245 q 360 197 397 199 l 61 197 l 61 0 l 424 0 q 612 70 534 0 q 690 241 692 141 l 690 811 l 450 811 m 406 1255 l 136 880 l 410 880 l 567 1065 l 722 880 l 997 880 l 727 1255 l 406 1255 z "},"Ķ":{"ha":1463,"x_min":61,"x_max":1402,"o":"m 61 929 l 61 0 l 315 0 l 315 454 l 985 0 l 1402 0 l 641 493 l 1351 929 l 934 929 l 315 530 l 315 929 l 61 929 m 655 -481 q 522 -431 577 -481 q 466 -309 466 -380 l 466 -307 l 623 -307 l 622 -309 l 622 -309 q 637 -340 622 -327 q 672 -353 652 -353 l 783 -353 q 822 -338 806 -353 q 838 -302 838 -323 q 823 -267 839 -281 q 783 -252 806 -252 l 655 -252 q 569 -180 569 -252 l 569 -69 l 724 -69 l 724 -106 q 761 -130 724 -131 l 798 -130 q 938 -179 881 -127 q 995 -302 995 -228 q 938 -429 997 -377 q 798 -481 881 -481 l 655 -481 z "},"ķ":{"ha":1312,"x_min":61,"x_max":1251,"o":"m 61 811 l 61 0 l 301 0 l 301 375 l 855 0 l 1251 0 l 587 430 l 1208 811 l 812 811 l 301 482 l 301 811 l 61 811 m 579 -481 q 446 -431 501 -481 q 390 -309 390 -380 l 390 -307 l 547 -307 l 546 -309 l 546 -309 q 561 -340 546 -327 q 596 -353 576 -353 l 707 -353 q 746 -338 730 -353 q 762 -302 762 -323 q 747 -267 763 -281 q 707 -252 730 -252 l 579 -252 q 493 -180 493 -252 l 493 -69 l 648 -69 l 648 -106 q 685 -130 648 -131 l 722 -130 q 862 -179 805 -127 q 919 -302 919 -228 q 862 -429 921 -377 q 722 -481 805 -481 l 579 -481 z "},"Ĺ":{"ha":1221,"x_min":61,"x_max":1160,"o":"m 61 0 l 61 929 l 315 929 l 315 207 l 1160 207 l 1160 0 l 61 0 m 689 1563 l 328 1115 l 491 998 l 892 1417 l 689 1563 z "},"ĺ":{"ha":1082,"x_min":61,"x_max":1021,"o":"m 61 811 l 61 0 l 1021 0 l 1021 197 l 301 197 l 301 811 l 61 811 m 620 1444 l 259 997 l 422 880 l 823 1299 l 620 1444 z "},"Ļ":{"ha":1221,"x_min":61,"x_max":1160,"o":"m 61 0 l 61 929 l 315 929 l 315 207 l 1160 207 l 1160 0 l 61 0 m 534 -481 q 400 -431 456 -481 q 345 -309 345 -380 l 345 -307 l 501 -307 l 500 -309 l 500 -309 q 515 -340 500 -327 q 551 -353 530 -353 l 662 -353 q 701 -338 685 -353 q 717 -302 717 -323 q 701 -267 718 -281 q 662 -252 685 -252 l 534 -252 q 448 -180 448 -252 l 448 -69 l 602 -69 l 602 -106 q 640 -130 602 -131 l 677 -130 q 817 -179 760 -127 q 873 -302 873 -228 q 817 -429 876 -377 q 677 -481 760 -481 l 534 -481 z "},"ļ":{"ha":1082,"x_min":61,"x_max":1021,"o":"m 61 811 l 61 0 l 1021 0 l 1021 197 l 301 197 l 301 811 l 61 811 m 465 -481 q 331 -431 387 -481 q 275 -309 275 -380 l 275 -307 l 432 -307 l 431 -309 l 431 -309 q 446 -340 431 -327 q 481 -353 461 -353 l 593 -353 q 631 -338 616 -353 q 648 -302 648 -323 q 632 -267 648 -281 q 593 -252 616 -252 l 465 -252 q 378 -180 378 -252 l 378 -69 l 533 -69 l 533 -106 q 570 -130 533 -131 l 608 -130 q 747 -179 690 -127 q 804 -302 804 -228 q 747 -429 806 -377 q 608 -481 690 -481 l 465 -481 z "},"Ľ":{"ha":1221,"x_min":61,"x_max":1160,"o":"m 61 0 l 61 929 l 315 929 l 315 207 l 1160 207 l 1160 0 l 61 0 m 450 998 l 180 1373 l 454 1373 l 611 1188 l 766 1373 l 1041 1373 l 771 998 l 450 998 z "},"ľ":{"ha":1082,"x_min":61,"x_max":1021,"o":"m 61 811 l 61 0 l 1021 0 l 1021 197 l 301 197 l 301 811 l 61 811 m 380 880 l 111 1255 l 385 1255 l 542 1070 l 697 1255 l 972 1255 l 702 880 l 380 880 z "},"Ń":{"ha":1433,"x_min":61,"x_max":1372,"o":"m 61 929 l 61 0 l 315 0 l 315 652 l 1118 0 l 1372 0 l 1372 929 l 1118 929 l 1118 277 l 315 929 l 61 929 m 795 1563 l 434 1115 l 597 998 l 998 1417 l 795 1563 z "},"ń":{"ha":1261,"x_min":61,"x_max":1200,"o":"m 61 811 l 61 0 l 300 0 l 300 541 l 967 0 l 1200 0 l 1200 811 l 960 811 l 960 271 l 293 811 l 61 811 m 709 1444 l 349 997 l 511 880 l 913 1299 l 709 1444 z "},"Ņ":{"ha":1433,"x_min":61,"x_max":1372,"o":"m 61 929 l 61 0 l 315 0 l 315 652 l 1118 0 l 1372 0 l 1372 929 l 1118 929 l 1118 277 l 315 929 l 61 929 m 640 -481 q 506 -431 562 -481 q 450 -309 450 -380 l 450 -307 l 607 -307 l 606 -309 l 606 -309 q 621 -340 606 -327 q 656 -353 636 -353 l 768 -353 q 806 -338 791 -353 q 823 -302 823 -323 q 807 -267 823 -281 q 768 -252 791 -252 l 640 -252 q 553 -180 553 -252 l 553 -69 l 708 -69 l 708 -106 q 745 -130 708 -131 l 783 -130 q 922 -179 865 -127 q 979 -302 979 -228 q 922 -429 981 -377 q 783 -481 865 -481 l 640 -481 z "},"ņ":{"ha":1261,"x_min":61,"x_max":1200,"o":"m 61 811 l 61 0 l 300 0 l 300 541 l 967 0 l 1200 0 l 1200 811 l 960 811 l 960 271 l 293 811 l 61 811 m 554 -481 q 420 -431 476 -481 q 365 -309 365 -380 l 365 -307 l 522 -307 l 521 -309 l 521 -309 q 536 -340 521 -327 q 571 -353 551 -353 l 682 -353 q 721 -338 705 -353 q 737 -302 737 -323 q 722 -267 738 -281 q 682 -252 705 -252 l 554 -252 q 468 -180 468 -252 l 468 -69 l 623 -69 l 623 -106 q 660 -130 623 -131 l 697 -130 q 837 -179 780 -127 q 894 -302 894 -228 q 837 -429 896 -377 q 697 -481 780 -481 l 554 -481 z "},"Ň":{"ha":1433,"x_min":61,"x_max":1372,"o":"m 61 929 l 61 0 l 315 0 l 315 652 l 1118 0 l 1372 0 l 1372 929 l 1118 929 l 1118 277 l 315 929 l 61 929 m 555 998 l 286 1373 l 560 1373 l 717 1188 l 872 1373 l 1147 1373 l 877 998 l 555 998 z "},"ň":{"ha":1261,"x_min":61,"x_max":1200,"o":"m 61 811 l 61 0 l 300 0 l 300 541 l 967 0 l 1200 0 l 1200 811 l 960 811 l 960 271 l 293 811 l 61 811 m 470 880 l 200 1255 l 475 1255 l 631 1070 l 787 1255 l 1061 1255 l 791 880 l 470 880 z "},"Ō":{"ha":1446,"x_min":61,"x_max":1385,"o":"m 359 929 q 148 850 235 929 q 61 658 61 770 l 61 271 q 148 79 61 159 q 359 0 235 0 l 1086 0 q 1297 79 1211 0 q 1384 271 1385 159 l 1384 658 q 1297 850 1385 770 q 1086 929 1211 929 l 359 929 m 434 722 l 1011 722 q 1096 691 1062 724 q 1131 614 1131 661 l 1131 315 q 1096 239 1131 271 q 1011 207 1062 209 l 434 207 q 349 238 384 208 q 315 315 315 271 l 315 614 q 349 690 315 661 q 434 722 384 723 m 292 1205 l 1154 1205 l 1154 998 l 292 998 l 292 1205 z "},"ō":{"ha":1273,"x_min":61,"x_max":1212,"o":"m 326 811 q 139 741 218 811 q 61 570 63 670 l 61 241 q 138 71 61 141 q 326 0 218 0 l 944 0 q 1132 70 1056 0 q 1210 241 1211 141 l 1210 570 q 1133 741 1212 670 q 944 811 1055 811 l 326 811 m 390 614 l 881 614 q 944 590 918 614 q 970 532 970 567 l 970 279 q 945 221 971 245 q 881 197 920 199 l 390 197 q 327 221 353 199 q 300 279 300 245 l 300 532 q 326 590 300 567 q 390 614 353 614 m 205 1087 l 1067 1087 l 1067 880 l 205 880 l 205 1087 z "},"Ŏ":{"ha":1446,"x_min":61,"x_max":1385,"o":"m 359 929 q 148 850 235 929 q 61 658 61 770 l 61 271 q 148 79 61 159 q 359 0 235 0 l 1086 0 q 1297 79 1211 0 q 1384 271 1385 159 l 1384 658 q 1297 850 1385 770 q 1086 929 1211 929 l 359 929 m 434 722 l 1011 722 q 1096 691 1062 724 q 1131 614 1131 661 l 1131 315 q 1096 239 1131 271 q 1011 207 1062 209 l 434 207 q 349 238 384 208 q 315 315 315 271 l 315 614 q 349 690 315 661 q 434 722 384 723 m 292 1334 q 350 1166 292 1243 q 507 1044 409 1090 q 724 998 607 998 q 939 1043 840 998 q 1096 1166 1039 1090 q 1154 1334 1154 1243 l 906 1334 q 853 1234 908 1276 q 724 1192 800 1192 q 594 1233 649 1191 q 541 1334 541 1275 l 292 1334 z "},"ŏ":{"ha":1273,"x_min":61,"x_max":1212,"o":"m 326 811 q 139 741 218 811 q 61 570 63 670 l 61 241 q 138 71 61 141 q 326 0 218 0 l 944 0 q 1132 70 1056 0 q 1210 241 1211 141 l 1210 570 q 1133 741 1212 670 q 944 811 1055 811 l 326 811 m 390 614 l 881 614 q 944 590 918 614 q 970 532 970 567 l 970 279 q 945 221 971 245 q 881 197 920 199 l 390 197 q 327 221 353 199 q 300 279 300 245 l 300 532 q 326 590 300 567 q 390 614 353 614 m 205 1216 q 263 1048 205 1125 q 420 926 322 972 q 637 880 520 880 q 852 925 753 880 q 1009 1048 952 972 q 1067 1216 1067 1125 l 819 1216 q 766 1116 821 1158 q 637 1074 713 1074 q 507 1115 562 1073 q 454 1216 454 1157 l 205 1216 z "},"Ő":{"ha":1446,"x_min":61,"x_max":1385,"o":"m 359 929 q 148 850 235 929 q 61 658 61 770 l 61 271 q 148 79 61 159 q 359 0 235 0 l 1086 0 q 1297 79 1211 0 q 1384 271 1385 159 l 1384 658 q 1297 850 1385 770 q 1086 929 1211 929 l 359 929 m 434 722 l 1011 722 q 1096 691 1062 724 q 1131 614 1131 661 l 1131 315 q 1096 239 1131 271 q 1011 207 1062 209 l 434 207 q 349 238 384 208 q 315 315 315 271 l 315 614 q 349 690 315 661 q 434 722 384 723 m 509 1563 l 148 1115 l 311 998 l 712 1417 l 509 1563 m 1095 1563 l 734 1115 l 897 998 l 1298 1417 l 1095 1563 z "},"ő":{"ha":1273,"x_min":61,"x_max":1212,"o":"m 326 811 q 139 741 218 811 q 61 570 63 670 l 61 241 q 138 71 61 141 q 326 0 218 0 l 944 0 q 1132 70 1056 0 q 1210 241 1211 141 l 1210 570 q 1133 741 1212 670 q 944 811 1055 811 l 326 811 m 390 614 l 881 614 q 944 590 918 614 q 970 532 970 567 l 970 279 q 945 221 971 245 q 881 197 920 199 l 390 197 q 327 221 353 199 q 300 279 300 245 l 300 532 q 326 590 300 567 q 390 614 353 614 m 422 1444 l 61 997 l 224 880 l 625 1299 l 422 1444 m 1008 1444 l 647 997 l 810 880 l 1211 1299 l 1008 1444 z "},"Ŕ":{"ha":1374,"x_min":61,"x_max":1313,"o":"m 61 929 l 61 0 l 315 0 l 315 337 l 739 337 l 1018 0 l 1313 0 l 1010 340 q 1217 436 1134 355 q 1299 633 1299 519 q 1204 842 1299 755 q 973 929 1108 929 l 61 929 m 315 722 l 949 722 q 1020 697 994 724 q 1048 632 1048 673 q 1020 567 1048 593 q 949 541 994 541 l 315 542 l 315 722 m 766 1563 l 405 1115 l 568 998 l 969 1417 l 766 1563 z "},"ŕ":{"ha":1223,"x_min":61,"x_max":1162,"o":"m 61 811 l 61 0 l 300 0 l 300 286 l 643 286 l 881 0 l 1162 0 l 903 292 q 1071 381 1004 311 q 1138 549 1138 454 q 1053 734 1138 659 q 849 811 970 811 l 61 811 m 300 614 l 828 614 q 881 596 863 614 q 901 548 901 578 q 881 500 901 518 q 828 481 863 481 q 300 481 751 481 l 300 614 m 690 1444 l 330 997 l 492 880 l 894 1299 l 690 1444 z "},"Ŗ":{"ha":1374,"x_min":61,"x_max":1313,"o":"m 61 929 l 61 0 l 315 0 l 315 337 l 739 337 l 1018 0 l 1313 0 l 1010 340 q 1217 436 1134 355 q 1299 633 1299 519 q 1204 842 1299 755 q 973 929 1108 929 l 61 929 m 315 722 l 949 722 q 1020 697 994 724 q 1048 632 1048 673 q 1020 567 1048 593 q 949 541 994 541 l 315 542 l 315 722 m 610 -481 q 477 -431 532 -481 q 421 -309 421 -380 l 421 -307 l 578 -307 l 577 -309 l 577 -309 q 592 -340 577 -327 q 627 -353 607 -353 l 739 -353 q 777 -338 762 -353 q 793 -302 793 -323 q 778 -267 794 -281 q 739 -252 762 -252 l 610 -252 q 524 -180 524 -252 l 524 -69 l 679 -69 l 679 -106 q 716 -130 679 -131 l 753 -130 q 893 -179 836 -127 q 950 -302 950 -228 q 893 -429 952 -377 q 753 -481 836 -481 l 610 -481 z "},"ŗ":{"ha":1223,"x_min":61,"x_max":1162,"o":"m 61 811 l 61 0 l 300 0 l 300 286 l 643 286 l 881 0 l 1162 0 l 903 292 q 1071 381 1004 311 q 1138 549 1138 454 q 1053 734 1138 659 q 849 811 970 811 l 61 811 m 300 614 l 828 614 q 881 596 863 614 q 901 548 901 578 q 881 500 901 518 q 828 481 863 481 q 300 481 751 481 l 300 614 m 535 -481 q 401 -431 457 -481 q 346 -309 346 -380 l 346 -307 l 503 -307 l 502 -309 l 502 -309 q 517 -340 502 -327 q 552 -353 532 -353 l 663 -353 q 702 -338 686 -353 q 718 -302 718 -323 q 703 -267 719 -281 q 663 -252 686 -252 l 535 -252 q 449 -180 449 -252 l 449 -69 l 604 -69 l 604 -106 q 641 -130 604 -131 l 678 -130 q 818 -179 761 -127 q 875 -302 875 -228 q 818 -429 877 -377 q 678 -481 761 -481 l 535 -481 z "},"Ř":{"ha":1374,"x_min":61,"x_max":1313,"o":"m 61 929 l 61 0 l 315 0 l 315 337 l 739 337 l 1018 0 l 1313 0 l 1010 340 q 1217 436 1134 355 q 1299 633 1299 519 q 1204 842 1299 755 q 973 929 1108 929 l 61 929 m 315 722 l 949 722 q 1020 697 994 724 q 1048 632 1048 673 q 1020 567 1048 593 q 949 541 994 541 l 315 542 l 315 722 m 526 998 l 256 1373 l 531 1373 l 688 1188 l 843 1373 l 1118 1373 l 848 998 l 526 998 z "},"ř":{"ha":1223,"x_min":61,"x_max":1162,"o":"m 61 811 l 61 0 l 300 0 l 300 286 l 643 286 l 881 0 l 1162 0 l 903 292 q 1071 381 1004 311 q 1138 549 1138 454 q 1053 734 1138 659 q 849 811 970 811 l 61 811 m 300 614 l 828 614 q 881 596 863 614 q 901 548 901 578 q 881 500 901 518 q 828 481 863 481 q 300 481 751 481 l 300 614 m 451 880 l 181 1255 l 456 1255 l 612 1070 l 768 1255 l 1042 1255 l 772 880 l 451 880 z "},"Ś":{"ha":1371,"x_min":61,"x_max":1310,"o":"m 370 929 q 153 844 241 925 q 63 648 63 765 q 153 450 63 533 q 370 368 242 369 l 968 368 q 1031 344 1005 368 q 1058 286 1058 320 q 1032 228 1058 252 q 968 204 1006 206 l 388 204 q 325 229 351 204 q 298 287 298 253 l 298 288 l 61 288 q 153 84 61 168 q 377 0 247 0 l 992 0 q 1215 84 1124 0 q 1308 288 1309 168 q 1216 492 1310 408 q 992 577 1124 578 q 704 577 899 579 q 415 576 509 576 q 360 597 382 576 q 337 648 338 618 q 359 699 337 678 q 415 720 382 722 l 943 720 q 1000 699 978 722 q 1023 648 1023 679 q 1022 644 1024 648 l 1022 644 l 1269 644 l 1269 648 q 1179 847 1269 765 q 962 929 1090 929 l 370 929 m 764 1563 l 404 1115 l 566 998 l 968 1417 l 764 1563 z "},"ś":{"ha":1208,"x_min":61,"x_max":1147,"o":"m 333 811 l 332 811 q 142 735 221 807 q 63 562 63 664 q 143 386 64 459 q 336 313 224 313 l 845 313 q 890 296 872 315 q 909 254 909 278 q 891 212 910 229 q 845 195 872 195 l 351 195 q 306 212 325 195 q 287 254 288 231 l 287 260 l 61 260 l 61 256 q 143 75 61 150 q 341 0 225 0 l 865 0 q 1063 75 982 0 q 1145 256 1147 150 q 1063 437 1147 362 q 865 512 982 512 q 621 512 787 514 q 375 511 454 511 q 336 526 353 511 q 320 562 320 541 q 336 597 320 583 q 375 612 353 612 l 823 612 q 863 597 846 612 q 878 562 879 585 q 878 557 878 560 l 1112 557 l 1112 562 q 1031 738 1112 666 q 839 811 952 811 l 336 811 l 336 811 l 333 811 m 683 1444 l 322 997 l 485 880 l 886 1299 l 683 1444 z "},"Ŝ":{"ha":1371,"x_min":61,"x_max":1310,"o":"m 370 929 q 153 844 241 925 q 63 648 63 765 q 153 450 63 533 q 370 368 242 369 l 968 368 q 1031 344 1005 368 q 1058 286 1058 320 q 1032 228 1058 252 q 968 204 1006 206 l 388 204 q 325 229 351 204 q 298 287 298 253 l 298 288 l 61 288 q 153 84 61 168 q 377 0 247 0 l 992 0 q 1215 84 1124 0 q 1308 288 1309 168 q 1216 492 1310 408 q 992 577 1124 578 q 704 577 899 579 q 415 576 509 576 q 360 597 382 576 q 337 648 338 618 q 359 699 337 678 q 415 720 382 722 l 943 720 q 1000 699 978 722 q 1023 648 1023 679 q 1022 644 1024 648 l 1022 644 l 1269 644 l 1269 648 q 1179 847 1269 765 q 962 929 1090 929 l 370 929 m 525 1373 l 255 998 l 530 998 l 686 1183 l 842 998 l 1116 998 l 846 1373 l 525 1373 z "},"ŝ":{"ha":1208,"x_min":61,"x_max":1147,"o":"m 333 811 l 332 811 q 142 735 221 807 q 63 562 63 664 q 143 386 64 459 q 336 313 224 313 l 845 313 q 890 296 872 315 q 909 254 909 278 q 891 212 910 229 q 845 195 872 195 l 351 195 q 306 212 325 195 q 287 254 288 231 l 287 260 l 61 260 l 61 256 q 143 75 61 150 q 341 0 225 0 l 865 0 q 1063 75 982 0 q 1145 256 1147 150 q 1063 437 1147 362 q 865 512 982 512 q 621 512 787 514 q 375 511 454 511 q 336 526 353 511 q 320 562 320 541 q 336 597 320 583 q 375 612 353 612 l 823 612 q 863 597 846 612 q 878 562 879 585 q 878 557 878 560 l 1112 557 l 1112 562 q 1031 738 1112 666 q 839 811 952 811 l 336 811 l 336 811 l 333 811 m 444 1255 l 174 880 l 448 880 l 605 1065 l 760 880 l 1035 880 l 765 1255 l 444 1255 z "},"Ş":{"ha":1371,"x_min":61,"x_max":1310,"o":"m 370 929 q 153 844 241 925 q 63 648 63 765 q 153 450 63 533 q 370 368 242 369 l 968 368 q 1031 344 1005 368 q 1058 286 1058 320 q 1032 228 1058 252 q 968 204 1006 206 l 388 204 q 325 229 351 204 q 298 287 298 253 l 298 288 l 61 288 q 153 84 61 168 q 377 0 247 0 l 992 0 q 1215 84 1124 0 q 1308 288 1309 168 q 1216 492 1310 408 q 992 577 1124 578 q 704 577 899 579 q 415 576 509 576 q 360 597 382 576 q 337 648 338 618 q 359 699 337 678 q 415 720 382 722 l 943 720 q 1000 699 978 722 q 1023 648 1023 679 q 1022 644 1024 648 l 1022 644 l 1269 644 l 1269 648 q 1179 847 1269 765 q 962 929 1090 929 l 370 929 m 609 -481 q 475 -431 531 -481 q 420 -309 420 -380 l 420 -307 l 576 -307 l 576 -309 l 576 -309 q 591 -340 576 -327 q 626 -353 606 -353 l 737 -353 q 776 -338 760 -353 q 792 -302 792 -323 q 777 -267 793 -281 q 737 -252 760 -252 l 609 -252 q 523 -180 523 -252 l 523 -69 l 677 -69 l 677 -106 q 715 -130 677 -131 l 752 -130 q 892 -179 835 -127 q 949 -302 949 -228 q 892 -429 951 -377 q 752 -481 835 -481 l 609 -481 z "},"ş":{"ha":1208,"x_min":61,"x_max":1147,"o":"m 333 811 l 332 811 q 142 735 221 807 q 63 562 63 664 q 143 386 64 459 q 336 313 224 313 l 845 313 q 890 296 872 315 q 909 254 909 278 q 891 212 910 229 q 845 195 872 195 l 351 195 q 306 212 325 195 q 287 254 288 231 l 287 260 l 61 260 l 61 256 q 143 75 61 150 q 341 0 225 0 l 865 0 q 1063 75 982 0 q 1145 256 1147 150 q 1063 437 1147 362 q 865 512 982 512 q 621 512 787 514 q 375 511 454 511 q 336 526 353 511 q 320 562 320 541 q 336 597 320 583 q 375 612 353 612 l 823 612 q 863 597 846 612 q 878 562 879 585 q 878 557 878 560 l 1112 557 l 1112 562 q 1031 738 1112 666 q 839 811 952 811 l 336 811 l 336 811 l 333 811 m 528 -481 q 394 -431 450 -481 q 338 -309 338 -380 l 338 -307 l 495 -307 l 494 -309 l 494 -309 q 509 -340 494 -327 q 545 -353 524 -353 l 656 -353 q 694 -338 679 -353 q 711 -302 711 -323 q 695 -267 711 -281 q 656 -252 679 -252 l 528 -252 q 441 -180 441 -252 l 441 -69 l 596 -69 l 596 -106 q 633 -130 596 -131 l 671 -130 q 810 -179 753 -127 q 867 -302 867 -228 q 810 -429 869 -377 q 671 -481 753 -481 l 528 -481 z "},"Ţ":{"ha":1338,"x_min":61,"x_max":1277,"o":"m 61 929 l 61 722 l 542 722 l 542 0 l 795 0 l 795 722 l 1277 722 l 1277 929 l 61 929 m 592 -481 q 458 -431 514 -481 q 403 -309 403 -380 l 403 -307 l 559 -307 l 559 -309 l 559 -309 q 574 -340 559 -327 q 609 -353 589 -353 l 720 -353 q 759 -338 743 -353 q 775 -302 775 -323 q 760 -267 776 -281 q 720 -252 743 -252 l 592 -252 q 506 -180 506 -252 l 506 -69 l 661 -69 l 661 -106 q 698 -130 661 -131 l 735 -130 q 875 -179 818 -127 q 932 -302 932 -228 q 875 -429 934 -377 q 735 -481 818 -481 l 592 -481 z "},"ţ":{"ha":1180,"x_min":61,"x_max":1119,"o":"m 61 811 l 61 614 l 471 614 l 471 0 l 709 0 l 709 614 l 1119 614 l 1119 811 l 61 811 m 513 -481 q 380 -431 435 -481 q 324 -309 324 -380 l 324 -307 l 481 -307 l 480 -309 l 480 -309 q 495 -340 480 -327 q 530 -353 510 -353 l 642 -353 q 680 -338 665 -353 q 696 -302 696 -323 q 681 -267 697 -281 q 642 -252 665 -252 l 513 -252 q 427 -180 427 -252 l 427 -69 l 582 -69 l 582 -106 q 619 -130 582 -131 l 656 -130 q 796 -179 739 -127 q 853 -302 853 -228 q 796 -429 855 -377 q 656 -481 739 -481 l 513 -481 z "},"Ť":{"ha":1338,"x_min":61,"x_max":1277,"o":"m 61 929 l 61 722 l 542 722 l 542 0 l 795 0 l 795 722 l 1277 722 l 1277 929 l 61 929 m 508 998 l 238 1373 l 513 1373 l 669 1188 l 825 1373 l 1099 1373 l 829 998 l 508 998 z "},"ť":{"ha":1180,"x_min":61,"x_max":1119,"o":"m 61 811 l 61 614 l 471 614 l 471 0 l 709 0 l 709 614 l 1119 614 l 1119 811 l 61 811 m 429 880 l 159 1255 l 434 1255 l 591 1070 l 746 1255 l 1021 1255 l 751 880 l 429 880 z "},"Ũ":{"ha":1386,"x_min":61,"x_max":1325,"o":"m 61 929 l 61 271 q 148 79 61 159 q 359 0 235 0 l 1026 0 q 1238 79 1151 0 q 1324 271 1325 159 l 1324 929 l 1071 929 l 1071 315 q 1036 239 1071 271 q 951 207 1002 209 l 434 207 q 349 238 384 208 q 315 315 315 271 l 315 929 l 61 929 m 327 1062 l 340 1120 q 434 1269 361 1218 q 591 1295 509 1320 l 806 1232 q 869 1242 840 1222 q 907 1301 899 1263 l 1059 1256 l 1047 1197 q 953 1049 1027 1101 q 795 1022 879 998 l 581 1086 q 518 1076 548 1096 q 480 1017 488 1055 l 327 1062 z "},"ũ":{"ha":1222,"x_min":61,"x_max":1161,"o":"m 61 811 l 61 241 q 138 71 61 142 q 327 0 217 0 l 894 0 q 1082 71 1006 0 q 1160 241 1161 142 l 1160 811 l 920 811 l 920 279 q 894 221 921 245 q 830 197 868 199 l 390 197 q 327 221 353 199 q 300 279 300 245 l 300 811 l 61 811 m 245 944 l 258 1002 q 352 1151 279 1100 q 509 1177 427 1202 l 724 1114 q 787 1124 758 1104 q 825 1183 817 1145 l 977 1138 l 965 1079 q 871 931 945 983 q 713 904 797 880 l 498 968 q 436 958 466 978 q 398 899 406 937 l 245 944 z "},"Ū":{"ha":1386,"x_min":61,"x_max":1325,"o":"m 61 929 l 61 271 q 148 79 61 159 q 359 0 235 0 l 1026 0 q 1238 79 1151 0 q 1324 271 1325 159 l 1324 929 l 1071 929 l 1071 315 q 1036 239 1071 271 q 951 207 1002 209 l 434 207 q 349 238 384 208 q 315 315 315 271 l 315 929 l 61 929 m 262 1205 l 1124 1205 l 1124 998 l 262 998 l 262 1205 z "},"ū":{"ha":1222,"x_min":61,"x_max":1161,"o":"m 61 811 l 61 241 q 138 71 61 142 q 327 0 217 0 l 894 0 q 1082 71 1006 0 q 1160 241 1161 142 l 1160 811 l 920 811 l 920 279 q 894 221 921 245 q 830 197 868 199 l 390 197 q 327 221 353 199 q 300 279 300 245 l 300 811 l 61 811 m 180 1087 l 1042 1087 l 1042 880 l 180 880 l 180 1087 z "},"Ŭ":{"ha":1386,"x_min":61,"x_max":1325,"o":"m 61 929 l 61 271 q 148 79 61 159 q 359 0 235 0 l 1026 0 q 1238 79 1151 0 q 1324 271 1325 159 l 1324 929 l 1071 929 l 1071 315 q 1036 239 1071 271 q 951 207 1002 209 l 434 207 q 349 238 384 208 q 315 315 315 271 l 315 929 l 61 929 m 262 1334 q 320 1166 262 1243 q 477 1044 379 1090 q 694 998 577 998 q 909 1043 810 998 q 1066 1166 1009 1090 q 1124 1334 1124 1243 l 876 1334 q 823 1234 878 1276 q 694 1192 770 1192 q 564 1233 619 1191 q 511 1334 511 1275 l 262 1334 z "},"ŭ":{"ha":1222,"x_min":61,"x_max":1161,"o":"m 61 811 l 61 241 q 138 71 61 142 q 327 0 217 0 l 894 0 q 1082 71 1006 0 q 1160 241 1161 142 l 1160 811 l 920 811 l 920 279 q 894 221 921 245 q 830 197 868 199 l 390 197 q 327 221 353 199 q 300 279 300 245 l 300 811 l 61 811 m 180 1216 q 238 1048 180 1125 q 395 926 297 972 q 612 880 495 880 q 827 925 728 880 q 984 1048 927 972 q 1042 1216 1042 1125 l 794 1216 q 741 1116 796 1158 q 612 1074 688 1074 q 482 1115 537 1073 q 429 1216 429 1157 l 180 1216 z "},"Ů":{"ha":1386,"x_min":61,"x_max":1325,"o":"m 61 929 l 61 271 q 148 79 61 159 q 359 0 235 0 l 1026 0 q 1238 79 1151 0 q 1324 271 1325 159 l 1324 929 l 1071 929 l 1071 315 q 1036 239 1071 271 q 951 207 1002 209 l 434 207 q 349 238 384 208 q 315 315 315 271 l 315 929 l 61 929 m 557 1491 q 444 1448 490 1491 q 397 1344 397 1405 l 397 1144 q 444 1041 397 1084 q 557 998 490 998 l 831 998 q 943 1040 897 998 q 989 1144 989 1083 l 989 1344 q 943 1448 989 1405 q 831 1491 897 1491 l 557 1491 m 598 1366 l 788 1366 q 828 1351 812 1367 q 844 1314 844 1336 l 844 1175 q 828 1137 844 1153 q 788 1122 812 1122 l 598 1122 q 558 1137 574 1122 q 542 1175 542 1153 l 542 1314 q 558 1350 542 1336 q 598 1366 574 1366 z "},"ů":{"ha":1222,"x_min":61,"x_max":1161,"o":"m 61 811 l 61 241 q 138 71 61 142 q 327 0 217 0 l 894 0 q 1082 71 1006 0 q 1160 241 1161 142 l 1160 811 l 920 811 l 920 279 q 894 221 921 245 q 830 197 868 199 l 390 197 q 327 221 353 199 q 300 279 300 245 l 300 811 l 61 811 m 475 1373 q 361 1330 408 1373 q 315 1226 315 1287 l 315 1026 q 361 923 315 966 q 475 880 408 880 l 749 880 q 861 922 815 880 q 907 1026 907 965 l 907 1226 q 861 1330 907 1287 q 749 1373 815 1373 l 475 1373 m 516 1248 l 706 1248 q 746 1233 730 1249 q 762 1196 762 1218 l 762 1057 q 746 1019 762 1035 q 706 1004 730 1004 l 516 1004 q 476 1019 492 1004 q 460 1057 460 1035 l 460 1196 q 476 1232 460 1218 q 516 1248 492 1248 z "},"Ű":{"ha":1386,"x_min":61,"x_max":1325,"o":"m 61 929 l 61 271 q 148 79 61 159 q 359 0 235 0 l 1026 0 q 1238 79 1151 0 q 1324 271 1325 159 l 1324 929 l 1071 929 l 1071 315 q 1036 239 1071 271 q 951 207 1002 209 l 434 207 q 349 238 384 208 q 315 315 315 271 l 315 929 l 61 929 m 479 1563 l 118 1115 l 281 998 l 682 1417 l 479 1563 m 1065 1563 l 704 1115 l 867 998 l 1268 1417 l 1065 1563 z "},"ű":{"ha":1272,"x_min":61,"x_max":1211,"o":"m 86 811 l 86 241 q 163 71 86 142 q 352 0 242 0 l 919 0 q 1107 71 1031 0 q 1185 241 1186 142 l 1185 811 l 945 811 l 945 279 q 919 221 946 245 q 855 197 893 199 l 415 197 q 352 221 378 199 q 326 279 326 245 l 326 811 l 86 811 m 422 1444 l 61 997 l 224 880 l 625 1299 l 422 1444 m 1008 1444 l 647 997 l 810 880 l 1211 1299 l 1008 1444 z "},"Ų":{"ha":1386,"x_min":61,"x_max":1325,"o":"m 61 929 l 61 271 q 148 79 61 159 q 359 0 235 0 l 1026 0 q 1238 79 1151 0 q 1324 271 1325 159 l 1324 929 l 1071 929 l 1071 315 q 1036 239 1071 271 q 951 207 1002 209 l 434 207 q 349 238 384 208 q 315 315 315 271 l 315 929 l 61 929 m 863 0 q 820 -66 844 -27 q 785 -120 795 -104 q 763 -273 726 -210 q 913 -336 802 -336 l 1113 -336 l 1113 -171 l 958 -171 q 898 -146 913 -171 q 907 -84 884 -119 l 962 0 l 863 0 z "},"ų":{"ha":1222,"x_min":61,"x_max":1161,"o":"m 61 811 l 61 241 q 138 71 61 142 q 327 0 217 0 l 894 0 q 1082 71 1006 0 q 1160 241 1161 142 l 1160 811 l 920 811 l 920 279 q 894 221 921 245 q 830 197 868 199 l 390 197 q 327 221 353 199 q 300 279 300 245 l 300 811 l 61 811 m 730 0 q 687 -66 711 -27 q 652 -120 663 -104 q 630 -273 593 -210 q 781 -336 669 -336 l 980 -336 l 980 -171 l 825 -171 q 765 -146 780 -171 q 774 -84 751 -119 l 829 0 l 730 0 z "},"Ŵ":{"ha":2022,"x_min":61,"x_max":1961,"o":"m 27 929 l 440 0 l 693 0 l 977 614 l 1261 0 l 1514 0 l 1927 929 l 1652 929 l 1377 307 l 1104 922 l 850 922 l 576 307 l 302 929 l 27 929 m 795 1373 l 526 998 l 800 998 l 957 1183 l 1112 998 l 1387 998 l 1117 1373 l 795 1373 z "},"ŵ":{"ha":1773,"x_min":61,"x_max":1712,"o":"m 27 811 l 388 0 l 619 0 l 852 505 l 1086 0 l 1317 0 l 1678 811 l 1419 811 l 1193 301 l 968 805 l 737 805 l 512 301 l 286 811 l 27 811 m 671 1255 l 401 880 l 676 880 l 833 1065 l 988 880 l 1263 880 l 993 1255 l 671 1255 z "},"Ŷ":{"ha":1659,"x_min":61,"x_max":1598,"o":"m 20 929 l 662 336 l 662 0 l 916 0 l 916 336 l 1557 929 l 1183 929 l 789 538 l 395 929 l 20 929 m 614 1373 l 345 998 l 619 998 l 776 1183 l 931 998 l 1206 998 l 936 1373 l 614 1373 z "},"ŷ":{"ha":1485,"x_min":61,"x_max":1423,"o":"m 20 811 l 582 292 l 582 0 l 821 0 l 821 292 l 1383 811 l 1031 811 l 701 484 l 372 811 l 20 811 m 527 1255 l 257 880 l 532 880 l 688 1065 l 844 880 l 1118 880 l 848 1255 l 527 1255 z "},"Ź":{"ha":1390,"x_min":61,"x_max":1329,"o":"m 93 929 l 93 722 l 884 722 l 61 168 l 61 0 l 1329 0 l 1329 207 l 478 207 l 1297 760 l 1297 929 l 93 929 m 774 1563 l 413 1115 l 576 998 l 977 1417 l 774 1563 z "},"ź":{"ha":1223,"x_min":61,"x_max":1162,"o":"m 87 811 l 87 614 l 735 614 l 65 162 l 61 159 l 61 0 l 1162 0 l 1162 197 l 463 197 l 1135 652 l 1135 811 l 87 811 m 690 1444 l 330 997 l 492 880 l 894 1299 l 690 1444 z "},"Ơ":{"ha":1885,"x_min":61,"x_max":1824,"o":"m 359 929 q 148 850 235 929 q 61 658 61 770 l 61 271 q 148 79 61 159 q 359 0 235 0 l 1086 0 q 1297 79 1211 0 q 1384 271 1385 159 l 1384 658 q 1297 850 1385 770 q 1086 929 1211 929 l 359 929 m 434 722 l 1011 722 q 1096 691 1062 724 q 1131 614 1131 661 l 1131 315 q 1096 239 1131 271 q 1011 207 1062 209 l 434 207 q 349 238 384 208 q 315 315 315 271 l 315 614 q 349 690 315 661 q 434 722 384 723 m 1570 929 l 1455 525 l 1656 525 l 1824 929 l 1570 929 z "},"ơ":{"ha":1718,"x_min":61,"x_max":1657,"o":"m 326 811 q 139 741 218 811 q 61 570 63 670 l 61 241 q 138 71 61 141 q 326 0 218 0 l 944 0 q 1132 70 1056 0 q 1210 241 1211 141 l 1210 570 q 1133 741 1212 670 q 944 811 1055 811 l 326 811 m 390 614 l 881 614 q 944 590 918 614 q 970 532 970 567 l 970 279 q 945 221 971 245 q 881 197 920 199 l 390 197 q 327 221 353 199 q 300 279 300 245 l 300 532 q 326 590 300 567 q 390 614 353 614 m 1403 811 l 1288 407 l 1489 407 l 1657 811 l 1403 811 z "},"Ư":{"ha":1386,"x_min":61,"x_max":1325,"o":"m 61 929 l 61 271 q 148 79 61 159 q 359 0 235 0 l 1026 0 q 1238 79 1151 0 q 1324 271 1325 159 l 1324 929 l 1071 929 l 1071 315 q 1036 239 1071 271 q 951 207 1002 209 l 434 207 q 349 238 384 208 q 315 315 315 271 l 315 929 l 61 929 m 624 1402 l 509 998 l 710 998 l 878 1402 l 624 1402 z "},"ư":{"ha":1222,"x_min":61,"x_max":1161,"o":"m 61 811 l 61 241 q 138 71 61 142 q 327 0 217 0 l 894 0 q 1082 71 1006 0 q 1160 241 1161 142 l 1160 811 l 920 811 l 920 279 q 894 221 921 245 q 830 197 868 199 l 390 197 q 327 221 353 199 q 300 279 300 245 l 300 811 l 61 811 m 542 1284 l 427 880 l 628 880 l 795 1284 l 542 1284 z "},"Ǎ":{"ha":1554,"x_min":61,"x_max":1493,"o":"m 610 929 l 20 0 l 293 0 l 422 203 l 1051 203 l 1179 0 l 1453 0 l 863 929 l 610 929 m 737 699 l 926 400 l 547 400 l 737 699 m 562 998 l 292 1373 l 567 1373 l 724 1188 l 879 1373 l 1154 1373 l 884 998 l 562 998 z "},"ǎ":{"ha":1380,"x_min":61,"x_max":1319,"o":"m 536 811 l 20 0 l 279 0 l 390 173 l 910 173 l 1019 0 l 1278 0 l 763 811 l 536 811 m 650 583 l 791 361 l 509 361 l 650 583 m 475 880 l 205 1255 l 480 1255 l 637 1070 l 792 1255 l 1067 1255 l 797 880 l 475 880 z "},"Ǐ":{"ha":983,"x_min":61,"x_max":922,"o":"m 365 929 l 365 0 l 618 0 l 618 929 l 365 929 m 331 998 l 61 1373 l 336 1373 l 492 1188 l 648 1373 l 922 1373 l 652 998 l 331 998 z "},"ǐ":{"ha":983,"x_min":61,"x_max":922,"o":"m 383 811 l 383 0 l 600 0 l 600 811 l 383 811 m 331 880 l 61 1255 l 336 1255 l 492 1070 l 648 1255 l 922 1255 l 652 880 l 331 880 z "},"Ǒ":{"ha":1446,"x_min":61,"x_max":1385,"o":"m 359 929 q 148 850 235 929 q 61 658 61 770 l 61 271 q 148 79 61 159 q 359 0 235 0 l 1086 0 q 1297 79 1211 0 q 1384 271 1385 159 l 1384 658 q 1297 850 1385 770 q 1086 929 1211 929 l 359 929 m 434 722 l 1011 722 q 1096 691 1062 724 q 1131 614 1131 661 l 1131 315 q 1096 239 1131 271 q 1011 207 1062 209 l 434 207 q 349 238 384 208 q 315 315 315 271 l 315 614 q 349 690 315 661 q 434 722 384 723 m 562 998 l 292 1373 l 567 1373 l 724 1188 l 879 1373 l 1154 1373 l 884 998 l 562 998 z "},"ǒ":{"ha":1273,"x_min":61,"x_max":1212,"o":"m 326 811 q 139 741 218 811 q 61 570 63 670 l 61 241 q 138 71 61 141 q 326 0 218 0 l 944 0 q 1132 70 1056 0 q 1210 241 1211 141 l 1210 570 q 1133 741 1212 670 q 944 811 1055 811 l 326 811 m 390 614 l 881 614 q 944 590 918 614 q 970 532 970 567 l 970 279 q 945 221 971 245 q 881 197 920 199 l 390 197 q 327 221 353 199 q 300 279 300 245 l 300 532 q 326 590 300 567 q 390 614 353 614 m 475 880 l 205 1255 l 480 1255 l 637 1070 l 792 1255 l 1067 1255 l 797 880 l 475 880 z "},"Ǔ":{"ha":1386,"x_min":61,"x_max":1325,"o":"m 61 929 l 61 271 q 148 79 61 159 q 359 0 235 0 l 1026 0 q 1238 79 1151 0 q 1324 271 1325 159 l 1324 929 l 1071 929 l 1071 315 q 1036 239 1071 271 q 951 207 1002 209 l 434 207 q 349 238 384 208 q 315 315 315 271 l 315 929 l 61 929 m 532 998 l 262 1373 l 537 1373 l 694 1188 l 849 1373 l 1124 1373 l 854 998 l 532 998 z "},"ǔ":{"ha":1222,"x_min":61,"x_max":1161,"o":"m 61 811 l 61 241 q 138 71 61 142 q 327 0 217 0 l 894 0 q 1082 71 1006 0 q 1160 241 1161 142 l 1160 811 l 920 811 l 920 279 q 894 221 921 245 q 830 197 868 199 l 390 197 q 327 221 353 199 q 300 279 300 245 l 300 811 l 61 811 m 450 880 l 180 1255 l 455 1255 l 612 1070 l 767 1255 l 1042 1255 l 772 880 l 450 880 z "},"Ǧ":{"ha":1445,"x_min":61,"x_max":1384,"o":"m 359 929 q 148 850 235 929 q 61 658 61 770 l 61 271 q 148 79 61 159 q 359 0 235 0 l 1384 0 l 1384 547 l 814 547 l 814 351 l 1131 351 l 1131 207 l 434 207 q 349 238 384 208 q 315 315 315 271 l 315 614 q 349 690 315 661 q 434 722 384 723 l 1352 722 l 1352 929 l 359 929 m 562 998 l 292 1373 l 567 1373 l 724 1188 l 879 1373 l 1154 1373 l 884 998 l 562 998 z "},"ǧ":{"ha":1271,"x_min":61,"x_max":1210,"o":"m 327 811 q 139 741 218 811 q 61 570 63 670 l 61 241 q 138 71 61 141 q 327 0 217 0 l 1210 0 l 1210 487 l 701 487 l 701 298 l 970 298 l 970 197 l 390 197 q 327 221 353 199 q 300 279 300 245 l 300 532 q 326 590 300 567 q 390 614 353 614 l 1182 614 l 1182 811 l 327 811 m 475 880 l 205 1255 l 479 1255 l 636 1070 l 791 1255 l 1066 1255 l 796 880 l 475 880 z "},"Ǩ":{"ha":1463,"x_min":61,"x_max":1402,"o":"m 61 929 l 61 0 l 315 0 l 315 454 l 985 0 l 1402 0 l 641 493 l 1351 929 l 934 929 l 315 530 l 315 929 l 61 929 m 467 998 l 197 1373 l 471 1373 l 628 1188 l 783 1373 l 1058 1373 l 788 998 l 467 998 z "},"ǩ":{"ha":1312,"x_min":61,"x_max":1251,"o":"m 61 811 l 61 0 l 301 0 l 301 375 l 855 0 l 1251 0 l 587 430 l 1208 811 l 812 811 l 301 482 l 301 811 l 61 811 m 410 880 l 140 1255 l 414 1255 l 571 1070 l 726 1255 l 1001 1255 l 731 880 l 410 880 z "},"Ǫ":{"ha":1446,"x_min":61,"x_max":1385,"o":"m 359 929 q 148 850 235 929 q 61 658 61 770 l 61 271 q 148 79 61 159 q 359 0 235 0 l 1086 0 q 1297 79 1211 0 q 1384 271 1385 159 l 1384 658 q 1297 850 1385 770 q 1086 929 1211 929 l 359 929 m 434 722 l 1011 722 q 1096 691 1062 724 q 1131 614 1131 661 l 1131 315 q 1096 239 1131 271 q 1011 207 1062 209 l 434 207 q 349 238 384 208 q 315 315 315 271 l 315 614 q 349 690 315 661 q 434 722 384 723 m 913 0 q 870 -66 895 -27 q 835 -120 846 -104 q 813 -273 776 -210 q 964 -336 852 -336 l 1163 -336 l 1163 -171 l 1008 -171 q 948 -146 963 -171 q 957 -84 935 -119 l 1012 0 l 913 0 z "},"ǫ":{"ha":1273,"x_min":61,"x_max":1212,"o":"m 326 811 q 139 741 218 811 q 61 570 63 670 l 61 241 q 138 71 61 141 q 326 0 218 0 l 944 0 q 1132 70 1056 0 q 1210 241 1211 141 l 1210 570 q 1133 741 1212 670 q 944 811 1055 811 l 326 811 m 390 614 l 881 614 q 944 590 918 614 q 970 532 970 567 l 970 279 q 945 221 971 245 q 881 197 920 199 l 390 197 q 327 221 353 199 q 300 279 300 245 l 300 532 q 326 590 300 567 q 390 614 353 614 m 774 0 q 731 -66 755 -27 q 696 -120 707 -104 q 674 -273 637 -210 q 825 -336 713 -336 l 1024 -336 l 1024 -171 l 869 -171 q 809 -146 824 -171 q 818 -84 795 -119 l 873 0 l 774 0 z "},"ǰ":{"ha":1053,"x_min":61,"x_max":992,"o":"m 450 811 l 450 279 q 424 221 450 245 q 360 197 397 199 l 61 197 l 61 0 l 424 0 q 612 70 534 0 q 690 241 692 141 l 690 811 l 450 811 m 401 880 l 131 1255 l 406 1255 l 562 1070 l 718 1255 l 992 1255 l 722 880 l 401 880 z "},"Ǵ":{"ha":1445,"x_min":61,"x_max":1384,"o":"m 359 929 q 148 850 235 929 q 61 658 61 770 l 61 271 q 148 79 61 159 q 359 0 235 0 l 1384 0 l 1384 547 l 814 547 l 814 351 l 1131 351 l 1131 207 l 434 207 q 349 238 384 208 q 315 315 315 271 l 315 614 q 349 690 315 661 q 434 722 384 723 l 1352 722 l 1352 929 l 359 929 m 802 1563 l 441 1115 l 604 998 l 1005 1417 l 802 1563 z "},"ǵ":{"ha":1271,"x_min":61,"x_max":1210,"o":"m 327 811 q 139 741 218 811 q 61 570 63 670 l 61 241 q 138 71 61 141 q 327 0 217 0 l 1210 0 l 1210 487 l 701 487 l 701 298 l 970 298 l 970 197 l 390 197 q 327 221 353 199 q 300 279 300 245 l 300 532 q 326 590 300 567 q 390 614 353 614 l 1182 614 l 1182 811 l 327 811 m 714 1444 l 353 997 l 516 880 l 918 1299 l 714 1444 z "},"Ȁ":{"ha":1554,"x_min":61,"x_max":1493,"o":"m 610 929 l 20 0 l 293 0 l 422 203 l 1051 203 l 1179 0 l 1453 0 l 863 929 l 610 929 m 737 699 l 926 400 l 547 400 l 737 699 m 937 1563 l 1298 1115 l 1135 998 l 734 1417 l 937 1563 m 351 1563 l 712 1115 l 549 998 l 148 1417 l 351 1563 z "},"ȁ":{"ha":1380,"x_min":61,"x_max":1319,"o":"m 536 811 l 20 0 l 279 0 l 390 173 l 910 173 l 1019 0 l 1278 0 l 763 811 l 536 811 m 650 583 l 791 361 l 509 361 l 650 583 m 850 1444 l 1211 997 l 1048 880 l 647 1299 l 850 1444 m 264 1444 l 625 997 l 462 880 l 61 1299 l 264 1444 z "},"Ȅ":{"ha":1272,"x_min":61,"x_max":1211,"o":"m 62 929 l 62 0 l 1210 0 l 1210 207 l 316 207 l 316 367 l 1090 367 l 1090 570 l 316 570 l 316 722 l 1210 722 l 1210 929 l 62 929 m 850 1563 l 1211 1115 l 1048 998 l 647 1417 l 850 1563 m 264 1563 l 625 1115 l 462 998 l 61 1417 l 264 1563 z "},"ȅ":{"ha":1272,"x_min":61,"x_max":1211,"o":"m 136 811 l 136 0 l 1136 0 l 1136 197 l 376 197 l 376 312 l 1035 312 l 1035 506 l 376 506 l 376 614 l 1136 614 l 1136 811 l 136 811 m 850 1444 l 1211 997 l 1048 880 l 647 1299 l 850 1444 m 264 1444 l 625 997 l 462 880 l 61 1299 l 264 1444 z "},"Ȉ":{"ha":1272,"x_min":61,"x_max":1211,"o":"m 509 929 l 509 0 l 763 0 l 763 929 l 509 929 m 850 1563 l 1211 1115 l 1048 998 l 647 1417 l 850 1563 m 264 1563 l 625 1115 l 462 998 l 61 1417 l 264 1563 z "},"ȉ":{"ha":1272,"x_min":61,"x_max":1211,"o":"m 528 811 l 528 0 l 745 0 l 745 811 l 528 811 m 850 1444 l 1211 997 l 1048 880 l 647 1299 l 850 1444 m 264 1444 l 625 997 l 462 880 l 61 1299 l 264 1444 z "},"Ȍ":{"ha":1446,"x_min":61,"x_max":1385,"o":"m 359 929 q 148 850 235 929 q 61 658 61 770 l 61 271 q 148 79 61 159 q 359 0 235 0 l 1086 0 q 1297 79 1211 0 q 1384 271 1385 159 l 1384 658 q 1297 850 1385 770 q 1086 929 1211 929 l 359 929 m 434 722 l 1011 722 q 1096 691 1062 724 q 1131 614 1131 661 l 1131 315 q 1096 239 1131 271 q 1011 207 1062 209 l 434 207 q 349 238 384 208 q 315 315 315 271 l 315 614 q 349 690 315 661 q 434 722 384 723 m 937 1563 l 1298 1115 l 1135 998 l 734 1417 l 937 1563 m 351 1563 l 712 1115 l 549 998 l 148 1417 l 351 1563 z "},"ȍ":{"ha":1273,"x_min":61,"x_max":1212,"o":"m 326 811 q 139 741 218 811 q 61 570 63 670 l 61 241 q 138 71 61 141 q 326 0 218 0 l 944 0 q 1132 70 1056 0 q 1210 241 1211 141 l 1210 570 q 1133 741 1212 670 q 944 811 1055 811 l 326 811 m 390 614 l 881 614 q 944 590 918 614 q 970 532 970 567 l 970 279 q 945 221 971 245 q 881 197 920 199 l 390 197 q 327 221 353 199 q 300 279 300 245 l 300 532 q 326 590 300 567 q 390 614 353 614 m 850 1444 l 1211 997 l 1048 880 l 647 1299 l 850 1444 m 264 1444 l 625 997 l 462 880 l 61 1299 l 264 1444 z "},"Ȑ":{"ha":1374,"x_min":61,"x_max":1313,"o":"m 61 929 l 61 0 l 315 0 l 315 337 l 739 337 l 1018 0 l 1313 0 l 1010 340 q 1217 436 1134 355 q 1299 633 1299 519 q 1204 842 1299 755 q 973 929 1108 929 l 61 929 m 315 722 l 949 722 q 1020 697 994 724 q 1048 632 1048 673 q 1020 567 1048 593 q 949 541 994 541 l 315 542 l 315 722 m 901 1563 l 1262 1115 l 1099 998 l 698 1417 l 901 1563 m 315 1563 l 676 1115 l 513 998 l 112 1417 l 315 1563 z "},"ȑ":{"ha":1272,"x_min":61,"x_max":1211,"o":"m 85 811 l 85 0 l 325 0 l 325 286 l 667 286 l 905 0 l 1187 0 l 927 292 q 1095 381 1028 311 q 1162 549 1162 454 q 1078 734 1162 659 q 873 811 994 811 l 85 811 m 325 614 l 852 614 q 905 596 887 614 q 925 548 925 578 q 905 500 925 518 q 852 481 887 481 q 325 481 775 481 l 325 614 m 850 1444 l 1211 997 l 1048 880 l 647 1299 l 850 1444 m 264 1444 l 625 997 l 462 880 l 61 1299 l 264 1444 z "},"Ȕ":{"ha":1386,"x_min":61,"x_max":1325,"o":"m 61 929 l 61 271 q 148 79 61 159 q 359 0 235 0 l 1026 0 q 1238 79 1151 0 q 1324 271 1325 159 l 1324 929 l 1071 929 l 1071 315 q 1036 239 1071 271 q 951 207 1002 209 l 434 207 q 349 238 384 208 q 315 315 315 271 l 315 929 l 61 929 m 907 1563 l 1268 1115 l 1105 998 l 704 1417 l 907 1563 m 321 1563 l 682 1115 l 519 998 l 118 1417 l 321 1563 z "},"ȕ":{"ha":1272,"x_min":61,"x_max":1211,"o":"m 86 811 l 86 241 q 163 71 86 142 q 352 0 242 0 l 919 0 q 1107 71 1031 0 q 1185 241 1186 142 l 1185 811 l 945 811 l 945 279 q 919 221 946 245 q 855 197 893 199 l 415 197 q 352 221 378 199 q 326 279 326 245 l 326 811 l 86 811 m 850 1444 l 1211 997 l 1048 880 l 647 1299 l 850 1444 m 264 1444 l 625 997 l 462 880 l 61 1299 l 264 1444 z "},"Ȟ":{"ha":1380,"x_min":61,"x_max":1319,"o":"m 61 929 l 61 0 l 315 0 l 315 374 l 1065 374 l 1065 0 l 1319 0 l 1319 929 l 1065 929 l 1065 581 l 315 581 l 315 929 l 61 929 m 530 998 l 260 1373 l 534 1373 l 691 1188 l 846 1373 l 1121 1373 l 851 998 l 530 998 z "},"ȟ":{"ha":1214,"x_min":61,"x_max":1153,"o":"m 61 811 l 61 0 l 300 0 l 300 318 l 914 318 l 914 0 l 1153 0 l 1153 811 l 914 811 l 914 515 l 300 515 l 300 811 l 61 811 m 446 880 l 176 1255 l 451 1255 l 608 1070 l 763 1255 l 1038 1255 l 768 880 l 446 880 z "},"Ȩ":{"ha":1270,"x_min":61,"x_max":1208,"o":"m 61 929 l 61 0 l 1208 0 l 1208 207 l 315 207 l 315 367 l 1089 367 l 1089 570 l 315 570 l 315 722 l 1208 722 l 1208 929 l 61 929 m 558 -481 q 425 -431 480 -481 q 369 -309 369 -380 l 369 -307 l 526 -307 l 525 -309 l 525 -309 q 540 -340 525 -327 q 575 -353 555 -353 l 686 -353 q 725 -338 709 -353 q 741 -302 741 -323 q 726 -267 742 -281 q 686 -252 709 -252 l 558 -252 q 472 -180 472 -252 l 472 -69 l 627 -69 l 627 -106 q 664 -130 627 -131 l 701 -130 q 841 -179 784 -127 q 898 -302 898 -228 q 841 -429 900 -377 q 701 -481 784 -481 l 558 -481 z "},"ȩ":{"ha":1122,"x_min":61,"x_max":1061,"o":"m 61 811 l 61 0 l 1061 0 l 1061 197 l 301 197 l 301 312 l 960 312 l 960 506 l 301 506 l 301 614 l 1061 614 l 1061 811 l 61 811 m 484 -481 q 351 -431 406 -481 q 295 -309 295 -380 l 295 -307 l 452 -307 l 451 -309 l 451 -309 q 466 -340 451 -327 q 501 -353 481 -353 l 612 -353 q 651 -338 635 -353 q 667 -302 667 -323 q 652 -267 668 -281 q 612 -252 635 -252 l 484 -252 q 398 -180 398 -252 l 398 -69 l 553 -69 l 553 -106 q 590 -130 553 -131 l 627 -130 q 767 -179 710 -127 q 824 -302 824 -228 q 767 -429 826 -377 q 627 -481 710 -481 l 484 -481 z "},"Ȳ":{"ha":1659,"x_min":61,"x_max":1598,"o":"m 20 929 l 662 336 l 662 0 l 916 0 l 916 336 l 1557 929 l 1183 929 l 789 538 l 395 929 l 20 929 m 345 1205 l 1206 1205 l 1206 998 l 345 998 l 345 1205 z "},"ȳ":{"ha":1485,"x_min":61,"x_max":1423,"o":"m 20 811 l 582 292 l 582 0 l 821 0 l 821 292 l 1383 811 l 1031 811 l 701 484 l 372 811 l 20 811 m 257 1087 l 1118 1087 l 1118 880 l 257 880 l 257 1087 z "},"ἀ":{"ha":1379,"x_min":61,"x_max":1318,"o":"m 576 811 l 61 0 l 319 0 l 430 173 l 950 173 l 1059 0 l 1318 0 l 803 811 l 576 811 m 690 583 l 831 361 l 549 361 l 690 583 m 566 1308 l 451 904 l 652 904 l 820 1308 l 566 1308 z "},"ἁ":{"ha":1379,"x_min":61,"x_max":1318,"o":"m 576 811 l 61 0 l 319 0 l 430 173 l 950 173 l 1059 0 l 1318 0 l 803 811 l 576 811 m 690 583 l 831 361 l 549 361 l 690 583 m 705 1308 l 820 904 l 618 904 l 451 1308 l 705 1308 z "},"ἂ":{"ha":1379,"x_min":61,"x_max":1318,"o":"m 576 811 l 61 0 l 319 0 l 430 173 l 950 173 l 1059 0 l 1318 0 l 803 811 l 576 811 m 690 583 l 831 361 l 549 361 l 690 583 m 363 1308 l 248 904 l 450 904 l 617 1308 l 363 1308 m 876 1471 l 1236 1023 l 1074 907 l 672 1326 l 876 1471 z "},"ἃ":{"ha":1379,"x_min":61,"x_max":1318,"o":"m 576 811 l 61 0 l 319 0 l 430 173 l 950 173 l 1059 0 l 1318 0 l 803 811 l 576 811 m 690 583 l 831 361 l 549 361 l 690 583 m 507 1308 l 623 904 l 421 904 l 254 1308 l 507 1308 m 775 1471 l 1136 1023 l 973 907 l 572 1326 l 775 1471 z "},"ἄ":{"ha":1379,"x_min":61,"x_max":1318,"o":"m 576 811 l 61 0 l 319 0 l 430 173 l 950 173 l 1059 0 l 1318 0 l 803 811 l 576 811 m 690 583 l 831 361 l 549 361 l 690 583 m 412 1308 l 297 904 l 498 904 l 666 1308 l 412 1308 m 994 1471 l 633 1023 l 795 907 l 1197 1326 l 994 1471 z "},"ἅ":{"ha":1379,"x_min":61,"x_max":1318,"o":"m 576 811 l 61 0 l 319 0 l 430 173 l 950 173 l 1059 0 l 1318 0 l 803 811 l 576 811 m 690 583 l 831 361 l 549 361 l 690 583 m 462 1308 l 577 904 l 376 904 l 208 1308 l 462 1308 m 983 1471 l 622 1023 l 785 907 l 1186 1326 l 983 1471 z "},"ἆ":{"ha":1379,"x_min":61,"x_max":1318,"o":"m 576 811 l 61 0 l 319 0 l 430 173 l 950 173 l 1059 0 l 1318 0 l 803 811 l 576 811 m 690 583 l 831 361 l 549 361 l 690 583 m 624 1308 l 509 904 l 710 904 l 878 1308 l 624 1308 m 397 1416 l 410 1474 q 505 1623 431 1572 q 662 1649 579 1674 l 876 1586 q 939 1596 911 1575 q 977 1655 970 1617 l 1130 1610 l 1118 1551 q 1023 1403 1097 1455 q 866 1376 949 1352 l 651 1440 q 589 1430 618 1451 q 551 1371 559 1409 l 397 1416 z "},"ἇ":{"ha":1379,"x_min":61,"x_max":1318,"o":"m 576 811 l 61 0 l 319 0 l 430 173 l 950 173 l 1059 0 l 1318 0 l 803 811 l 576 811 m 690 583 l 831 361 l 549 361 l 690 583 m 714 1308 l 829 904 l 628 904 l 460 1308 l 714 1308 m 279 1416 l 292 1474 q 386 1623 313 1572 q 543 1649 460 1674 l 758 1586 q 821 1596 792 1575 q 859 1655 851 1617 l 1011 1610 l 999 1551 q 905 1403 979 1455 q 747 1376 831 1352 l 532 1440 q 470 1430 500 1451 q 432 1371 440 1409 l 279 1416 z "},"Ἀ":{"ha":1597,"x_min":61,"x_max":1536,"o":"m 694 929 l 104 0 l 376 0 l 506 203 l 1135 203 l 1263 0 l 1536 0 l 946 929 l 694 929 m 821 699 l 1009 400 l 631 400 l 821 699 m 176 929 l 61 525 l 262 525 l 430 929 l 176 929 z "},"Ἁ":{"ha":1730,"x_min":123,"x_max":1731,"o":"m 827 929 l 237 0 l 509 0 l 639 203 l 1267 203 l 1396 0 l 1669 0 l 1079 929 l 827 929 m 954 699 l 1142 400 l 764 400 l 954 699 m 315 929 l 430 525 l 229 525 l 61 929 l 315 929 z "},"Ἂ":{"ha":2335,"x_min":-77,"x_max":2136,"o":"m 1432 929 l 842 0 l 1114 0 l 1244 203 l 1872 203 l 2001 0 l 2274 0 l 1684 929 l 1432 929 m 1558 699 l 1747 400 l 1369 400 l 1558 699 m 176 766 l 61 362 l 262 362 l 430 766 l 176 766 m 688 929 l 1049 481 l 886 365 l 485 784 l 688 929 z "},"Ἃ":{"ha":2186,"x_min":61,"x_max":2125,"o":"m 1283 929 l 693 0 l 966 0 l 1095 203 l 1724 203 l 1852 0 l 2125 0 l 1535 929 l 1283 929 m 1410 699 l 1598 400 l 1220 400 l 1410 699 m 315 766 l 430 362 l 229 362 l 61 766 l 315 766 m 583 929 l 943 481 l 781 365 l 379 784 l 583 929 z "},"Ἄ":{"ha":2147,"x_min":317,"x_max":2342,"o":"m 1244 929 l 654 0 l 926 0 l 1056 203 l 1685 203 l 1813 0 l 2086 0 l 1496 929 l 1244 929 m 1371 699 l 1559 400 l 1181 400 l 1371 699 m 176 766 l 61 362 l 262 362 l 430 766 l 176 766 m 758 929 l 397 481 l 559 365 l 961 784 l 758 929 z "},"Ἅ":{"ha":2220,"x_min":184,"x_max":2283,"o":"m 1317 929 l 727 0 l 1000 0 l 1129 203 l 1758 203 l 1886 0 l 2159 0 l 1569 929 l 1317 929 m 1444 699 l 1632 400 l 1254 400 l 1444 699 m 315 766 l 430 362 l 229 362 l 61 766 l 315 766 m 836 929 l 475 481 l 637 365 l 1039 784 l 836 929 z "},"Ἆ":{"ha":1975,"x_min":241,"x_max":2094,"o":"m 1072 929 l 481 0 l 754 0 l 884 203 l 1512 203 l 1640 0 l 1914 0 l 1324 929 l 1072 929 m 1198 699 l 1387 400 l 1008 400 l 1198 699 m 288 564 l 172 159 l 374 159 l 541 564 l 288 564 m 61 671 l 74 730 q 168 878 95 827 q 326 905 243 929 l 540 842 q 603 851 574 831 q 641 911 633 873 l 793 865 l 781 806 q 687 659 761 710 q 530 631 613 607 l 315 696 q 252 685 282 706 q 214 626 222 665 l 61 671 z "},"Ἇ":{"ha":2094,"x_min":123,"x_max":2094,"o":"m 1190 929 l 600 0 l 873 0 l 1002 203 l 1631 203 l 1759 0 l 2032 0 l 1442 929 l 1190 929 m 1317 699 l 1506 400 l 1127 400 l 1317 699 m 496 564 l 612 159 l 410 159 l 243 564 l 496 564 m 61 671 l 74 730 q 168 878 95 827 q 326 905 243 929 l 540 842 q 603 851 574 831 q 641 911 633 873 l 793 865 l 781 806 q 687 659 761 710 q 530 631 613 607 l 315 696 q 252 685 282 706 q 214 626 222 665 l 61 671 z "},"ἐ":{"ha":1122,"x_min":61,"x_max":1061,"o":"m 61 811 l 61 0 l 1061 0 l 1061 197 l 300 197 l 300 312 l 960 312 l 960 506 l 300 506 l 300 614 l 1061 614 l 1061 811 l 61 811 m 492 1308 l 376 904 l 578 904 l 745 1308 l 492 1308 z "},"ἑ":{"ha":1122,"x_min":61,"x_max":1061,"o":"m 61 811 l 61 0 l 1061 0 l 1061 197 l 300 197 l 300 312 l 960 312 l 960 506 l 300 506 l 300 614 l 1061 614 l 1061 811 l 61 811 m 630 1308 l 745 904 l 544 904 l 376 1308 l 630 1308 z "},"ἒ":{"ha":1156,"x_min":61,"x_max":1095,"o":"m 61 811 l 61 0 l 1061 0 l 1061 197 l 300 197 l 300 312 l 960 312 l 960 506 l 300 506 l 300 614 l 1061 614 l 1061 811 l 61 811 m 222 1308 l 107 904 l 309 904 l 476 1308 l 222 1308 m 734 1471 l 1095 1023 l 932 907 l 531 1326 l 734 1471 z "},"ἓ":{"ha":1122,"x_min":61,"x_max":1061,"o":"m 61 811 l 61 0 l 1061 0 l 1061 197 l 300 197 l 300 312 l 960 312 l 960 506 l 300 506 l 300 614 l 1061 614 l 1061 811 l 61 811 m 390 1308 l 505 904 l 304 904 l 136 1308 l 390 1308 m 658 1471 l 1019 1023 l 856 907 l 454 1326 l 658 1471 z "},"ἔ":{"ha":1122,"x_min":61,"x_max":1061,"o":"m 61 811 l 61 0 l 1061 0 l 1061 197 l 300 197 l 300 312 l 960 312 l 960 506 l 300 506 l 300 614 l 1061 614 l 1061 811 l 61 811 m 238 1308 l 123 904 l 324 904 l 492 1308 l 238 1308 m 819 1471 l 458 1023 l 621 907 l 1023 1326 l 819 1471 z "},"ἕ":{"ha":1139,"x_min":61,"x_max":1078,"o":"m 61 811 l 61 0 l 1061 0 l 1061 197 l 300 197 l 300 312 l 960 312 l 960 506 l 300 506 l 300 614 l 1061 614 l 1061 811 l 61 811 m 354 1308 l 469 904 l 268 904 l 100 1308 l 354 1308 m 875 1471 l 514 1023 l 677 907 l 1078 1326 l 875 1471 z "},"Ἐ":{"ha":1731,"x_min":61,"x_max":1670,"o":"m 523 929 l 523 0 l 1670 0 l 1670 207 l 777 207 l 777 367 l 1551 367 l 1551 570 l 777 570 l 777 722 l 1670 722 l 1670 929 l 523 929 m 176 929 l 61 525 l 262 525 l 430 929 l 176 929 z "},"Ἑ":{"ha":1731,"x_min":61,"x_max":1670,"o":"m 523 929 l 523 0 l 1670 0 l 1670 207 l 777 207 l 777 367 l 1551 367 l 1551 570 l 777 570 l 777 722 l 1670 722 l 1670 929 l 523 929 m 315 929 l 430 525 l 229 525 l 61 929 l 315 929 z "},"Ἒ":{"ha":2313,"x_min":-115,"x_max":2076,"o":"m 1104 929 l 1104 0 l 2252 0 l 2252 207 l 1358 207 l 1358 367 l 2132 367 l 2132 570 l 1358 570 l 1358 722 l 2252 722 l 2252 929 l 1104 929 m 176 766 l 61 362 l 262 362 l 430 766 l 176 766 m 688 929 l 1049 481 l 886 365 l 485 784 l 688 929 z "},"Ἓ":{"ha":2216,"x_min":-29,"x_max":2065,"o":"m 1008 929 l 1008 0 l 2155 0 l 2155 207 l 1262 207 l 1262 367 l 2036 367 l 2036 570 l 1262 570 l 1262 722 l 2155 722 l 2155 929 l 1008 929 m 315 766 l 430 362 l 229 362 l 61 766 l 315 766 m 583 929 l 943 481 l 781 365 l 379 784 l 583 929 z "},"Ἔ":{"ha":2267,"x_min":137,"x_max":2282,"o":"m 1059 929 l 1059 0 l 2206 0 l 2206 207 l 1313 207 l 1313 367 l 2087 367 l 2087 570 l 1313 570 l 1313 722 l 2206 722 l 2206 929 l 1059 929 m 176 766 l 61 362 l 262 362 l 430 766 l 176 766 m 758 929 l 397 481 l 559 365 l 961 784 l 758 929 z "},"Ἕ":{"ha":2317,"x_min":28,"x_max":2222,"o":"m 1108 929 l 1108 0 l 2256 0 l 2256 207 l 1362 207 l 1362 367 l 2136 367 l 2136 570 l 1362 570 l 1362 722 l 2256 722 l 2256 929 l 1108 929 m 315 766 l 430 362 l 229 362 l 61 766 l 315 766 m 836 929 l 475 481 l 637 365 l 1039 784 l 836 929 z "},"ἠ":{"ha":1214,"x_min":61,"x_max":1153,"o":"m 61 811 l 61 0 l 300 0 l 300 318 l 914 318 l 914 0 l 1153 0 l 1153 811 l 914 811 l 914 515 l 300 515 l 300 811 l 61 811 m 538 1308 l 422 904 l 624 904 l 791 1308 l 538 1308 z "},"ἡ":{"ha":1214,"x_min":61,"x_max":1153,"o":"m 61 811 l 61 0 l 300 0 l 300 318 l 914 318 l 914 0 l 1153 0 l 1153 811 l 914 811 l 914 515 l 300 515 l 300 811 l 61 811 m 676 1308 l 791 904 l 590 904 l 422 1308 l 676 1308 z "},"ἢ":{"ha":1269,"x_min":61,"x_max":1153,"o":"m 61 811 l 61 0 l 300 0 l 300 318 l 914 318 l 914 0 l 1153 0 l 1153 811 l 914 811 l 914 515 l 300 515 l 300 811 l 61 811 m 259 1308 l 144 904 l 345 904 l 513 1308 l 259 1308 m 771 1471 l 1132 1023 l 969 907 l 568 1326 l 771 1471 z "},"ἣ":{"ha":1214,"x_min":61,"x_max":1153,"o":"m 61 811 l 61 0 l 300 0 l 300 318 l 914 318 l 914 0 l 1153 0 l 1153 811 l 914 811 l 914 515 l 300 515 l 300 811 l 61 811 m 431 1308 l 547 904 l 345 904 l 178 1308 l 431 1308 m 699 1471 l 1060 1023 l 897 907 l 496 1326 l 699 1471 z "},"ἤ":{"ha":1214,"x_min":61,"x_max":1153,"o":"m 61 811 l 61 0 l 300 0 l 300 318 l 914 318 l 914 0 l 1153 0 l 1153 811 l 914 811 l 914 515 l 300 515 l 300 811 l 61 811 m 298 1308 l 183 904 l 385 904 l 552 1308 l 298 1308 m 880 1471 l 519 1023 l 682 907 l 1083 1326 l 880 1471 z "},"ἥ":{"ha":1214,"x_min":61,"x_max":1153,"o":"m 61 811 l 61 0 l 300 0 l 300 318 l 914 318 l 914 0 l 1153 0 l 1153 811 l 914 811 l 914 515 l 300 515 l 300 811 l 61 811 m 400 1308 l 515 904 l 314 904 l 146 1308 l 400 1308 m 921 1471 l 560 1023 l 723 907 l 1124 1326 l 921 1471 z "},"ἦ":{"ha":1214,"x_min":61,"x_max":1153,"o":"m 61 811 l 61 0 l 300 0 l 300 318 l 914 318 l 914 0 l 1153 0 l 1153 811 l 914 811 l 914 515 l 300 515 l 300 811 l 61 811 m 467 1308 l 352 904 l 553 904 l 721 1308 l 467 1308 m 241 1416 l 254 1474 q 348 1623 275 1572 q 505 1649 422 1674 l 720 1586 q 783 1596 754 1575 q 821 1655 813 1617 l 973 1610 l 961 1551 q 867 1403 941 1455 q 709 1376 793 1352 l 494 1440 q 432 1430 462 1451 q 394 1371 402 1409 l 241 1416 z "},"ἧ":{"ha":1214,"x_min":61,"x_max":1153,"o":"m 61 811 l 61 0 l 300 0 l 300 318 l 914 318 l 914 0 l 1153 0 l 1153 811 l 914 811 l 914 515 l 300 515 l 300 811 l 61 811 m 676 1308 l 791 904 l 590 904 l 422 1308 l 676 1308 m 241 1416 l 254 1474 q 348 1623 275 1572 q 505 1649 422 1674 l 720 1586 q 783 1596 754 1575 q 821 1655 813 1617 l 973 1610 l 961 1551 q 867 1403 941 1455 q 709 1376 793 1352 l 494 1440 q 432 1430 462 1451 q 394 1371 402 1409 l 241 1416 z "},"Ἠ":{"ha":1842,"x_min":61,"x_max":1781,"o":"m 523 929 l 523 0 l 777 0 l 777 374 l 1527 374 l 1527 0 l 1781 0 l 1781 929 l 1527 929 l 1527 581 l 777 581 l 777 929 l 523 929 m 523 929 l 523 0 l 777 0 l 777 374 l 1527 374 l 1527 0 l 1781 0 l 1781 929 l 1527 929 l 1527 581 l 777 581 l 777 929 l 523 929 m 176 929 l 61 525 l 262 525 l 430 929 l 176 929 z "},"Ἡ":{"ha":1842,"x_min":61,"x_max":1781,"o":"m 523 929 l 523 0 l 777 0 l 777 374 l 1527 374 l 1527 0 l 1781 0 l 1781 929 l 1527 929 l 1527 581 l 777 581 l 777 929 l 523 929 m 523 929 l 523 0 l 777 0 l 777 374 l 1527 374 l 1527 0 l 1781 0 l 1781 929 l 1527 929 l 1527 581 l 777 581 l 777 929 l 523 929 m 315 929 l 430 525 l 229 525 l 61 929 l 315 929 z "},"Ἢ":{"ha":2418,"x_min":-110,"x_max":2186,"o":"m 1099 929 l 1099 0 l 1353 0 l 1353 374 l 2104 374 l 2104 0 l 2357 0 l 2357 929 l 2104 929 l 2104 581 l 1353 581 l 1353 929 l 1099 929 m 1099 929 l 1099 0 l 1353 0 l 1353 374 l 2104 374 l 2104 0 l 2357 0 l 2357 929 l 2104 929 l 2104 581 l 1353 581 l 1353 929 l 1099 929 m 176 766 l 61 362 l 262 362 l 430 766 l 176 766 m 688 929 l 1049 481 l 886 365 l 485 784 l 688 929 z "},"Ἣ":{"ha":2322,"x_min":-24,"x_max":2176,"o":"m 1003 929 l 1003 0 l 1257 0 l 1257 374 l 2007 374 l 2007 0 l 2261 0 l 2261 929 l 2007 929 l 2007 581 l 1257 581 l 1257 929 l 1003 929 m 1003 929 l 1003 0 l 1257 0 l 1257 374 l 2007 374 l 2007 0 l 2261 0 l 2261 929 l 2007 929 l 2007 581 l 1257 581 l 1257 929 l 1003 929 m 315 766 l 430 362 l 229 362 l 61 766 l 315 766 m 583 929 l 943 481 l 781 365 l 379 784 l 583 929 z "},"Ἤ":{"ha":2373,"x_min":142,"x_max":2393,"o":"m 1054 929 l 1054 0 l 1308 0 l 1308 374 l 2058 374 l 2058 0 l 2312 0 l 2312 929 l 2058 929 l 2058 581 l 1308 581 l 1308 929 l 1054 929 m 1054 929 l 1054 0 l 1308 0 l 1308 374 l 2058 374 l 2058 0 l 2312 0 l 2312 929 l 2058 929 l 2058 581 l 1308 581 l 1308 929 l 1054 929 m 176 766 l 61 362 l 262 362 l 430 766 l 176 766 m 758 929 l 397 481 l 559 365 l 961 784 l 758 929 z "},"Ἥ":{"ha":2418,"x_min":37,"x_max":2333,"o":"m 1099 929 l 1099 0 l 1352 0 l 1352 374 l 2103 374 l 2103 0 l 2357 0 l 2357 929 l 2103 929 l 2103 581 l 1352 581 l 1352 929 l 1099 929 m 1099 929 l 1099 0 l 1352 0 l 1352 374 l 2103 374 l 2103 0 l 2357 0 l 2357 929 l 2103 929 l 2103 581 l 1352 581 l 1352 929 l 1099 929 m 315 766 l 430 362 l 229 362 l 61 766 l 315 766 m 836 929 l 475 481 l 637 365 l 1039 784 l 836 929 z "},"Ἦ":{"ha":2205,"x_min":61,"x_max":2144,"o":"m 886 929 l 886 0 l 1140 0 l 1140 374 l 1891 374 l 1891 0 l 2144 0 l 2144 929 l 1891 929 l 1891 581 l 1140 581 l 1140 929 l 886 929 m 886 929 l 886 0 l 1140 0 l 1140 374 l 1891 374 l 1891 0 l 2144 0 l 2144 929 l 1891 929 l 1891 581 l 1140 581 l 1140 929 l 886 929 m 288 564 l 172 159 l 374 159 l 541 564 l 288 564 m 61 671 l 74 730 q 168 878 95 827 q 326 905 243 929 l 540 842 q 603 851 574 831 q 641 911 633 873 l 793 865 l 781 806 q 687 659 761 710 q 530 631 613 607 l 315 696 q 252 685 282 706 q 214 626 222 665 l 61 671 z "},"Ἧ":{"ha":2205,"x_min":61,"x_max":2144,"o":"m 886 929 l 886 0 l 1140 0 l 1140 374 l 1891 374 l 1891 0 l 2144 0 l 2144 929 l 1891 929 l 1891 581 l 1140 581 l 1140 929 l 886 929 m 886 929 l 886 0 l 1140 0 l 1140 374 l 1891 374 l 1891 0 l 2144 0 l 2144 929 l 1891 929 l 1891 581 l 1140 581 l 1140 929 l 886 929 m 496 564 l 612 159 l 410 159 l 243 564 l 496 564 m 61 671 l 74 730 q 168 878 95 827 q 326 905 243 929 l 540 842 q 603 851 574 831 q 641 911 633 873 l 793 865 l 781 806 q 687 659 761 710 q 530 631 613 607 l 315 696 q 252 685 282 706 q 214 626 222 665 l 61 671 z "},"ἰ":{"ha":491,"x_min":61,"x_max":430,"o":"m 126 811 l 126 0 l 365 0 l 365 811 l 126 811 m 176 1308 l 61 904 l 262 904 l 430 1308 l 176 1308 z "},"ἱ":{"ha":491,"x_min":61,"x_max":430,"o":"m 126 811 l 126 0 l 365 0 l 365 811 l 126 811 m 315 1308 l 430 904 l 229 904 l 61 1308 l 315 1308 z "},"ἲ":{"ha":1110,"x_min":33,"x_max":1021,"o":"m 329 811 l 329 0 l 568 0 l 568 811 l 329 811 m 148 1308 l 33 904 l 234 904 l 401 1308 l 148 1308 m 660 1471 l 1021 1023 l 858 907 l 456 1326 l 660 1471 z "},"ἳ":{"ha":1004,"x_min":52,"x_max":934,"o":"m 323 811 l 323 0 l 562 0 l 562 811 l 323 811 m 305 1308 l 420 904 l 219 904 l 52 1308 l 305 1308 m 573 1471 l 934 1023 l 771 907 l 370 1326 l 573 1471 z "},"ἴ":{"ha":1022,"x_min":109,"x_max":1008,"o":"m 432 811 l 432 0 l 671 0 l 671 811 l 432 811 m 224 1308 l 109 904 l 310 904 l 477 1308 l 224 1308 m 805 1471 l 444 1023 l 607 907 l 1008 1326 l 805 1471 z "},"ἵ":{"ha":1100,"x_min":61,"x_max":1039,"o":"m 402 811 l 402 0 l 641 0 l 641 811 l 402 811 m 315 1308 l 430 904 l 229 904 l 61 1308 l 315 1308 m 836 1471 l 475 1023 l 637 907 l 1039 1326 l 836 1471 z "},"ἶ":{"ha":854,"x_min":42,"x_max":774,"o":"m 175 811 l 175 0 l 414 0 l 414 811 l 175 811 m 269 1308 l 153 904 l 355 904 l 522 1308 l 269 1308 m 42 1416 l 55 1474 q 149 1623 76 1572 q 307 1649 224 1674 l 521 1586 q 584 1596 555 1575 q 622 1655 614 1617 l 774 1610 l 762 1551 q 668 1403 742 1455 q 511 1376 594 1352 l 296 1440 q 233 1430 263 1451 q 195 1371 203 1409 l 42 1416 z "},"ἷ":{"ha":854,"x_min":61,"x_max":793,"o":"m 308 811 l 308 0 l 547 0 l 547 811 l 308 811 m 496 1308 l 612 904 l 410 904 l 243 1308 l 496 1308 m 61 1416 l 74 1474 q 168 1623 95 1572 q 326 1649 243 1674 l 540 1586 q 603 1596 574 1575 q 641 1655 633 1617 l 793 1610 l 781 1551 q 687 1403 761 1455 q 530 1376 613 1352 l 315 1440 q 252 1430 282 1451 q 214 1371 222 1409 l 61 1416 z "},"Ἰ":{"ha":838,"x_min":61,"x_max":777,"o":"m 523 929 l 523 0 l 777 0 l 777 929 l 523 929 m 176 929 l 61 525 l 262 525 l 430 929 l 176 929 z "},"Ἱ":{"ha":838,"x_min":61,"x_max":777,"o":"m 523 929 l 523 0 l 777 0 l 777 929 l 523 929 m 315 929 l 430 525 l 229 525 l 61 929 l 315 929 z "},"Ἲ":{"ha":1414,"x_min":-110,"x_max":1182,"o":"m 1099 929 l 1099 0 l 1353 0 l 1353 929 l 1099 929 m 176 766 l 61 362 l 262 362 l 430 766 l 176 766 m 688 929 l 1049 481 l 886 365 l 485 784 l 688 929 z "},"Ἳ":{"ha":1327,"x_min":-34,"x_max":1171,"o":"m 1013 929 l 1013 0 l 1266 0 l 1266 929 l 1013 929 m 315 766 l 430 362 l 229 362 l 61 766 l 315 766 m 583 929 l 943 481 l 781 365 l 379 784 l 583 929 z "},"Ἴ":{"ha":1373,"x_min":137,"x_max":1388,"o":"m 1059 929 l 1059 0 l 1312 0 l 1312 929 l 1059 929 m 176 766 l 61 362 l 262 362 l 430 766 l 176 766 m 758 929 l 397 481 l 559 365 l 961 784 l 758 929 z "},"Ἵ":{"ha":1432,"x_min":18,"x_max":1329,"o":"m 1118 929 l 1118 0 l 1371 0 l 1371 929 l 1118 929 m 315 766 l 430 362 l 229 362 l 61 766 l 315 766 m 836 929 l 475 481 l 637 365 l 1039 784 l 836 929 z "},"Ἶ":{"ha":1201,"x_min":61,"x_max":1140,"o":"m 886 929 l 886 0 l 1140 0 l 1140 929 l 886 929 m 288 564 l 172 159 l 374 159 l 541 564 l 288 564 m 61 671 l 74 730 q 168 878 95 827 q 326 905 243 929 l 540 842 q 603 851 574 831 q 641 911 633 873 l 793 865 l 781 806 q 687 659 761 710 q 530 631 613 607 l 315 696 q 252 685 282 706 q 214 626 222 665 l 61 671 z "},"Ἷ":{"ha":1201,"x_min":61,"x_max":1140,"o":"m 886 929 l 886 0 l 1140 0 l 1140 929 l 886 929 m 496 564 l 612 159 l 410 159 l 243 564 l 496 564 m 61 671 l 74 730 q 168 878 95 827 q 326 905 243 929 l 540 842 q 603 851 574 831 q 641 911 633 873 l 793 865 l 781 806 q 687 659 761 710 q 530 631 613 607 l 315 696 q 252 685 282 706 q 214 626 222 665 l 61 671 z "},"ὀ":{"ha":1273,"x_min":61,"x_max":1212,"o":"m 327 811 q 139 741 217 811 q 61 570 61 670 l 61 241 q 138 71 61 141 q 327 0 217 0 l 945 0 q 1132 70 1055 0 q 1210 241 1210 141 l 1210 570 q 1133 741 1212 670 q 945 811 1055 811 l 327 811 m 390 614 l 881 614 q 944 590 918 614 q 970 532 970 567 l 970 279 q 945 221 971 245 q 881 197 918 199 l 390 197 q 327 221 353 199 q 300 279 300 245 l 300 532 q 326 590 300 567 q 390 614 353 614 m 567 1308 l 452 904 l 653 904 l 821 1308 l 567 1308 z "},"ὁ":{"ha":1273,"x_min":61,"x_max":1212,"o":"m 327 811 q 139 741 217 811 q 61 570 61 670 l 61 241 q 138 71 61 141 q 327 0 217 0 l 945 0 q 1132 70 1055 0 q 1210 241 1210 141 l 1210 570 q 1133 741 1212 670 q 945 811 1055 811 l 327 811 m 390 614 l 881 614 q 944 590 918 614 q 970 532 970 567 l 970 279 q 945 221 971 245 q 881 197 918 199 l 390 197 q 327 221 353 199 q 300 279 300 245 l 300 532 q 326 590 300 567 q 390 614 353 614 m 705 1308 l 821 904 l 619 904 l 452 1308 l 705 1308 z "},"ὂ":{"ha":1298,"x_min":61,"x_max":1212,"o":"m 327 811 q 139 741 217 811 q 61 570 61 670 l 61 241 q 138 71 61 141 q 327 0 217 0 l 945 0 q 1132 70 1055 0 q 1210 241 1210 141 l 1210 570 q 1133 741 1212 670 q 945 811 1055 811 l 327 811 m 390 614 l 881 614 q 944 590 918 614 q 970 532 970 567 l 970 279 q 945 221 971 245 q 881 197 918 199 l 390 197 q 327 221 353 199 q 300 279 300 245 l 300 532 q 326 590 300 567 q 390 614 353 614 m 307 1308 l 192 904 l 393 904 l 561 1308 l 307 1308 m 819 1471 l 1180 1023 l 1017 907 l 616 1326 l 819 1471 z "},"ὃ":{"ha":1273,"x_min":61,"x_max":1212,"o":"m 327 811 q 139 741 217 811 q 61 570 61 670 l 61 241 q 138 71 61 141 q 327 0 217 0 l 945 0 q 1132 70 1055 0 q 1210 241 1210 141 l 1210 570 q 1133 741 1212 670 q 945 811 1055 811 l 327 811 m 390 614 l 881 614 q 944 590 918 614 q 970 532 970 567 l 970 279 q 945 221 971 245 q 881 197 918 199 l 390 197 q 327 221 353 199 q 300 279 300 245 l 300 532 q 326 590 300 567 q 390 614 353 614 m 470 1308 l 585 904 l 384 904 l 216 1308 l 470 1308 m 738 1471 l 1099 1023 l 936 907 l 534 1326 l 738 1471 z "},"ὄ":{"ha":1273,"x_min":61,"x_max":1212,"o":"m 327 811 q 139 741 217 811 q 61 570 61 670 l 61 241 q 138 71 61 141 q 327 0 217 0 l 945 0 q 1132 70 1055 0 q 1210 241 1210 141 l 1210 570 q 1133 741 1212 670 q 945 811 1055 811 l 327 811 m 390 614 l 881 614 q 944 590 918 614 q 970 532 970 567 l 970 279 q 945 221 971 245 q 881 197 918 199 l 390 197 q 327 221 353 199 q 300 279 300 245 l 300 532 q 326 590 300 567 q 390 614 353 614 m 304 1308 l 189 904 l 390 904 l 557 1308 l 304 1308 m 885 1471 l 524 1023 l 687 907 l 1088 1326 l 885 1471 z "},"ὅ":{"ha":1273,"x_min":61,"x_max":1212,"o":"m 327 811 q 139 741 217 811 q 61 570 61 670 l 61 241 q 138 71 61 141 q 327 0 217 0 l 945 0 q 1132 70 1055 0 q 1210 241 1210 141 l 1210 570 q 1133 741 1212 670 q 945 811 1055 811 l 327 811 m 390 614 l 881 614 q 944 590 918 614 q 970 532 970 567 l 970 279 q 945 221 971 245 q 881 197 918 199 l 390 197 q 327 221 353 199 q 300 279 300 245 l 300 532 q 326 590 300 567 q 390 614 353 614 m 429 1308 l 545 904 l 343 904 l 176 1308 l 429 1308 m 950 1471 l 589 1023 l 752 907 l 1154 1326 l 950 1471 z "},"Ὀ":{"ha":1908,"x_min":61,"x_max":1847,"o":"m 821 929 q 610 850 698 929 q 523 658 523 770 l 523 271 q 610 79 523 159 q 821 0 697 0 l 1548 0 q 1759 79 1672 0 q 1847 271 1847 159 l 1847 658 q 1760 850 1847 770 q 1548 929 1672 929 l 821 929 m 896 722 l 1474 722 q 1558 691 1524 724 q 1593 614 1593 661 l 1593 315 q 1558 239 1593 271 q 1474 207 1524 209 l 896 207 q 812 238 847 208 q 777 315 777 271 l 777 614 q 811 690 777 661 q 896 722 847 723 m 176 929 l 61 525 l 262 525 l 430 929 l 176 929 z "},"Ὁ":{"ha":1908,"x_min":61,"x_max":1847,"o":"m 821 929 q 610 850 698 929 q 523 658 523 770 l 523 271 q 610 79 523 159 q 821 0 697 0 l 1548 0 q 1759 79 1672 0 q 1847 271 1847 159 l 1847 658 q 1760 850 1847 770 q 1548 929 1672 929 l 821 929 m 896 722 l 1474 722 q 1558 691 1524 724 q 1593 614 1593 661 l 1593 315 q 1558 239 1593 271 q 1474 207 1524 209 l 896 207 q 812 238 847 208 q 777 315 777 271 l 777 614 q 811 690 777 661 q 896 722 847 723 m 315 929 l 430 525 l 229 525 l 61 929 l 315 929 z "},"Ὂ":{"ha":2508,"x_min":-134,"x_max":2252,"o":"m 1421 929 q 1211 850 1298 929 q 1123 658 1123 770 l 1123 271 q 1210 79 1123 159 q 1421 0 1297 0 l 2148 0 q 2359 79 2272 0 q 2447 271 2447 159 l 2447 658 q 2360 850 2447 770 q 2148 929 2273 929 l 1421 929 m 1496 722 l 2074 722 q 2158 691 2124 724 q 2193 614 2193 661 l 2193 315 q 2159 239 2193 271 q 2074 207 2124 209 l 1496 207 q 1412 238 1447 208 q 1377 315 1377 271 l 1377 614 q 1411 690 1377 661 q 1496 722 1447 723 m 176 766 l 61 362 l 262 362 l 430 766 l 176 766 m 688 929 l 1049 481 l 886 365 l 485 784 l 688 929 z "},"Ὃ":{"ha":2397,"x_min":-34,"x_max":2241,"o":"m 1311 929 q 1100 850 1187 929 q 1013 658 1013 770 l 1013 271 q 1099 79 1013 159 q 1311 0 1187 0 l 2038 0 q 2249 79 2161 0 q 2336 271 2336 159 l 2336 658 q 2249 850 2336 770 q 2038 929 2162 929 l 1311 929 m 1385 722 l 1963 722 q 2047 691 2013 724 q 2083 614 2083 661 l 2083 315 q 2048 239 2083 271 q 1963 207 2013 209 l 1385 207 q 1301 238 1337 208 q 1266 315 1266 271 l 1266 614 q 1301 690 1266 661 q 1385 722 1337 723 m 315 766 l 430 362 l 229 362 l 61 766 l 315 766 m 583 929 l 943 481 l 781 365 l 379 784 l 583 929 z "},"Ὄ":{"ha":2429,"x_min":151,"x_max":2458,"o":"m 1343 929 q 1132 850 1219 929 q 1044 658 1044 770 l 1044 271 q 1131 79 1044 159 q 1343 0 1219 0 l 2070 0 q 2281 79 2193 0 q 2368 271 2368 159 l 2368 658 q 2281 850 2368 770 q 2070 929 2194 929 l 1343 929 m 1417 722 l 1995 722 q 2079 691 2045 724 q 2115 614 2115 661 l 2115 315 q 2080 239 2115 271 q 1995 207 2045 209 l 1417 207 q 1333 238 1369 208 q 1298 315 1298 271 l 1298 614 q 1333 690 1298 661 q 1417 722 1369 723 m 176 766 l 61 362 l 262 362 l 430 766 l 176 766 m 758 929 l 397 481 l 559 365 l 961 784 l 758 929 z "},"Ὅ":{"ha":2479,"x_min":42,"x_max":2399,"o":"m 1392 929 q 1181 850 1269 929 q 1094 658 1094 770 l 1094 271 q 1181 79 1094 159 q 1392 0 1268 0 l 2119 0 q 2330 79 2243 0 q 2418 271 2418 159 l 2418 658 q 2331 850 2418 770 q 2119 929 2243 929 l 1392 929 m 1467 722 l 2045 722 q 2129 691 2095 724 q 2164 614 2164 661 l 2164 315 q 2129 239 2164 271 q 2045 207 2095 209 l 1467 207 q 1383 238 1418 208 q 1348 315 1348 271 l 1348 614 q 1382 690 1348 661 q 1467 722 1418 723 m 315 766 l 430 362 l 229 362 l 61 766 l 315 766 m 836 929 l 475 481 l 637 365 l 1039 784 l 836 929 z "},"ὐ":{"ha":1484,"x_min":61,"x_max":1423,"o":"m 61 811 l 623 292 l 623 0 l 861 0 l 861 292 l 1423 811 l 1072 811 l 742 484 l 412 811 l 61 811 m 618 1308 l 503 904 l 705 904 l 872 1308 l 618 1308 z "},"ὑ":{"ha":1484,"x_min":61,"x_max":1423,"o":"m 61 811 l 623 292 l 623 0 l 861 0 l 861 292 l 1423 811 l 1072 811 l 742 484 l 412 811 l 61 811 m 757 1308 l 872 904 l 671 904 l 503 1308 l 757 1308 z "},"ὒ":{"ha":1484,"x_min":61,"x_max":1423,"o":"m 61 811 l 623 292 l 623 0 l 861 0 l 861 292 l 1423 811 l 1072 811 l 742 484 l 412 811 l 61 811 m 416 1308 l 300 904 l 502 904 l 669 1308 l 416 1308 m 928 1471 l 1289 1023 l 1126 907 l 724 1326 l 928 1471 z "},"ὓ":{"ha":1484,"x_min":61,"x_max":1423,"o":"m 61 811 l 623 292 l 623 0 l 861 0 l 861 292 l 1423 811 l 1072 811 l 742 484 l 412 811 l 61 811 m 559 1308 l 675 904 l 473 904 l 306 1308 l 559 1308 m 827 1471 l 1188 1023 l 1025 907 l 624 1326 l 827 1471 z "},"ὔ":{"ha":1484,"x_min":61,"x_max":1423,"o":"m 61 811 l 623 292 l 623 0 l 861 0 l 861 292 l 1423 811 l 1072 811 l 742 484 l 412 811 l 61 811 m 465 1308 l 349 904 l 551 904 l 718 1308 l 465 1308 m 1046 1471 l 685 1023 l 848 907 l 1249 1326 l 1046 1471 z "},"ὕ":{"ha":1484,"x_min":61,"x_max":1423,"o":"m 61 811 l 623 292 l 623 0 l 861 0 l 861 292 l 1423 811 l 1072 811 l 742 484 l 412 811 l 61 811 m 524 1308 l 639 904 l 437 904 l 270 1308 l 524 1308 m 1044 1471 l 684 1023 l 846 907 l 1248 1326 l 1044 1471 z "},"ὖ":{"ha":1484,"x_min":61,"x_max":1423,"o":"m 61 811 l 623 292 l 623 0 l 861 0 l 861 292 l 1423 811 l 1072 811 l 742 484 l 412 811 l 61 811 m 700 1308 l 585 904 l 786 904 l 954 1308 l 700 1308 m 473 1416 l 486 1474 q 581 1623 507 1572 q 738 1649 655 1674 l 952 1586 q 1015 1596 987 1575 q 1053 1655 1046 1617 l 1206 1610 l 1194 1551 q 1099 1403 1173 1455 q 942 1376 1025 1352 l 727 1440 q 665 1430 694 1451 q 627 1371 635 1409 l 473 1416 z "},"ὗ":{"ha":1484,"x_min":61,"x_max":1423,"o":"m 61 811 l 623 292 l 623 0 l 861 0 l 861 292 l 1423 811 l 1072 811 l 742 484 l 412 811 l 61 811 m 757 1308 l 872 904 l 671 904 l 503 1308 l 757 1308 m 321 1416 l 334 1474 q 429 1623 355 1572 q 586 1649 503 1674 l 800 1586 q 863 1596 835 1575 q 901 1655 894 1617 l 1054 1610 l 1042 1551 q 947 1403 1021 1455 q 790 1376 873 1352 l 575 1440 q 513 1430 543 1451 q 475 1371 483 1409 l 321 1416 z "},"Ὑ":{"ha":2066,"x_min":170,"x_max":2114,"o":"m 468 929 l 1109 336 l 1109 0 l 1363 0 l 1363 336 l 2005 929 l 1630 929 l 1236 538 l 842 929 l 468 929 m 315 929 l 430 525 l 229 525 l 61 929 l 315 929 z "},"Ὓ":{"ha":2375,"x_min":256,"x_max":2509,"o":"m 777 929 l 1419 336 l 1419 0 l 1672 0 l 1672 336 l 2314 929 l 1940 929 l 1546 538 l 1152 929 l 777 929 m 315 766 l 430 362 l 229 362 l 61 766 l 315 766 m 583 929 l 943 481 l 781 365 l 379 784 l 583 929 z "},"Ὕ":{"ha":2660,"x_min":127,"x_max":2666,"o":"m 1063 929 l 1704 336 l 1704 0 l 1958 0 l 1958 336 l 2599 929 l 2225 929 l 1831 538 l 1437 929 l 1063 929 m 315 766 l 430 362 l 229 362 l 61 766 l 315 766 m 836 929 l 475 481 l 637 365 l 1039 784 l 836 929 z "},"Ὗ":{"ha":2538,"x_min":61,"x_max":2477,"o":"m 941 929 l 1582 336 l 1582 0 l 1836 0 l 1836 336 l 2477 929 l 2103 929 l 1709 538 l 1315 929 l 941 929 m 496 564 l 612 159 l 410 159 l 243 564 l 496 564 m 61 671 l 74 730 q 168 878 95 827 q 326 905 243 929 l 540 842 q 603 851 574 831 q 641 911 633 873 l 793 865 l 781 806 q 687 659 761 710 q 530 631 613 607 l 315 696 q 252 685 282 706 q 214 626 222 665 l 61 671 z "},"ὠ":{"ha":1395,"x_min":61,"x_max":1334,"o":"m 420 811 q 233 741 311 811 q 156 570 158 670 l 156 290 q 164 233 156 260 q 184 196 172 206 l 61 197 l 61 0 l 600 0 l 600 197 l 484 197 q 418 221 445 199 q 393 279 393 245 l 393 532 q 418 589 393 567 q 484 614 445 616 l 911 614 q 975 590 949 614 q 1002 532 1002 567 l 1002 279 q 975 222 1002 246 q 911 197 949 199 l 794 197 l 794 0 l 1334 0 l 1334 197 l 1212 197 q 1232 234 1225 208 q 1239 290 1240 262 l 1239 570 q 1162 741 1239 670 q 975 811 1086 811 l 698 811 l 420 811 m 661 1308 l 546 904 l 747 904 l 915 1308 l 661 1308 z "},"ὡ":{"ha":1395,"x_min":61,"x_max":1334,"o":"m 420 811 q 233 741 311 811 q 156 570 158 670 l 156 290 q 164 233 156 260 q 184 196 172 206 l 61 197 l 61 0 l 600 0 l 600 197 l 484 197 q 418 221 445 199 q 393 279 393 245 l 393 532 q 418 589 393 567 q 484 614 445 616 l 911 614 q 975 590 949 614 q 1002 532 1002 567 l 1002 279 q 975 222 1002 246 q 911 197 949 199 l 794 197 l 794 0 l 1334 0 l 1334 197 l 1212 197 q 1232 234 1225 208 q 1239 290 1240 262 l 1239 570 q 1162 741 1239 670 q 975 811 1086 811 l 698 811 l 420 811 m 695 1308 l 810 904 l 609 904 l 441 1308 l 695 1308 z "},"ὢ":{"ha":1395,"x_min":61,"x_max":1334,"o":"m 420 811 q 233 741 311 811 q 156 570 158 670 l 156 290 q 164 233 156 260 q 184 196 172 206 l 61 197 l 61 0 l 600 0 l 600 197 l 484 197 q 418 221 445 199 q 393 279 393 245 l 393 532 q 418 589 393 567 q 484 614 445 616 l 911 614 q 975 590 949 614 q 1002 532 1002 567 l 1002 279 q 975 222 1002 246 q 911 197 949 199 l 794 197 l 794 0 l 1334 0 l 1334 197 l 1212 197 q 1232 234 1225 208 q 1239 290 1240 262 l 1239 570 q 1162 741 1239 670 q 975 811 1086 811 l 698 811 l 420 811 m 387 1308 l 272 904 l 473 904 l 641 1308 l 387 1308 m 899 1471 l 1260 1023 l 1097 907 l 696 1326 l 899 1471 z "}}}
